<?xml version="1.0" standalone="no"?>
<!DOCTYPE svg PUBLIC "-//W3C//DTD SVG 20010904//EN"
 "http://www.w3.org/TR/2001/REC-SVG-20010904/DTD/svg10.dtd">
<svg version="1.0" xmlns="http://www.w3.org/2000/svg"
 width="2784.000000pt" height="1884.000000pt" viewBox="0 0 2784.000000 1884.000000"
 preserveAspectRatio="xMidYMid meet">

<g transform="translate(0.000000,1884.000000) scale(0.100000,-0.100000)"
fill="#000000" stroke="none">
<path d="M15493 10666 c-384 -73 -687 -333 -824 -708 -100 -271 -96 -565 11
-841 46 -119 121 -245 188 -317 l47 -51 78 77 c42 42 77 81 77 85 0 5 -16 33
-35 63 -115 181 -188 498 -171 750 31 460 236 742 611 842 54 15 105 19 225
19 149 -1 159 -2 250 -33 95 -33 119 -46 218 -109 58 -38 163 -140 189 -185
20 -32 29 -34 55 -11 26 24 35 7 10 -20 l-21 -23 47 -95 c84 -166 122 -349
122 -581 0 -542 -221 -875 -641 -964 -54 -12 -105 -15 -189 -11 -236 11 -409
88 -576 257 l-79 79 -78 -79 -77 -78 52 -45 c162 -137 353 -213 601 -238 355
-35 714 89 932 322 148 159 235 316 291 526 32 121 44 370 24 504 -31 218
-133 425 -280 570 -141 139 -297 223 -524 281 -105 26 -422 35 -533 14z"/>
<path d="M18115 10665 c-92 -18 -186 -47 -260 -80 -162 -73 -335 -222 -438
-376 -59 -89 -127 -227 -127 -257 0 -15 178 -202 192 -202 3 0 8 31 12 69 7
83 48 243 78 309 34 76 123 205 172 250 269 248 717 283 1022 79 224 -148 369
-399 414 -712 14 -104 12 -357 -5 -460 -53 -326 -197 -544 -437 -659 -43 -21
-78 -40 -78 -44 0 -4 16 -22 34 -40 l35 -33 73 32 c159 69 338 212 432 343
104 146 181 329 211 504 31 179 16 432 -36 593 -115 357 -434 619 -832 684
-113 18 -365 18 -462 0z"/>
<path d="M19721 10663 c-12 -23 -71 -294 -71 -327 0 -42 26 -30 45 20 23 61
89 129 140 144 37 12 598 32 618 22 10 -4 8 -1158 -3 -1542 -11 -415 -20 -442
-141 -456 -40 -4 -59 -11 -59 -20 0 -8 3 -14 8 -15 28 -3 681 -4 695 0 42 9 4
26 -81 37 -100 12 -125 26 -148 81 -28 65 -35 313 -32 1117 l3 800 210 -3
c241 -3 338 -13 400 -40 75 -33 105 -74 105 -144 0 -39 15 -66 29 -52 5 6 12
93 16 194 l7 184 -63 -9 c-35 -5 -399 -9 -809 -9 -683 0 -749 1 -790 17 -57
22 -67 22 -79 1z"/>
<path d="M12477 10634 c-15 -16 -5 -21 51 -27 133 -13 169 -44 183 -158 11
-102 11 -1515 -1 -1667 -17 -213 -34 -247 -132 -258 -59 -7 -78 -17 -57 -30
12 -7 665 -13 687 -6 6 2 12 10 12 18 0 9 -12 14 -37 14 -73 0 -156 19 -179
41 -12 11 -27 42 -34 67 -27 105 -42 751 -17 769 7 5 93 8 204 5 l192 -4 83
-117 c102 -144 337 -455 418 -555 128 -158 225 -219 375 -236 99 -11 347 -13
383 -4 44 12 15 29 -60 36 -147 13 -264 74 -393 203 -83 84 -318 367 -465 560
-46 61 -97 127 -113 147 l-30 37 62 63 c184 185 268 353 278 554 5 95 3 122
-15 180 -40 130 -137 245 -254 299 -150 69 -144 68 -663 72 -259 3 -474 1
-478 -3z m853 -104 c110 -37 172 -85 230 -176 116 -184 131 -476 34 -679 -33
-71 -105 -140 -173 -166 -108 -42 -421 -20 -463 32 -17 20 -18 59 -18 499 0
414 2 479 15 490 41 34 273 34 375 0z"/>
<path d="M17257 9863 c-46 -165 -51 -381 -13 -556 50 -227 131 -387 274 -539
153 -162 333 -259 567 -304 171 -33 475 -18 586 29 l28 12 -34 38 -35 39 -69
-16 c-171 -39 -390 -8 -559 78 -146 75 -300 233 -379 389 -16 31 -33 54 -38
50 -4 -5 -5 -3 -2 3 4 6 -7 47 -23 91 -39 109 -68 267 -76 417 -4 68 -10 128
-13 133 -4 4 -50 50 -102 101 l-96 94 -16 -59z"/>
<path d="M7230 9671 c0 -6 4 -13 10 -16 6 -3 7 1 4 9 -7 18 -14 21 -14 7z"/>
<path d="M7246 9583 c-6 -14 -5 -15 5 -6 7 7 10 15 7 18 -3 3 -9 -2 -12 -12z"/>
<path d="M7150 9491 c0 -6 4 -13 10 -16 6 -3 7 1 4 9 -7 18 -14 21 -14 7z"/>
<path d="M7150 9455 c0 -5 5 -17 10 -25 5 -8 10 -10 10 -5 0 6 -5 17 -10 25
-5 8 -10 11 -10 5z"/>
<path d="M7126 9384 c-3 -9 -2 -23 3 -31 7 -14 10 -13 20 6 7 12 10 27 7 34
-2 7 -5 5 -5 -5 -1 -9 -6 -20 -12 -24 -8 -4 -9 0 -4 15 7 24 0 29 -9 5z"/>
<path d="M6487 9371 c-4 -17 -3 -21 5 -13 5 5 8 16 6 23 -3 8 -7 3 -11 -10z"/>
<path d="M7736 9333 c-6 -14 -5 -15 5 -6 7 7 10 15 7 18 -3 3 -9 -2 -12 -12z"/>
<path d="M7752 9300 c0 -14 2 -19 5 -12 2 6 2 18 0 25 -3 6 -5 1 -5 -13z"/>
<path d="M6466 9277 c3 -10 9 -15 12 -12 3 3 0 11 -7 18 -10 9 -11 8 -5 -6z"/>
<path d="M6462 9220 c0 -14 2 -19 5 -12 2 6 2 18 0 25 -3 6 -5 1 -5 -13z"/>
<path d="M7102 9200 c0 -19 2 -27 5 -17 2 9 2 25 0 35 -3 9 -5 1 -5 -18z"/>
<path d="M6441 9204 c0 -11 3 -14 6 -6 3 7 2 16 -1 19 -3 4 -6 -2 -5 -13z"/>
<path d="M7670 9179 c0 -5 -4 -8 -9 -4 -5 3 -12 1 -15 -4 -4 -5 2 -8 11 -7 15
3 33 26 19 26 -3 0 -6 -5 -6 -11z"/>
<path d="M6436 9157 c3 -10 9 -15 12 -12 3 3 0 11 -7 18 -10 9 -11 8 -5 -6z"/>
<path d="M7615 9140 c-3 -5 -2 -10 4 -10 5 0 13 5 16 10 3 6 2 10 -4 10 -5 0
-13 -4 -16 -10z"/>
<path d="M6451 9114 c0 -11 3 -14 6 -6 3 7 2 16 -1 19 -3 4 -6 -2 -5 -13z"/>
<path d="M7576 9111 c-12 -13 -14 -21 -6 -26 14 -9 23 0 25 25 2 24 2 24 -19
1z"/>
<path d="M7786 9117 c3 -10 9 -15 12 -12 3 3 0 11 -7 18 -10 9 -11 8 -5 -6z"/>
<path d="M6431 9092 c-1 -8 -6 -10 -13 -6 -10 5 -10 4 -1 -6 15 -16 28 -8 20
12 -4 11 -6 11 -6 0z"/>
<path d="M7535 9060 c-3 -5 -1 -10 4 -10 6 0 11 5 11 10 0 6 -2 10 -4 10 -3 0
-8 -4 -11 -10z"/>
<path d="M6430 9029 c0 -5 5 -7 10 -4 6 3 10 8 10 11 0 2 -4 4 -10 4 -5 0 -10
-5 -10 -11z"/>
<path d="M7415 8969 c-4 -6 -4 -13 -1 -16 3 -3 0 -13 -7 -22 -11 -14 -10 -14
5 -2 10 7 15 18 12 23 -4 6 0 14 7 19 9 6 10 9 2 9 -6 0 -15 -5 -18 -11z"/>
<path d="M7746 8965 c-9 -26 -7 -32 5 -12 6 10 9 21 6 23 -2 3 -7 -2 -11 -11z"/>
<path d="M7692 8950 c0 -14 2 -19 5 -12 2 6 2 18 0 25 -3 6 -5 1 -5 -13z"/>
<path d="M6393 8915 c0 -27 2 -38 4 -22 2 15 2 37 0 50 -2 12 -4 0 -4 -28z"/>
<path d="M7711 8939 c0 -9 6 -22 14 -29 12 -10 15 -9 15 4 0 10 -4 15 -9 11
-5 -3 -12 3 -14 12 -4 15 -5 15 -6 2z"/>
<path d="M7437 8914 c2 -7 11 -10 19 -7 19 7 18 10 -5 16 -13 3 -18 1 -14 -9z"/>
<path d="M6411 8904 c0 -11 3 -14 6 -6 3 7 2 16 -1 19 -3 4 -6 -2 -5 -13z"/>
<path d="M6441 8904 c0 -11 3 -14 6 -6 3 7 2 16 -1 19 -3 4 -6 -2 -5 -13z"/>
<path d="M7510 8916 c0 -2 7 -7 16 -10 8 -3 12 -2 9 4 -6 10 -25 14 -25 6z"/>
<path d="M7462 8894 c-12 -8 -22 -21 -22 -27 0 -8 3 -9 8 -1 4 5 18 18 32 27
13 9 20 17 14 17 -5 0 -20 -7 -32 -16z"/>
<path d="M7585 8901 c-3 -5 -2 -12 3 -15 5 -3 9 1 9 9 0 17 -3 19 -12 6z"/>
<path d="M7321 8872 c-15 -22 -17 -29 -6 -29 8 0 14 3 13 6 -2 19 4 22 19 10
15 -13 15 -12 5 8 -9 16 -9 23 1 26 8 4 9 6 0 6 -6 1 -21 -12 -32 -27z"/>
<path d="M7711 8884 c0 -11 3 -14 6 -6 3 7 2 16 -1 19 -3 4 -6 -2 -5 -13z"/>
<path d="M8485 8889 c-4 -6 -5 -12 -2 -15 2 -3 7 2 10 11 7 17 1 20 -8 4z"/>
<path d="M7691 8870 c14 -31 19 -36 19 -24 0 6 -7 19 -16 30 -14 18 -14 18 -3
-6z"/>
<path d="M6415 8835 c-4 -24 -3 -61 2 -81 7 -31 8 -23 8 45 0 44 -1 81 -2 81
-1 0 -5 -20 -8 -45z"/>
<path d="M7470 8870 c-8 -5 -10 -10 -5 -10 6 0 17 5 25 10 8 5 11 10 5 10 -5
0 -17 -5 -25 -10z"/>
<path d="M6441 8854 c0 -11 3 -14 6 -6 3 7 2 16 -1 19 -3 4 -6 -2 -5 -13z"/>
<path d="M7572 8820 c0 -14 2 -19 5 -12 2 6 2 18 0 25 -3 6 -5 1 -5 -13z"/>
<path d="M7388 8818 c9 -9 15 -9 24 0 9 9 7 12 -12 12 -19 0 -21 -3 -12 -12z"/>
<path d="M7252 8778 c-12 -23 -19 -44 -17 -47 8 -7 15 4 20 29 2 12 10 28 16
36 7 8 10 17 7 20 -3 3 -15 -14 -26 -38z"/>
<path d="M6383 8765 c0 -27 2 -38 4 -22 2 15 2 37 0 50 -2 12 -4 0 -4 -28z"/>
<path d="M7591 8784 c0 -11 3 -14 6 -6 3 7 2 16 -1 19 -3 4 -6 -2 -5 -13z"/>
<path d="M8371 8767 c-13 -21 -12 -21 5 -5 10 10 16 20 13 22 -3 3 -11 -5 -18
-17z"/>
<path d="M7564 8755 c-4 -9 -4 -19 0 -22 3 -4 6 2 6 13 0 16 2 17 10 4 6 -9
10 -10 10 -3 0 19 -20 26 -26 8z"/>
<path d="M7266 8744 c-3 -9 -6 -21 -5 -27 0 -7 4 -2 9 11 11 26 32 30 24 5 -4
-14 -3 -15 4 -5 5 8 12 13 16 12 3 0 14 4 24 9 9 6 12 11 5 11 -6 0 -15 -5
-19 -11 -4 -8 -9 -8 -17 0 -16 16 -34 14 -41 -5z"/>
<path d="M7592 8700 c0 -14 2 -19 5 -12 2 6 2 18 0 25 -3 6 -5 1 -5 -13z"/>
<path d="M6431 8694 c0 -11 3 -14 6 -6 3 7 2 16 -1 19 -3 4 -6 -2 -5 -13z"/>
<path d="M6400 8691 c0 -6 4 -13 10 -16 6 -3 7 1 4 9 -7 18 -14 21 -14 7z"/>
<path d="M6381 8674 c0 -11 3 -14 6 -6 3 7 2 16 -1 19 -3 4 -6 -2 -5 -13z"/>
<path d="M6455 8679 c-4 -6 -5 -12 -2 -15 2 -3 7 2 10 11 7 17 1 20 -8 4z"/>
<path d="M8303 8662 c-1 -15 1 -21 4 -13 4 11 10 8 24 -10 10 -13 18 -19 18
-14 0 6 -10 22 -22 37 l-23 28 -1 -28z"/>
<path d="M6431 8644 c0 -11 3 -14 6 -6 3 7 2 16 -1 19 -3 4 -6 -2 -5 -13z"/>
<path d="M7572 8630 c0 -19 2 -27 5 -17 2 9 2 25 0 35 -3 9 -5 1 -5 -18z"/>
<path d="M7683 8634 c1 -16 8 -29 15 -29 15 0 14 14 -4 39 -12 18 -13 17 -11
-10z"/>
<path d="M8276 8645 c-9 -26 -7 -32 5 -12 6 10 9 21 6 23 -2 3 -7 -2 -11 -11z"/>
<path d="M7200 8626 c-12 -19 -12 -20 3 -7 18 14 24 2 7 -15 -6 -6 -5 -15 1
-24 9 -13 10 -13 6 0 -2 8 1 22 8 30 11 12 11 17 1 26 -10 9 -16 7 -26 -10z"/>
<path d="M6412 8620 c0 -14 2 -19 5 -12 2 6 2 18 0 25 -3 6 -5 1 -5 -13z"/>
<path d="M9000 8629 c0 -5 5 -7 10 -4 6 3 10 8 10 11 0 2 -4 4 -10 4 -5 0 -10
-5 -10 -11z"/>
<path d="M7551 8614 c0 -11 3 -14 6 -6 3 7 2 16 -1 19 -3 4 -6 -2 -5 -13z"/>
<path d="M8285 8611 c-3 -5 -1 -12 5 -16 5 -3 10 1 10 9 0 18 -6 21 -15 7z"/>
<path d="M8323 8599 c-2 -23 3 -25 10 -4 4 8 3 16 -1 19 -4 3 -9 -4 -9 -15z"/>
<path d="M8845 8599 c-4 -6 -5 -12 -2 -15 2 -3 7 2 10 11 7 17 1 20 -8 4z"/>
<path d="M7760 8582 c0 -4 10 -13 23 -21 22 -14 22 -14 3 8 -20 22 -26 25 -26
13z"/>
<path d="M7172 8560 c0 -14 2 -19 5 -12 2 6 2 18 0 25 -3 6 -5 1 -5 -13z"/>
<path d="M7552 8560 c0 -14 2 -19 5 -12 2 6 2 18 0 25 -3 6 -5 1 -5 -13z"/>
<path d="M7582 8560 c0 -14 2 -19 5 -12 2 6 2 18 0 25 -3 6 -5 1 -5 -13z"/>
<path d="M6487 8535 c3 -22 7 -42 9 -44 8 -9 2 45 -6 64 -7 14 -8 8 -3 -20z"/>
<path d="M8270 8556 c0 -8 5 -18 10 -21 6 -3 10 1 10 9 0 8 -4 18 -10 21 -5 3
-10 -1 -10 -9z"/>
<path d="M8302 8550 c0 -14 2 -19 5 -12 2 6 2 18 0 25 -3 6 -5 1 -5 -13z"/>
<path d="M7182 8530 c-8 -16 -11 -36 -9 -42 3 -7 6 -3 6 10 1 15 5 21 13 16 6
-4 8 -3 4 4 -3 6 -2 13 4 17 12 7 14 25 2 25 -4 0 -13 -13 -20 -30z"/>
<path d="M7765 8551 c5 -9 2 -19 -10 -28 -11 -7 -14 -13 -8 -13 7 0 15 5 18
10 4 6 15 8 25 5 10 -3 22 0 26 6 5 8 3 9 -5 5 -7 -5 -21 0 -33 11 -12 10 -18
12 -13 4z"/>
<path d="M7551 8504 c0 -11 3 -14 6 -6 3 7 2 16 -1 19 -3 4 -6 -2 -5 -13z"/>
<path d="M7572 8500 c0 -14 2 -19 5 -12 2 6 2 18 0 25 -3 6 -5 1 -5 -13z"/>
<path d="M7590 8496 c0 -14 5 -28 10 -31 16 -10 11 -26 -7 -23 -11 2 -18 -4
-20 -17 l-3 -20 9 20 10 20 1 -20 1 -20 11 20 c12 19 12 19 20 -5 6 -19 7 -17
3 10 -3 18 -10 37 -15 40 -6 4 -8 14 -5 22 4 9 2 19 -4 23 -7 4 -11 -4 -11
-19z"/>
<path d="M7847 8503 c5 -15 3 -16 -8 -5 -19 18 -33 15 -15 -4 9 -8 21 -12 27
-9 5 4 19 -1 30 -11 10 -9 19 -13 18 -8 0 5 -13 19 -30 32 -25 20 -28 21 -22
5z"/>
<path d="M8272 8500 c0 -14 2 -19 5 -12 2 6 2 18 0 25 -3 6 -5 1 -5 -13z"/>
<path d="M7631 8494 c0 -11 3 -14 6 -6 3 7 2 16 -1 19 -3 4 -6 -2 -5 -13z"/>
<path d="M7700 8506 c0 -2 7 -7 16 -10 8 -3 12 -2 9 4 -6 10 -25 14 -25 6z"/>
<path d="M7800 8480 c19 -17 38 -30 43 -30 6 0 -7 14 -28 30 -49 39 -61 38
-15 0z"/>
<path d="M7740 8486 c0 -2 16 -13 36 -25 19 -12 32 -16 29 -11 -7 11 -65 43
-65 36z"/>
<path d="M6480 8461 c0 -11 4 -22 9 -25 4 -3 6 6 3 19 -5 30 -12 33 -12 6z"/>
<path d="M7866 8457 c3 -10 9 -15 12 -12 3 3 0 11 -7 18 -10 9 -11 8 -5 -6z"/>
<path d="M7904 8448 c-4 -7 -3 -8 4 -4 6 3 16 -3 23 -15 10 -19 9 -21 -5 -16
-8 3 -18 1 -22 -5 -4 -6 -3 -8 4 -4 6 3 13 2 17 -4 3 -5 11 -10 16 -10 6 0 7
5 4 10 -9 14 8 12 25 -2 8 -7 -1 4 -19 25 -40 42 -37 41 -47 25z"/>
<path d="M8766 8443 c-6 -14 -5 -15 5 -6 7 7 10 15 7 18 -3 3 -9 -2 -12 -12z"/>
<path d="M8890 8445 c0 -5 5 -17 10 -25 5 -8 10 -10 10 -5 0 6 -5 17 -10 25
-5 8 -10 11 -10 5z"/>
<path d="M7828 8428 c8 -10 20 -14 29 -11 11 4 14 2 9 -5 -5 -8 -2 -10 10 -5
15 6 15 7 -1 15 -9 6 -19 7 -22 4 -4 -3 -13 0 -22 7 -14 10 -14 10 -3 -5z"/>
<path d="M8282 8402 c-1 -24 -5 -41 -9 -39 -5 3 -8 -8 -9 -24 -1 -16 3 -29 7
-29 5 0 8 -10 7 -23 -1 -13 8 -37 20 -54 12 -17 20 -32 17 -34 -2 -2 5 -15 16
-29 l20 -25 -12 25 c-7 14 -14 31 -15 37 -1 7 -11 24 -22 38 -11 14 -18 34
-15 44 3 10 0 22 -6 25 -7 4 -7 16 0 35 6 16 9 44 6 63 -3 29 -4 28 -5 -10z"/>
<path d="M6416 8410 c3 -14 11 -32 16 -40 6 -10 7 -7 2 10 -3 14 -11 32 -16
40 -6 10 -7 7 -2 -10z"/>
<path d="M6521 8414 c0 -11 3 -14 6 -6 3 7 2 16 -1 19 -3 4 -6 -2 -5 -13z"/>
<path d="M6457 8394 c-2 -15 -1 -38 3 -53 5 -20 7 -14 7 27 1 58 -2 65 -10 26z"/>
<path d="M6487 8388 c-9 -31 -2 -33 11 -3 6 14 8 25 3 25 -5 0 -11 -10 -14
-22z"/>
<path d="M7561 8384 c0 -11 3 -14 6 -6 3 7 2 16 -1 19 -3 4 -6 -2 -5 -13z"/>
<path d="M8766 8381 c4 -15 2 -21 -4 -17 -6 4 -8 -2 -4 -16 l5 -22 9 23 c5 14
4 29 -2 39 -9 14 -10 12 -4 -7z"/>
<path d="M6506 8373 c-6 -14 -5 -15 5 -6 7 7 10 15 7 18 -3 3 -9 -2 -12 -12z"/>
<path d="M6530 8380 c0 -5 5 -10 10 -10 6 0 10 5 10 10 0 6 -4 10 -10 10 -5 0
-10 -4 -10 -10z"/>
<path d="M7631 8380 c0 -8 4 -22 9 -30 12 -18 12 -2 0 25 -6 13 -9 15 -9 5z"/>
<path d="M7906 8382 c-3 -5 1 -15 8 -21 11 -10 14 -9 12 3 -3 21 -13 29 -20
18z"/>
<path d="M8003 8373 c4 -6 1 -16 -7 -22 -14 -12 -16 -35 -4 -47 4 -3 5 2 3 13
-1 10 4 25 12 35 11 12 11 18 2 24 -7 4 -10 3 -6 -3z"/>
<path d="M7588 8343 c5 -21 7 -23 10 -9 2 10 0 22 -6 28 -6 6 -7 0 -4 -19z"/>
<path d="M8049 8314 c17 -26 18 -34 7 -43 -7 -6 -17 -7 -21 -3 -5 4 -5 1 -1
-6 4 -7 12 -9 18 -6 7 5 9 2 6 -7 -3 -9 3 -26 13 -40 10 -13 19 -19 19 -14 1
20 20 -20 20 -42 0 -12 4 -25 10 -28 12 -7 2 55 -11 70 -5 5 -9 18 -9 30 1 17
3 16 16 -7 21 -40 27 -34 7 8 -15 30 -19 33 -29 20 -6 -9 -17 -16 -23 -16 -8
0 -7 5 3 16 22 21 21 25 -15 64 -30 34 -30 34 -10 4z m31 -44 c0 -5 -5 -10
-11 -10 -5 0 -7 5 -4 10 3 6 8 10 11 10 2 0 4 -4 4 -10z"/>
<path d="M8726 8323 c-6 -14 -5 -15 5 -6 7 7 10 15 7 18 -3 3 -9 -2 -12 -12z"/>
<path d="M8781 8324 c0 -11 3 -14 6 -6 3 7 2 16 -1 19 -3 4 -6 -2 -5 -13z"/>
<path d="M6435 8322 c4 -8 11 -26 15 -40 7 -22 8 -23 9 -6 1 11 -6 29 -15 40
-8 10 -12 13 -9 6z"/>
<path d="M7636 8289 c-4 -23 -5 -44 -2 -46 2 -2 7 14 11 37 4 23 5 43 2 46 -2
3 -7 -14 -11 -37z"/>
<path d="M7611 8285 c0 -35 1 -37 10 -17 6 15 5 30 -1 40 -7 13 -9 8 -9 -23z"/>
<path d="M6472 8285 c0 -16 2 -22 5 -12 2 9 2 23 0 30 -3 6 -5 -1 -5 -18z"/>
<path d="M6575 8293 c4 -12 1 -33 -5 -45 -11 -22 -10 -22 4 -4 9 11 16 17 16
14 0 -4 3 -14 7 -24 4 -12 3 -15 -5 -10 -7 4 -12 3 -12 -3 0 -5 5 -13 10 -16
6 -3 10 0 10 7 0 9 3 9 10 -2 17 -27 11 -4 -15 51 -14 30 -23 44 -20 32z"/>
<path d="M8020 8301 c0 -5 7 -11 14 -14 10 -4 13 -1 9 9 -6 15 -23 19 -23 5z"/>
<path d="M8735 8290 c-3 -5 -1 -10 4 -10 6 0 11 5 11 10 0 6 -2 10 -4 10 -3 0
-8 -4 -11 -10z"/>
<path d="M8687 8221 c-3 -11 -1 -23 3 -26 14 -8 22 13 12 31 -8 14 -10 14 -15
-5z"/>
<path d="M7596 8203 c-6 -14 -5 -15 5 -6 7 7 10 15 7 18 -3 3 -9 -2 -12 -12z"/>
<path d="M7665 8199 c-4 -6 -5 -12 -2 -15 2 -3 7 2 10 11 7 17 1 20 -8 4z"/>
<path d="M6510 8190 c0 -8 5 -22 10 -30 9 -13 10 -13 10 0 0 8 -5 22 -10 30
-9 13 -10 13 -10 0z"/>
<path d="M6541 8184 c0 -11 3 -14 6 -6 3 7 2 16 -1 19 -3 4 -6 -2 -5 -13z"/>
<path d="M7620 8191 c0 -6 5 -13 10 -16 6 -3 10 -15 10 -26 0 -11 4 -18 9 -15
10 7 -9 66 -21 66 -4 0 -8 -4 -8 -9z"/>
<path d="M8136 8164 c-3 -8 0 -27 8 -42 l14 -27 -1 27 c-1 14 -6 24 -11 21 -4
-3 -5 4 -1 16 7 24 0 29 -9 5z"/>
<path d="M8726 8156 c-4 -17 -1 -34 8 -47 13 -19 14 -19 25 12 6 18 9 35 6 37
-3 3 -5 -1 -5 -9 -1 -8 -7 -3 -14 10 l-13 24 -7 -27z m24 -32 c0 -8 -4 -12
-10 -9 -5 3 -10 13 -10 21 0 8 5 12 10 9 6 -3 10 -13 10 -21z"/>
<path d="M6496 8145 c8 -37 14 -45 14 -19 0 10 -5 26 -10 34 -8 11 -9 7 -4
-15z"/>
<path d="M8681 8154 c0 -11 3 -14 6 -6 3 7 2 16 -1 19 -3 4 -6 -2 -5 -13z"/>
<path d="M7615 8130 c2 -18 6 -35 9 -38 3 -3 4 9 2 27 -2 17 -6 34 -9 38 -4 3
-5 -9 -2 -27z"/>
<path d="M7670 8130 c0 -5 5 -10 11 -10 5 0 7 5 4 10 -3 6 -8 10 -11 10 -2 0
-4 -4 -4 -10z"/>
<path d="M6525 8110 c3 -5 8 -10 11 -10 2 0 4 5 4 10 0 6 -5 10 -11 10 -5 0
-7 -4 -4 -10z"/>
<path d="M6646 8107 c3 -10 9 -15 12 -12 3 3 0 11 -7 18 -10 9 -11 8 -5 -6z"/>
<path d="M8670 8083 c-8 -21 -15 -49 -17 -63 -1 -14 7 0 18 30 10 30 18 58 16
63 -1 5 -9 -9 -17 -30z"/>
<path d="M8651 8094 c0 -11 3 -14 6 -6 3 7 2 16 -1 19 -3 4 -6 -2 -5 -13z"/>
<path d="M8702 8085 c0 -16 2 -22 5 -12 2 9 2 23 0 30 -3 6 -5 -1 -5 -18z"/>
<path d="M8720 8095 c0 -5 5 -17 10 -25 5 -8 10 -10 10 -5 0 6 -5 17 -10 25
-5 8 -10 11 -10 5z"/>
<path d="M7683 8063 c1 -19 6 -28 11 -23 6 6 5 18 -2 32 -10 22 -10 21 -9 -9z"/>
<path d="M8136 8081 c-4 -7 -5 -15 -2 -18 9 -9 19 4 14 18 -4 11 -6 11 -12 0z"/>
<path d="M6650 8063 c12 -25 25 -29 36 -11 5 7 3 8 -5 4 -7 -5 -19 0 -27 10
-14 18 -14 18 -4 -3z"/>
<path d="M7635 8070 c3 -5 8 -10 11 -10 2 0 4 5 4 10 0 6 -5 10 -11 10 -5 0
-7 -4 -4 -10z"/>
<path d="M8156 8064 c-4 -9 -4 -19 -1 -22 2 -3 7 3 11 12 4 9 4 19 1 22 -2 3
-7 -3 -11 -12z"/>
<path d="M6550 8049 c0 -5 -5 -7 -11 -4 -6 4 -5 -1 2 -13 10 -17 17 -18 41
-10 37 13 36 21 -2 13 -25 -5 -29 -4 -24 9 3 9 3 16 0 16 -3 0 -6 -5 -6 -11z"/>
<path d="M6705 8049 c-5 -7 -4 -10 2 -6 14 9 21 -10 18 -49 -1 -23 3 -30 18
-31 18 -2 18 -1 3 16 -29 31 -17 36 16 5 l32 -29 -34 45 c-47 63 -47 63 -55
49z"/>
<path d="M8673 8005 c-11 -25 -17 -45 -13 -45 9 0 43 80 37 86 -2 2 -13 -17
-24 -41z"/>
<path d="M6624 8014 c-4 -14 -2 -30 3 -35 5 -5 9 5 9 26 0 42 -3 44 -12 9z"/>
<path d="M8701 8003 c-10 -26 -10 -27 4 -9 8 11 15 23 15 28 0 15 -7 8 -19
-19z"/>
<path d="M7670 8011 c0 -7 -4 -9 -10 -6 -6 4 -7 -1 -3 -11 6 -15 7 -15 15 1 6
9 7 19 4 22 -3 4 -6 1 -6 -6z"/>
<path d="M7701 8004 c0 -11 3 -14 6 -6 3 7 2 16 -1 19 -3 4 -6 -2 -5 -13z"/>
<path d="M8152 8000 c0 -14 2 -19 5 -12 2 6 2 18 0 25 -3 6 -5 1 -5 -13z"/>
<path d="M9491 8004 c0 -11 3 -14 6 -6 3 7 2 16 -1 19 -3 4 -6 -2 -5 -13z"/>
<path d="M8622 7995 c0 -11 3 -29 8 -40 11 -25 11 1 0 35 -6 20 -8 21 -8 5z"/>
<path d="M6566 7987 c3 -10 9 -15 12 -12 3 3 0 11 -7 18 -10 9 -11 8 -5 -6z"/>
<path d="M6595 7967 c-1 -46 19 -63 33 -31 9 18 9 23 -1 21 -6 -1 -13 8 -15
21 -5 34 -17 26 -17 -11z m23 -32 c-3 -3 -9 2 -12 12 -6 14 -5 15 5 6 7 -7 10
-15 7 -18z"/>
<path d="M9476 7963 c-6 -14 -5 -15 5 -6 7 7 10 15 7 18 -3 3 -9 -2 -12 -12z"/>
<path d="M7670 7960 c0 -5 5 -10 11 -10 5 0 7 5 4 10 -3 6 -8 10 -11 10 -2 0
-4 -4 -4 -10z"/>
<path d="M8681 7954 c0 -11 3 -14 6 -6 3 7 2 16 -1 19 -3 4 -6 -2 -5 -13z"/>
<path d="M9502 7940 c0 -14 2 -19 5 -12 2 6 2 18 0 25 -3 6 -5 1 -5 -13z"/>
<path d="M7730 7939 c0 -5 -4 -7 -10 -4 -5 3 -10 -1 -10 -10 0 -9 -5 -13 -11
-9 -8 4 -8 0 0 -15 7 -11 14 -21 17 -21 3 0 2 5 -1 10 -3 6 1 17 9 26 15 15
21 34 11 34 -3 0 -5 -5 -5 -11z"/>
<path d="M8610 7905 c0 -14 5 -25 10 -25 6 0 10 -5 10 -11 0 -6 7 -18 16 -27
15 -15 16 -14 9 8 -4 14 -12 28 -18 31 -5 4 -7 11 -4 15 3 5 -1 15 -9 22 -12
11 -14 9 -14 -13z"/>
<path d="M9546 7882 c-5 -24 -5 -46 -2 -49 3 -4 6 7 7 23 1 29 1 29 9 4 6 -20
8 -21 8 -5 0 11 -3 31 -7 45 -7 22 -8 21 -15 -18z"/>
<path d="M6627 7896 c-6 -16 16 -40 27 -29 4 4 11 1 16 -7 13 -21 12 -33 -2
-24 -7 5 -8 3 -4 -5 11 -16 21 -5 21 23 1 18 -4 23 -25 22 -18 -1 -24 4 -22
17 3 21 -4 23 -11 3z"/>
<path d="M7736 7873 c-6 -14 -5 -15 5 -6 7 7 10 15 7 18 -3 3 -9 -2 -12 -12z"/>
<path d="M6700 7861 c0 -6 4 -13 10 -16 6 -3 7 1 4 9 -7 18 -14 21 -14 7z"/>
<path d="M6890 7845 c10 -12 10 -18 -1 -32 -13 -15 -12 -15 9 -4 23 12 23 13
6 32 -20 22 -32 26 -14 4z"/>
<path d="M7737 7844 c-3 -5 1 -15 9 -22 16 -14 18 -5 5 17 -5 7 -11 9 -14 5z"/>
<path d="M6693 7815 c-10 -10 -9 -16 1 -24 7 -6 17 -7 21 -3 5 4 5 -2 1 -13
-5 -15 -4 -17 4 -9 9 9 8 18 -2 37 -10 20 -15 23 -25 12z"/>
<path d="M7772 7810 c-7 -11 -8 -20 -3 -20 5 0 12 6 14 13 3 6 6 -2 6 -19 1
-29 31 -73 31 -45 0 6 -4 11 -10 11 -5 0 -10 12 -10 28 0 41 -13 55 -28 32z"/>
<path d="M8591 7814 c0 -11 3 -14 6 -6 3 7 2 16 -1 19 -3 4 -6 -2 -5 -13z"/>
<path d="M8621 7814 c0 -11 3 -14 6 -6 3 7 2 16 -1 19 -3 4 -6 -2 -5 -13z"/>
<path d="M6751 7783 c-1 -12 4 -25 9 -28 12 -7 12 2 0 30 -8 19 -9 19 -9 -2z"/>
<path d="M6976 7766 c10 -8 21 -12 24 -10 5 6 -21 24 -34 24 -6 0 -1 -6 10
-14z"/>
<path d="M9559 7744 c0 -25 -2 -26 -9 -9 -11 26 -12 -3 0 -30 6 -17 9 -14 15
18 4 21 5 41 1 44 -3 4 -6 -7 -7 -23z"/>
<path d="M7049 7717 c14 -18 51 -42 51 -33 0 3 -15 15 -32 27 -24 17 -29 18
-19 6z"/>
<path d="M6769 7708 c-11 -7 -9 -8 5 -6 10 2 21 -3 24 -11 3 -9 0 -11 -9 -6
-8 4 8 -15 35 -43 44 -45 51 -49 78 -42 16 5 36 6 44 3 8 -3 14 0 14 6 0 6 -9
11 -20 11 -11 0 -20 5 -20 10 0 6 -4 10 -10 10 -5 0 -7 -7 -4 -15 4 -8 1 -15
-5 -15 -6 0 -11 4 -11 9 0 5 -8 12 -17 16 -15 5 -16 4 -5 -6 20 -21 14 -33 -8
-14 -15 14 -17 21 -9 32 9 10 8 17 -1 28 -20 24 -66 43 -81 33z m71 -54 c0
-11 -5 -10 -18 4 -11 9 -17 21 -15 25 7 11 33 -13 33 -29z"/>
<path d="M6826 7710 c12 -5 25 -13 29 -19 3 -6 12 -11 18 -11 7 1 1 10 -12 20
-13 11 -31 20 -40 19 -11 0 -10 -3 5 -9z"/>
<path d="M7839 7686 c38 -40 43 -43 35 -23 -3 8 -19 24 -37 37 l-32 23 34 -37z"/>
<path d="M8581 7704 c0 -11 3 -14 6 -6 3 7 2 16 -1 19 -3 4 -6 -2 -5 -13z"/>
<path d="M7046 7673 c3 -29 11 -39 21 -29 4 4 1 12 -7 17 -11 8 -10 9 8 4 29
-8 28 -1 -2 18 -22 15 -23 15 -20 -10z"/>
<path d="M9541 7661 c-1 -16 -5 -21 -16 -17 -8 3 -15 0 -15 -7 0 -15 36 -48
44 -40 9 9 7 25 -2 19 -4 -2 -14 -1 -22 5 -11 6 -7 9 15 9 17 0 25 4 19 8 -7
4 -14 16 -17 27 -4 17 -5 17 -6 -4z"/>
<path d="M7110 7660 c-10 -6 -7 -10 13 -16 34 -8 42 -2 18 13 -10 6 -24 8 -31
3z"/>
<path d="M8622 7645 c0 -16 2 -22 5 -12 2 9 2 23 0 30 -3 6 -5 -1 -5 -18z"/>
<path d="M8591 7643 c0 -12 -4 -30 -7 -40 -5 -17 -5 -17 6 0 6 10 9 28 7 40
-4 22 -4 22 -6 0z"/>
<path d="M7170 7620 c0 -5 5 -10 11 -10 5 0 7 5 4 10 -3 6 -8 10 -11 10 -2 0
-4 -4 -4 -10z"/>
<path d="M10080 7619 c0 -5 5 -7 10 -4 6 3 10 8 10 11 0 2 -4 4 -10 4 -5 0
-10 -5 -10 -11z"/>
<path d="M9656 7611 c-18 -7 -18 -8 -2 -14 10 -4 25 -7 34 -6 11 0 12 2 4 6
-6 2 -10 9 -6 14 6 11 -3 11 -30 0z"/>
<path d="M7209 7598 c-8 -29 -6 -37 10 -29 9 5 27 8 41 6 14 -1 17 0 7 2 -9 2
-14 9 -11 15 4 6 -1 6 -14 -1 -26 -14 -35 -14 -27 -1 3 6 4 10 1 10 -3 0 -6
-1 -7 -2z"/>
<path d="M9496 7583 c-4 -10 0 -23 11 -32 15 -15 16 -15 5 0 -7 9 -10 24 -6
33 3 9 4 16 1 16 -3 0 -8 -8 -11 -17z"/>
<path d="M6890 7586 c0 -8 63 -65 72 -66 3 0 5 8 3 18 -2 9 -4 22 -4 27 -1 6
-6 3 -11 -5 -6 -9 -13 -11 -17 -5 -12 16 -43 38 -43 31z"/>
<path d="M9650 7580 c12 -10 11 -11 -9 -6 -16 3 -21 2 -14 -5 7 -7 22 -7 44
-1 19 6 26 11 17 11 -9 1 -25 4 -35 7 -15 5 -16 4 -3 -6z"/>
<path d="M9720 7580 c-13 -8 -12 -10 3 -10 9 0 17 5 17 10 0 12 -1 12 -20 0z"/>
<path d="M10135 7580 c-3 -6 1 -7 9 -4 18 7 21 14 7 14 -6 0 -13 -4 -16 -10z"/>
<path d="M9570 7569 c0 -5 5 -7 10 -4 6 3 10 8 10 11 0 2 -4 4 -10 4 -5 0 -10
-5 -10 -11z"/>
<path d="M8595 7559 c-4 -6 -5 -12 -2 -15 2 -3 7 2 10 11 7 17 1 20 -8 4z"/>
<path d="M7009 7540 c-13 -10 -19 -19 -13 -20 6 0 19 9 29 20 23 26 14 26 -16
0z"/>
<path d="M8621 7544 c0 -11 3 -14 6 -6 3 7 2 16 -1 19 -3 4 -6 -2 -5 -13z"/>
<path d="M10015 7540 c-3 -5 -1 -10 4 -10 6 0 11 5 11 10 0 6 -2 10 -4 10 -3
0 -8 -4 -11 -10z"/>
<path d="M10040 7525 c-25 -13 -40 -24 -35 -24 6 0 30 11 55 24 25 13 41 24
35 24 -5 0 -30 -11 -55 -24z"/>
<path d="M7363 7533 c3 -3 -3 -14 -13 -26 -22 -23 -21 -31 4 -21 9 3 13 10 10
15 -3 5 5 13 17 17 l23 9 -23 6 c-13 3 -21 3 -18 0z"/>
<path d="M9485 7530 c3 -5 8 -10 11 -10 2 0 4 5 4 10 0 6 -5 10 -11 10 -5 0
-7 -4 -4 -10z"/>
<path d="M7280 7508 c0 -11 32 -10 48 1 9 5 3 8 -17 7 -17 -1 -31 -4 -31 -8z"/>
<path d="M9426 7509 c-54 -13 -54 -16 3 -15 27 1 44 4 39 7 -6 4 -5 9 3 12 21
8 -1 6 -45 -4z"/>
<path d="M8620 7498 c0 -9 -6 -19 -12 -21 -10 -4 -10 -6 0 -6 14 -1 28 26 18
36 -3 4 -6 -1 -6 -9z"/>
<path d="M9345 7500 c-16 -7 -17 -9 -3 -9 9 -1 20 4 23 9 7 11 7 11 -20 0z"/>
<path d="M7016 7475 c10 -8 23 -15 28 -15 6 0 1 7 -10 15 -10 8 -23 15 -28 15
-6 0 -1 -7 10 -15z"/>
<path d="M9860 7471 c-8 -6 -18 -7 -24 -4 -5 3 -6 1 -2 -5 3 -5 1 -12 -6 -14
-8 -3 -7 -6 3 -10 9 -3 22 -2 30 3 12 7 12 9 0 9 -11 0 -9 4 5 15 21 16 17 20
-6 6z"/>
<path d="M7074 7455 c-18 -15 -18 -15 0 -8 13 4 17 3 12 -5 -11 -17 9 -15 24
3 11 13 10 14 -5 9 -13 -5 -16 -4 -11 4 10 16 4 15 -20 -3z"/>
<path d="M9248 7463 c6 -2 18 -2 25 0 6 3 1 5 -13 5 -14 0 -19 -2 -12 -5z"/>
<path d="M9798 7463 c7 -3 16 -2 19 1 4 3 -2 6 -13 5 -11 0 -14 -3 -6 -6z"/>
<path d="M8610 7444 c0 -8 5 -12 10 -9 6 4 8 11 5 16 -9 14 -15 11 -15 -7z"/>
<path d="M9198 7453 c6 -2 18 -2 25 0 6 3 1 5 -13 5 -14 0 -19 -2 -12 -5z"/>
<path d="M9760 7452 c0 -6 6 -13 13 -15 10 -4 10 -6 0 -6 -15 -1 -18 -21 -4
-21 16 0 20 28 5 40 -9 8 -14 9 -14 2z"/>
<path d="M7530 7440 c-13 -8 -13 -10 2 -10 9 0 20 5 23 10 8 13 -5 13 -25 0z"/>
<path d="M9125 7430 l-20 -9 20 0 c13 -1 16 -4 8 -9 -6 -4 6 -7 27 -7 38 0 34
14 -5 16 -17 1 -16 2 5 9 20 6 21 8 5 8 -11 0 -29 -3 -40 -8z"/>
<path d="M9228 7433 c7 -3 16 -2 19 1 4 3 -2 6 -13 5 -11 0 -14 -3 -6 -6z"/>
<path d="M7604 7414 c-10 -8 -13 -12 -6 -9 8 4 26 11 40 15 22 7 23 8 6 9 -11
1 -29 -6 -40 -15z"/>
<path d="M7675 7421 c-3 -5 0 -13 6 -17 7 -4 9 -3 5 4 -3 5 0 13 6 15 9 4 10
6 1 6 -6 1 -14 -3 -18 -8z"/>
<path d="M9048 7423 c6 -2 18 -2 25 0 6 3 1 5 -13 5 -14 0 -19 -2 -12 -5z"/>
<path d="M8626 7405 c-3 -8 -1 -17 5 -20 5 -4 6 -11 3 -17 -4 -7 -2 -8 5 -4 9
6 9 11 1 21 -8 10 -8 14 2 17 8 3 9 6 1 11 -6 4 -13 0 -17 -8z"/>
<path d="M8990 7410 c-8 -5 -10 -10 -5 -10 6 0 17 5 25 10 8 5 11 10 5 10 -5
0 -17 -5 -25 -10z"/>
<path d="M9258 7413 c7 -3 16 -2 19 1 4 3 -2 6 -13 5 -11 0 -14 -3 -6 -6z"/>
<path d="M7548 7403 c7 -3 16 -2 19 1 4 3 -2 6 -13 5 -11 0 -14 -3 -6 -6z"/>
<path d="M7179 7392 c11 -8 11 -10 0 -14 -10 -3 -9 -6 3 -10 11 -5 15 -2 14
10 -2 9 -9 18 -17 20 -12 3 -12 2 0 -6z"/>
<path d="M9704 7385 c11 -8 22 -12 25 -9 6 6 -19 24 -34 24 -5 -1 -1 -7 9 -15z"/>
<path d="M7858 7383 c6 -2 18 -2 25 0 6 3 1 5 -13 5 -14 0 -19 -2 -12 -5z"/>
<path d="M8838 7383 c7 -3 16 -2 19 1 4 3 -2 6 -13 5 -11 0 -14 -3 -6 -6z"/>
<path d="M9628 7383 c7 -3 16 -2 19 1 4 3 -2 6 -13 5 -11 0 -14 -3 -6 -6z"/>
<path d="M7900 7373 c-13 -3 -34 -12 -45 -20 -22 -16 -21 -16 46 3 14 4 19 2
15 -5 -5 -7 -1 -8 9 -4 12 4 13 8 4 13 -8 6 -6 9 7 13 24 6 -3 6 -36 0z"/>
<path d="M9680 7370 c8 -5 20 -10 25 -10 6 0 3 5 -5 10 -8 5 -19 10 -25 10 -5
0 -3 -5 5 -10z"/>
<path d="M7215 7360 c3 -5 8 -10 11 -10 2 0 4 5 4 10 0 6 -5 10 -11 10 -5 0
-7 -4 -4 -10z"/>
<path d="M7980 7359 c20 -8 22 -12 10 -19 -8 -5 -10 -10 -5 -10 6 0 17 5 25
10 11 7 11 10 2 10 -7 0 -10 5 -7 10 4 6 -6 10 -22 9 l-28 0 25 -10z"/>
<path d="M8692 7356 c7 -7 19 -11 27 -8 11 4 10 7 -5 13 -29 12 -36 10 -22 -5z"/>
<path d="M8775 7354 l-30 -14 45 4 c25 2 56 9 70 15 23 9 22 10 -15 10 -22 -1
-53 -7 -70 -15z"/>
<path d="M8043 7353 c9 -2 23 -2 30 0 6 3 -1 5 -18 5 -16 0 -22 -2 -12 -5z"/>
<path d="M8090 7356 c0 -2 9 -6 20 -9 11 -3 18 -1 14 4 -5 9 -34 13 -34 5z"/>
<path d="M8580 7342 c6 -13 14 -21 18 -18 3 4 -2 14 -12 24 -18 16 -18 16 -6
-6z"/>
<path d="M9630 7350 c-13 -9 -13 -10 0 -9 8 0 24 4 35 9 l20 9 -20 0 c-11 0
-27 -4 -35 -9z"/>
<path d="M7240 7345 c0 -2 10 -10 23 -16 20 -11 21 -11 8 4 -13 16 -31 23 -31
12z"/>
<path d="M7942 7343 c-13 -5 -7 -23 9 -23 6 0 8 4 5 9 -4 5 0 12 6 14 7 3 9 5
3 5 -5 0 -16 -2 -23 -5z"/>
<path d="M8540 7343 c8 -3 19 -11 23 -17 6 -7 7 -6 4 4 -2 8 -12 16 -23 17
-13 2 -15 1 -4 -4z"/>
<path d="M8616 7335 c-3 -8 -1 -15 4 -15 6 0 10 7 10 15 0 8 -2 15 -4 15 -2 0
-6 -7 -10 -15z"/>
<path d="M8640 7341 c0 -6 4 -13 10 -16 6 -3 7 1 4 9 -7 18 -14 21 -14 7z"/>
<path d="M8850 7340 c-8 -5 -10 -10 -5 -10 6 0 17 5 25 10 8 5 11 10 5 10 -5
0 -17 -5 -25 -10z"/>
<path d="M8068 7333 c7 -3 16 -2 19 1 4 3 -2 6 -13 5 -11 0 -14 -3 -6 -6z"/>
<path d="M8218 7333 c7 -3 16 -2 19 1 4 3 -2 6 -13 5 -11 0 -14 -3 -6 -6z"/>
<path d="M8748 7323 c12 -2 32 -2 45 0 12 2 2 4 -23 4 -25 0 -35 -2 -22 -4z"/>
<path d="M7355 7305 c-16 -8 -24 -14 -17 -15 7 0 22 5 34 11 25 14 33 6 14
-14 -14 -14 -12 -16 16 -26 38 -13 35 -14 35 2 0 9 -10 12 -26 10 -23 -3 -24
-2 -6 6 11 5 14 10 8 10 -7 1 -12 6 -10 12 3 17 -15 19 -48 4z"/>
<path d="M9517 7309 c7 -7 15 -10 18 -7 3 3 -2 9 -12 12 -14 6 -15 5 -6 -5z"/>
<path d="M9388 7303 c7 -3 16 -2 19 1 4 3 -2 6 -13 5 -11 0 -14 -3 -6 -6z"/>
<path d="M9445 7303 c3 -3 0 -11 -5 -18 -7 -8 -5 -12 4 -12 14 0 16 22 3 32
-4 3 -5 2 -2 -2z"/>
<path d="M9487 7296 c-4 -10 -1 -13 8 -9 8 3 12 9 9 14 -7 12 -11 11 -17 -5z"/>
<path d="M9386 7281 c-4 -5 3 -7 14 -4 23 6 26 13 6 13 -8 0 -17 -4 -20 -9z"/>
<path d="M7595 7230 c-3 -6 1 -7 9 -4 18 7 21 14 7 14 -6 0 -13 -4 -16 -10z"/>
<path d="M9098 7233 c7 -3 16 -2 19 1 4 3 -2 6 -13 5 -11 0 -14 -3 -6 -6z"/>
<path d="M7615 7216 c-10 -7 -28 -11 -39 -8 -12 3 -19 2 -16 -1 3 -3 21 -8 40
-11 19 -3 28 -2 20 1 -10 5 -2 11 25 19 32 10 35 13 14 13 -14 1 -34 -5 -44
-13z"/>
<path d="M7720 7210 c0 -5 5 -10 10 -10 6 0 10 5 10 10 0 6 -4 10 -10 10 -5 0
-10 -4 -10 -10z"/>
<path d="M9083 7213 c9 -2 23 -2 30 0 6 3 -1 5 -18 5 -16 0 -22 -2 -12 -5z"/>
<path d="M9190 7210 c19 -13 30 -13 30 0 0 6 -10 10 -22 10 -19 0 -20 -2 -8
-10z"/>
<path d="M7654 7203 c11 -11 48 -14 41 -3 -3 5 -16 10 -27 10 -12 0 -18 -3
-14 -7z"/>
<path d="M9050 7194 c37 -8 88 -9 84 -2 -3 4 -26 7 -52 7 -26 -1 -40 -3 -32
-5z"/>
<path d="M9040 7171 c0 -5 9 -7 20 -4 11 3 20 7 20 9 0 2 -9 4 -20 4 -11 0
-20 -4 -20 -9z"/>
<path d="M7788 7148 c5 -5 16 -8 23 -6 8 3 3 7 -10 11 -17 4 -21 3 -13 -5z"/>
<path d="M7900 7150 c-21 -7 -21 -8 -5 -9 11 0 27 4 35 9 18 11 5 11 -30 0z"/>
<path d="M8152 7151 c-11 -7 -11 -9 0 -14 9 -3 15 1 15 9 0 8 -1 14 -1 14 -1
0 -7 -4 -14 -9z"/>
<path d="M8680 7150 l25 -8 -24 -1 c-13 -1 -22 -4 -18 -7 3 -4 18 -3 34 0 21
6 24 9 12 17 -7 5 -23 8 -34 8 -16 -1 -16 -2 5 -9z"/>
<path d="M7983 7143 c15 -2 25 -8 23 -12 -3 -4 9 -5 27 -2 l32 5 -30 7 c-16 4
-41 6 -55 6 -23 0 -23 0 3 -4z"/>
<path d="M8290 7146 c0 -2 7 -6 15 -10 8 -3 15 -1 15 4 0 6 -7 10 -15 10 -8 0
-15 -2 -15 -4z"/>
<path d="M8425 7140 c-29 -7 -28 -8 10 -8 22 0 49 3 60 8 17 7 15 9 -10 8 -16
0 -43 -4 -60 -8z"/>
<path d="M8778 7143 c7 -3 16 -2 19 1 4 3 -2 6 -13 5 -11 0 -14 -3 -6 -6z"/>
<path d="M8870 7140 c-9 -6 -10 -10 -3 -10 6 0 15 5 18 10 8 12 4 12 -15 0z"/>
<path d="M8088 7133 c6 -2 18 -2 25 0 6 3 1 5 -13 5 -14 0 -19 -2 -12 -5z"/>
<path d="M7928 7123 c7 -3 16 -2 19 1 4 3 -2 6 -13 5 -11 0 -14 -3 -6 -6z"/>
<path d="M8540 7121 c0 -12 39 -25 47 -17 4 3 -2 6 -13 7 -15 1 -13 3 6 9 24
8 23 8 -7 9 -18 1 -33 -3 -33 -8z"/>
<path d="M8631 7121 c-9 -6 -3 -10 18 -13 36 -5 38 -3 13 11 -10 5 -24 6 -31
2z"/>
<path d="M8753 7123 c9 -2 25 -2 35 0 9 3 1 5 -18 5 -19 0 -27 -2 -17 -5z"/>
<path d="M8035 7110 c3 -5 10 -10 16 -10 5 0 9 5 9 10 0 6 -7 10 -16 10 -8 0
-12 -4 -9 -10z"/>
<path d="M8093 7113 c9 -2 23 -2 30 0 6 3 -1 5 -18 5 -16 0 -22 -2 -12 -5z"/>
<path d="M8448 7113 c18 -2 45 -2 60 0 15 2 0 4 -33 4 -33 0 -45 -2 -27 -4z"/>
<path d="M8220 7100 c-21 -7 -21 -8 -5 -9 11 0 27 4 35 9 18 11 5 11 -30 0z"/>
</g>
</svg>
