<?xml version="1.0"?>
<svg version="1.1" xmlns="http://www.w3.org/2000/svg" width="225" height="200" style=""><path fill="#a37500" d="M16.072265625,93.91796875q0-0.826171875,0.2021484375-1.2041015625t0.580078125-0.52734375t0.9140625-0.1142578125t1.2568359375,0.03515625q1.828125,0,3.69140625,0.5625t3.357421875,1.6435546875t2.408203125,2.6630859375t0.9140625,3.638671875q0,1.37109375-0.3955078125,2.5927734375t-1.1162109375,2.28515625t-1.6875,1.9423828125t-2.126953125,1.529296875q0.474609375,0.474609375,1.23046875,1.6787109375t1.494140625,2.56640625t1.3095703125,2.6455078125t0.6767578125,1.93359375l-0.2109375,0.31640625q-0.474609375,0.28125-1.142578125,0.298828125q-0.31640625,0-0.826171875-0.0791015625t-0.650390625-0.4658203125q-0.720703125-2.021484375-1.5732421875-4.166015625t-2.1005859375-3.8671875l0-0.03515625q-0.439453125,0.17578125-0.8701171875,0.3427734375t-0.8701171875,0.3076171875q0.140625,1.951171875,0.2900390625,3.8408203125t0.1494140625,3.8232421875q0,0.24609375-0.2373046875,0.3955078125t-0.5361328125,0.2373046875t-0.6064453125,0.123046875t-0.5009765625,0.03515625q-0.17578125,0-0.5009765625-0.03515625t-0.6240234375-0.123046875t-0.5185546875-0.2548828125t-0.2197265625-0.4482421875q0-1.951171875-0.087890625-3.8935546875t-0.193359375-3.8759765625q-0.544921875-0.3515625-0.544921875-0.9140625q0-0.439453125,0.421875-0.59765625q-0.2109375-3.708984375-0.4833984375-7.400390625t-0.2724609375-7.435546875z M19.25390625,93.373046875q0.24609375,3.814453125,0.5537109375,7.541015625t0.5888671875,7.541015625q1.23046875-0.3515625,2.2939453125-1.2216796875t1.8369140625-1.9599609375t1.2041015625-2.373046875t0.4306640625-2.548828125q0-1.40625-0.5625-2.6982421875t-1.494140625-2.2587890625q-0.94921875-0.966796875-2.1796875-1.51171875q-1.08984375-0.474609375-2.28515625-0.474609375l-0.31640625,0z M32.64263671875,111.77734375q0-1.001953125,0.2548828125-2.0654296875t0.80859375-1.916015625t1.3974609375-1.388671875t2.0390625-0.5361328125q0.896484375,0,1.8896484375,0.3076171875t1.8193359375,0.87890625t1.3447265625,1.3974609375t0.5185546875,1.845703125q0,1.23046875-0.4482421875,2.337890625t-1.2568359375,1.9775390625t-1.8896484375,1.37109375t-2.3466796875,0.5009765625q-1.037109375,0-1.810546875-0.3779296875t-1.2919921875-1.0107421875t-0.7734375-1.494140625t-0.2548828125-1.828125z M35.22662109375,111.7421875q0,0.31640625,0.0966796875,0.931640625t0.2900390625,1.2041015625t0.5009765625,1.01953125t0.7470703125,0.3955078125q0.931640625-0.10546875,1.5380859375-0.6064453125t0.984375-1.2216796875t0.52734375-1.564453125t0.1494140625-1.599609375q0-0.966796875-0.3779296875-1.6171875t-1.2392578125-1.0546875q0,0.03515625,0.03515625,0.03515625t0.03515625-0.03515625l-0.439453125-0.10546875q-0.17578125-0.0703125-0.4306640625-0.158203125t-0.5009765625-0.38671875q-0.685546875,0.24609375-1.0634765625,0.6328125t-0.5712890625,0.9404296875t-0.2373046875,1.3271484375t-0.0439453125,1.86328125z M45.6094921875,111.77734375q0-1.001953125,0.2548828125-2.0654296875t0.80859375-1.916015625t1.3974609375-1.388671875t2.0390625-0.5361328125q0.896484375,0,1.8896484375,0.3076171875t1.8193359375,0.87890625t1.3447265625,1.3974609375t0.5185546875,1.845703125q0,1.23046875-0.4482421875,2.337890625t-1.2568359375,1.9775390625t-1.8896484375,1.37109375t-2.3466796875,0.5009765625q-1.037109375,0-1.810546875-0.3779296875t-1.2919921875-1.0107421875t-0.7734375-1.494140625t-0.2548828125-1.828125z M48.1934765625,111.7421875q0,0.31640625,0.0966796875,0.931640625t0.2900390625,1.2041015625t0.5009765625,1.01953125t0.7470703125,0.3955078125q0.931640625-0.10546875,1.5380859375-0.6064453125t0.984375-1.2216796875t0.52734375-1.564453125t0.1494140625-1.599609375q0-0.966796875-0.3779296875-1.6171875t-1.2392578125-1.0546875q0,0.03515625,0.03515625,0.03515625t0.03515625-0.03515625l-0.439453125-0.10546875q-0.17578125-0.0703125-0.4306640625-0.158203125t-0.5009765625-0.38671875q-0.685546875,0.24609375-1.0634765625,0.6328125t-0.5712890625,0.9404296875t-0.2373046875,1.3271484375t-0.0439453125,1.86328125z M58.20720703125,100.28125q0-0.24609375,0.52734375-0.421875t1.1953125-0.2900390625t1.2919921875-0.1669921875t0.8525390625-0.087890625q0-0.474609375,0.03515625-0.9580078125t0.193359375-0.861328125t0.5009765625-0.6064453125t0.9580078125-0.228515625q0.509765625,0,0.7734375,0.123046875t0.5625,0.509765625q0.0703125,0.2109375,0.0703125,0.404296875l0,0.5888671875t-0.03515625,0.6064453125q0.650390625-0.0703125,1.2919921875-0.1669921875t1.2919921875-0.0966796875q0.474609375,0,0.650390625,0.017578125t0.3515625,0.421875q0.140625,0.404296875-0.3427734375,0.615234375t-1.16015625,0.31640625t-1.3447265625,0.158203125t-0.80859375,0.052734375q-0.2109375,3.0234375-0.4306640625,5.994140625t-0.2197265625,6.029296875q0,1.37109375,0.087890625,2.830078125t0.4921875,2.759765625q0.10546875,0.404296875,0.3515625,0.755859375t0.24609375,0.755859375q0,0.24609375-0.193359375,0.38671875t-0.4658203125,0.2373046875t-0.544921875,0.1142578125t-0.4482421875,0.017578125q-1.107421875,0-1.6875-0.826171875t-0.8349609375-1.9775390625t-0.2724609375-2.3642578125t-0.017578125-1.96875q0-1.546875,0.0615234375-3.1640625t0.1494140625-3.19921875t0.24609375-3.09375t0.369140625-2.8125q-0.615234375,0.0703125-1.2041015625,0.158203125t-1.2041015625,0.087890625q-0.140625,0-0.3779296875-0.017578125t-0.4482421875-0.087890625t-0.3603515625-0.193359375t-0.1494140625-0.3515625z"/><path fill="#8b9556" d="M93.74840625,105.516c0,3.36-1.148,5.88-3.052,7.504c-1.736,1.456-4.172,2.1-6.944,2.1l-5.348,0c-0.56,0-0.812-0.14-0.812-0.784l0-17.752c0-0.588,0.168-0.84,0.868-0.84l4.032,0c3.22,0,5.404,0.364,7.252,1.428c2.52,1.456,4.004,4.2,4.004,8.344z M89.88440625,105.488c0-2.548-0.756-4.48-2.184-5.544c-1.148-0.84-2.632-1.148-4.424-1.148l-2.044,0l0,13.3l2.156,0c1.932,0,3.556-0.308,4.732-1.484c1.12-1.12,1.764-2.8,1.764-5.124z M110.64640625,101.932c0,0.084-0.028,0.168-0.056,0.28l-5.516,14.504c-1.26,3.332-2.828,4.508-6.188,4.508c-0.532,0-1.008-0.028-1.484-0.14c-0.308-0.056-0.42-0.224-0.42-0.476c0-0.084,0.028-0.14,0.028-0.252l0.196-1.456c0.056-0.364,0.196-0.504,0.504-0.504l0.168,0c0.336,0.028,0.672,0.084,0.952,0.084c1.736,0,2.464-0.616,3.024-1.932l0.532-1.26l-5.096-13.132c-0.028-0.084-0.056-0.14-0.056-0.224c0-0.224,0.168-0.392,0.42-0.392l2.688,0c0.392,0,0.588,0.196,0.7,0.476l3.108,9.268l2.94-9.1c0.14-0.448,0.364-0.644,0.84-0.644l2.268,0c0.28,0,0.448,0.168,0.448,0.392z M126.62040625,114.392c0,0.476-0.168,0.728-0.672,0.728l-2.016,0c-0.504,0-0.672-0.252-0.672-0.728l0-7.616c0-1.54-0.42-2.632-2.128-2.632c-1.092,0-2.436,0.588-3.304,1.344l0,8.932c0,0.476-0.196,0.7-0.672,0.7l-2.044,0c-0.42,0-0.672-0.224-0.672-0.672l0-12.208c0-0.448,0.196-0.7,0.7-0.7l1.82,0c0.392,0,0.644,0.112,0.672,0.532l0.028,0.728c1.288-1.036,2.912-1.624,4.536-1.624c3.136,0,4.424,1.96,4.424,5.012l0,8.204z M145.00240625,114.588c0,0.336-0.224,0.532-0.56,0.532l-1.344,0c-1.456,0-2.1-0.7-2.296-1.652l-0.056,0c-0.7,1.036-2.52,1.988-4.06,1.988c-3.948,0-5.74-3.248-5.74-6.888c0-4.844,2.912-7.392,6.048-7.392c1.484,0,2.884,0.672,3.584,1.624l0.056-0.756c0.028-0.308,0.252-0.504,0.588-0.504l1.96,0c0.364,0,0.588,0.196,0.588,0.616l0,9.716c0,0.392,0.056,0.672,0.168,0.812c0.084,0.084,0.196,0.112,0.336,0.112l0.224,0c0.336,0,0.504,0.112,0.504,0.476l0,1.316z M140.38240625,110.78l0-5.404c-0.56-0.812-1.708-1.428-2.772-1.428c-1.708,0-3.164,1.456-3.164,4.396c0,2.352,0.896,4.34,2.968,4.34c1.372,0,2.548-1.036,2.968-1.904z M169.37640625,114.42c0,0.504-0.196,0.7-0.672,0.7l-1.96,0c-0.504,0-0.728-0.196-0.728-0.7l0-7.672c0-1.512-0.392-2.66-2.1-2.66c-1.064,0-2.296,0.56-3.164,1.26c0.056,0.252,0.112,4.004,0.112,4.396l0,4.676c0,0.504-0.196,0.7-0.672,0.7l-1.848,0c-0.504,0-0.728-0.196-0.728-0.7l0-7.672c0-1.484-0.308-2.66-2.016-2.66c-1.092,0-2.212,0.616-3.108,1.4l0,8.932c0,0.504-0.224,0.7-0.7,0.7l-1.96,0c-0.504,0-0.728-0.196-0.728-0.7l0-12.236c0-0.448,0.252-0.644,0.672-0.644l1.82,0c0.42,0,0.672,0.14,0.7,0.532l0.028,0.7c1.148-1.008,2.66-1.596,4.116-1.596c1.708,0,2.912,0.756,3.556,1.82c1.26-1.204,3.08-1.82,4.788-1.82c2.044,0,3.332,1.008,3.92,2.1c0.532,1.036,0.672,2.268,0.672,4.06l0,7.084z M178.35040625,97.984c0,1.092-0.952,1.764-1.876,1.764s-1.904-0.616-1.904-1.736s0.924-1.792,1.904-1.792c0.952,0,1.876,0.644,1.876,1.764z M178.18240625,114.42c0,0.504-0.224,0.7-0.7,0.7l-1.96,0c-0.504,0-0.728-0.196-0.728-0.7l0-12.236c0-0.476,0.28-0.644,0.728-0.644l1.96,0c0.448,0,0.7,0.14,0.7,0.644l0,12.236z M193.76440625,114.168c0,0.224-0.14,0.336-0.392,0.448c-1.344,0.616-2.576,0.84-4.06,0.84c-4.312,0-6.692-2.688-6.692-7c0-4.34,2.604-7.28,6.944-7.28c1.26,0,2.576,0.252,3.752,0.784c0.224,0.112,0.336,0.168,0.336,0.392c0,0.084-0.028,0.252-0.056,0.336l-0.364,1.484c-0.056,0.252-0.168,0.392-0.336,0.392c-0.084,0-0.196-0.056-0.308-0.112c-0.812-0.336-1.708-0.616-2.688-0.616c-2.408,0-3.78,1.708-3.78,4.452c0,2.688,1.232,4.536,3.64,4.536c1.204,0,1.96-0.224,2.94-0.616c0.084-0.028,0.196-0.084,0.28-0.084c0.168,0,0.28,0.14,0.336,0.336l0.364,1.232c0.056,0.196,0.084,0.364,0.084,0.476z M206.77040625,111.116c0,2.94-2.548,4.34-5.404,4.34c-1.456,0-3.052-0.42-4.312-0.98c-0.252-0.112-0.336-0.28-0.336-0.448c0-0.084,0.028-0.168,0.056-0.252l0.448-1.428c0.084-0.28,0.224-0.392,0.392-0.392c0.084,0,0.168,0,0.308,0.056c1.232,0.504,2.548,0.868,3.528,0.868c1.232,0,2.072-0.56,2.072-1.484c0-0.784-0.532-1.204-1.68-1.652l-2.212-0.84c-1.596-0.588-2.884-1.82-2.884-3.724c0-2.744,2.576-4.004,5.068-4.004c1.344,0,2.66,0.224,4.06,0.84c0.224,0.112,0.336,0.224,0.336,0.392c0,0.084-0.028,0.168-0.056,0.28l-0.476,1.512c-0.056,0.196-0.196,0.308-0.392,0.308c-0.084,0-0.196-0.028-0.28-0.056c-0.924-0.364-2.128-0.672-3.024-0.672c-1.176,0-1.764,0.644-1.764,1.288c0,0.616,0.308,1.008,1.372,1.428l2.52,1.036c1.484,0.616,2.66,1.764,2.66,3.584z"/></svg>
