<?xml version="1.0" encoding="utf-8"?>
<!-- Generator: Adobe Illustrator 24.3.0, SVG Export Plug-In . SVG Version: 6.00 Build 0)  -->
<svg version="1.1" id="Layer_2" xmlns="http://www.w3.org/2000/svg" xmlns:xlink="http://www.w3.org/1999/xlink" x="0px" y="0px"
	 viewBox="0 0 2000 1452.4" style="enable-background:new 0 0 2000 1452.4;" xml:space="preserve">
<style type="text/css">
	.st0{fill:#D9FFE0;}
	.st1{fill:#683214;}
	.st2{fill:#12AF33;}
	.st3{fill:#FFFFFF;}
	.st4{fill:url(#SVGID_1_);}
</style>
<rect x="6422.01" y="-5135.36" class="st0" width="726.2" height="726.2"/>
<g>
	<g>
		<path class="st1" d="M5426-4889.97h-19.9l-25.86-29.66h-16.1v29.66h-16.73v-88.84c14.07,0,28.14,0.13,42.2,0.13
			c20.91,0.13,31.94,14.07,31.94,29.4c0,12.17-5.58,24.46-22.43,27.88l26.87,30.29V-4889.97z M5364.16-4963.1v28.39h25.47
			c10.65,0,15.21-7.1,15.21-14.19c0-7.1-4.69-14.2-15.21-14.2H5364.16z"/>
		<path class="st1" d="M5493.81-4921.15c0,18-12.29,32.57-32.57,32.57c-20.28,0-32.45-14.57-32.45-32.57
			c0-17.87,12.42-32.57,32.32-32.57S5493.81-4939.02,5493.81-4921.15z M5444.25-4921.15c0,9.51,5.7,18.38,16.98,18.38
			c11.28,0,16.98-8.87,16.98-18.38c0-9.38-6.59-18.5-16.98-18.5C5450.08-4939.65,5444.25-4930.53,5444.25-4921.15z"/>
		<path class="st1" d="M5566.56-4921.15c0,18-12.29,32.57-32.57,32.57s-32.45-14.57-32.45-32.57c0-17.87,12.42-32.57,32.32-32.57
			S5566.56-4939.02,5566.56-4921.15z M5517-4921.15c0,9.51,5.7,18.38,16.98,18.38s16.98-8.87,16.98-18.38
			c0-9.38-6.59-18.5-16.98-18.5C5522.83-4939.65,5517-4930.53,5517-4921.15z"/>
		<path class="st1" d="M5597.73-4970.07v17.74h17.24v13.31h-17.36v27c0,5.96,3.3,8.87,8.11,8.87c2.41,0,5.2-0.76,7.48-1.9
			l4.31,13.18c-4.44,1.77-8.11,2.54-12.8,2.66c-13.56,0.51-22.43-7.22-22.43-22.81v-27h-11.66v-13.31h11.66v-16.1L5597.73-4970.07z"
			/>
		<path class="st1" d="M5731.32-4935.09c0.38,22.43-13.31,45.12-44.36,45.12c-10.9,0-23.95,0-34.85,0v-88.72c10.9,0,23.95,0,34.85,0
			C5717.37-4978.69,5730.94-4957.02,5731.32-4935.09z M5668.71-4906.07h18.25c20.15,0,28.14-14.7,27.76-29.15
			c-0.38-13.81-8.49-27.63-27.76-27.63h-18.25V-4906.07z"/>
		<path class="st1" d="M5806.72-4952.45l-38.15,88.59h-16.98l11.66-27.12l-24.97-61.47h18l9.51,27l5.96,17.62l6.46-17.24
			l11.41-27.38H5806.72z"/>
		<path class="st1" d="M5860.84-4889.97v-32.7c0-9.51-5.2-16.73-15.08-16.73c-9.51,0-15.97,7.98-15.97,17.49v31.94h-15.33v-62.61
			h13.81l1.01,8.49c6.34-6.21,12.67-9.38,20.53-9.38c14.7,0,26.49,11.03,26.49,30.67v32.83H5860.84z"/>
		<path class="st1" d="M5939.16-4952.45h14.83v62.48h-14.58l-0.76-9.12c-3.55,7.35-13.31,10.9-20.28,11.03
			c-18.5,0.13-32.19-11.28-32.19-33.21c0-21.55,14.32-32.83,32.57-32.7c8.36,0,16.35,3.93,19.9,10.14L5939.16-4952.45z
			 M5901.65-4921.27c0,11.91,8.24,19.01,18.5,19.01c24.33,0,24.33-37.9,0-37.9C5909.89-4940.16,5901.65-4933.19,5901.65-4921.27z"/>
		<path class="st1" d="M6008.62-4889.97v-33.46c0-8.24-4.31-15.72-12.8-15.72c-8.37,0-13.31,7.48-13.31,15.72v33.46h-15.46v-62.61
			h14.32l1.14,7.61c3.29-6.34,10.52-8.62,16.48-8.62c7.48,0,14.96,3.04,18.5,11.66c5.58-8.87,12.8-11.41,20.91-11.41
			c17.74,0,26.49,10.9,26.49,29.66v33.71h-15.46v-33.71c0-8.24-3.42-15.21-11.79-15.21c-8.37,0-13.56,7.22-13.56,15.46v33.46
			H6008.62z"/>
		<path class="st1" d="M6097.46-4970.07c0,12.04-18.25,12.04-18.25,0C6079.21-4982.11,6097.46-4982.11,6097.46-4970.07z
			 M6080.6-4952.71v62.74h15.46v-62.74H6080.6z"/>
		<path class="st1" d="M6163.62-4897.95c-7.22,7.1-14.83,9.89-24.08,9.89c-18.12,0-33.21-10.9-33.21-33.08
			c0-22.18,15.08-33.08,33.21-33.08c8.87,0,15.72,2.53,22.56,9.25l-9.76,10.27c-3.68-3.29-8.24-4.94-12.55-4.94
			c-10.39,0-18,7.6-18,18.5c0,11.91,8.11,18.25,17.74,18.25c4.94,0,9.89-1.39,13.69-5.2L6163.62-4897.95z"/>
		<path class="st1" d="M6211.27-4935.85c-4.44-4.18-9.51-5.58-15.46-5.58c-7.35,0-11.41,2.28-11.41,6.21
			c0,4.06,3.68,6.34,11.66,6.84c11.79,0.76,26.74,3.42,26.74,20.03c0,11.03-9,20.53-26.87,20.53c-9.89,0-19.77-1.65-28.9-11.15
			l7.6-11.03c4.44,4.94,14.58,8.62,21.55,8.74c5.83,0.13,11.28-2.92,11.28-7.48c0-4.31-3.55-6.08-12.42-6.59
			c-11.79-0.89-25.85-5.2-25.85-19.39c0-14.45,14.96-19.52,26.36-19.52c9.76,0,17.11,1.9,24.33,8.24L6211.27-4935.85z"/>
	</g>
	<g>
		<path class="st1" d="M5732.49-5129.73c0,0,30.32,10.39,37.28,34.95c6.37,0.43,12.74,0.65,19.13,0.65c1.74,0,3.47-0.02,5.21-0.05
			C5791.22-5114.76,5777.85-5136.25,5732.49-5129.73z"/>
		<path class="st1" d="M5669.21-5245.3c-0.31,2.38-0.57,4.82-0.79,7.34c-5.12,60.31,75.94,70.56,112,98.91
			c18.55,14.58,25.29,30.31,25.28,44.42c12.04-0.72,23.93-2.21,35.59-4.45c1.92-12.5,0.16-24.63-4.5-34.91
			c-13.31-29.39-61.99-52.34-89.52-65.66c-27.55-13.31-53.12-28.89-56.65-59.08c-0.13-1.08-0.23-2.17-0.29-3.25
			c-0.21-3.44-0.13-6.86,0.18-10.2c2.28-24.87,17.14-45.99,17.14-45.99s-15.87,9.25-27.57,34.27c-0.16,0.32-0.3,0.64-0.45,0.97
			c-0.84,1.82-1.64,3.73-2.42,5.73c-0.42,1.07-0.83,2.16-1.23,3.28c1.44-0.07,8.43-0.18,8.56-0.5c0,0.01-6.83,18.01-6.83,18.01
			c-2.26,0.22-4.52,0.49-6.77,0.84C5670.26-5252.29,5669.68-5248.88,5669.21-5245.3C5669.22-5245.3,5669.22-5245.3,5669.21-5245.3z"
			/>
		<path class="st2" d="M5793.63-5449.77c9.23,28.97-7.65,53.7-27.25,77.19c-19.61,23.49-54.48,64.46-54.49,96.72
			c-0.01,9.77,2.58,19.9,7.78,29.39c0.33,0.61,0.69,1.21,1.04,1.81c8.07,14.59,21.86,25.39,36.61,33.27
			c15.79,8.44,33.09,12.97,48.88,21.25c33.1,17.38,63.35,52.68,53.11,92.97c0.47-1.86,1.71-3.76,2.45-5.54
			c0.8-1.92,1.55-3.85,2.26-5.81c1.39-3.84,2.6-7.74,3.61-11.69c6.14-24.05,8.08-52.74-5.69-75.56c-1.66-2.75-3.46-5.3-5.39-7.71
			h-40.29v-30.2c-13.74-8.63-26.17-19.3-27.48-36.9c-0.97-13.07,4.88-25.7,12.54-35.95c2.22-2.97,4.61-5.91,7.32-8.46
			c-79.75,23.12-25.88,86.78-25.88,86.78c-21.49-8.56-42.77-34.81-21.61-75.5c21.16-40.7,90.78-83.45,61.25-136.29
			c-29.52-52.85-68.79-56.89-68.79-56.89S5784.4-5478.74,5793.63-5449.77z"/>
		<path class="st2" d="M5625.79-5169.16c-1.48-3.45-2.55-7.04-3.44-10.67c-0.98-3.62-1.47-7.35-1.92-11.09
			c-0.75-6.98-0.56-14.07,0.08-21.32c-0.92,1.64-1.75,3.38-2.5,5.22c-1.67,5.25-2.6,10.73-2.7,16.27
			c-0.2,6.14,0.69,12.31,2.46,18.29c2.59,5.7,6.73,11.48,12.1,16.88c2.05,2.06,4.33,4.1,6.77,6.07c1.48,1.19,3.01,2.34,4.56,3.46
			c-1.22-1.24-2.41-2.5-3.53-3.8C5632.59-5155.72,5628.62-5162.22,5625.79-5169.16z"/>
		<path class="st2" d="M5934.83-5086.8c-0.46-0.96-1.13-1.86-1.98-2.69c-1.34-1.28-2.93-2.12-4.65-2.6
			c-0.41-0.12-0.82-0.19-1.21-0.26c-0.33-0.07-0.69-0.05-1.02-0.07c-0.75,0.38-1.51,0.73-2.26,1.1c0.75-0.37,1.51-0.73,2.26-1.1
			c-3-0.24-6.08,0.57-8.41,2.63c-0.76,0.67-1.34,1.44-1.84,2.24c1.54-0.7,3.08-1.42,4.61-2.14c-1.53,0.72-3.07,1.44-4.6,2.15
			c-0.19,0.26-0.38,0.54-0.51,0.82c-0.19,0.35-0.33,0.74-0.47,1.11c-0.46,1.37-0.59,2.8-0.4,4.22c-5.77,2.31-11.6,4.46-17.48,6.43
			c-16.51,5.59-33.45,9.83-50.62,12.68c-8.23,1.38-16.51,2.46-24.82,3.19c-1.35,0.12-2.7,0.23-4.05,0.32
			c-1.8,0.12-3.62,0.16-5.45,0.26c-5.37,0.29-10.74,0.42-16.15,0.42h-2.6c-5.19-0.05-10.38-0.21-15.58-0.52
			c-0.14-0.01-0.28-0.02-0.42-0.03c-1.63-0.12-3.29-0.26-4.93-0.36c-2.06-0.17-4.13-0.29-6.22-0.5c-1.31-0.12-2.63-0.28-3.94-0.42
			c-12.98-1.34-25.79-3.46-38.49-6.29c-0.07,0-0.13-0.03-0.2-0.05c-2.63-0.59-5.25-1.2-7.9-1.86
			c-29.04-6.94-57.05-18.06-81.29-34.13c-3.35-2.24-6.63-4.56-9.85-6.99c-7.17-5.34-13.93-11.12-19.87-17.51
			c-0.21-0.21-0.38-0.42-0.59-0.63c-4.75-5.19-8.94-10.75-12.29-16.83c-7.84-13.72-11.86-29.3-12.52-45.14l-1.18-0.02h-1.44
			l-0.31-0.02c-0.06,0.44-0.08,0.9-0.11,1.34c-1,15.77,2.01,31.94,9.08,46.7c3.59,7.6,8.53,14.76,14.19,21.21
			c5.66,6.46,12.03,12.31,18.76,17.68c13.35,10.98,28.51,19.94,44.4,27.44c16,7.35,32.86,12.99,50.03,17.23
			c14.92,3.58,30.26,6.37,45.69,7.93c-3.46,4.23-8.32,9.19-15.05,14.35c-18.71,14.35-9.83,48.24-9.83,48.24s2.02-23.08,54.41-47.96
			c8.71-4.13,16.25-8.81,22.73-13.87c2.62-0.2,5.23-0.43,7.85-0.72c5.48-0.59,10.9-1.37,16.32-2.26
			c14.2-2.31,28.13-5.69,41.65-10.07c5.51-1.77,10.93-3.73,16.27-5.84h0.03c7.79-3.09,15.38-6.53,22.78-10.3
			c0.11,0.21,0.24,0.39,0.36,0.61c0.41,0.68,0.9,1.32,1.52,1.91c4.11,3.94,10.98,4.07,15.27,0.31c3.42-3.02,4.22-7.59,2.31-11.31
			V-5086.8z M5928.98-5078.86c-2.26,1.98-5.86,1.91-8.03-0.17c-0.26-0.24-0.46-0.47-0.67-0.73c-1.47-2.08-1.18-4.88,0.83-6.62
			c2.26-2.01,5.86-1.94,8.05,0.14c0.51,0.52,0.92,1.09,1.18,1.7c0,0,0,0,0,0.02C5931.13-5082.61,5930.67-5080.37,5928.98-5078.86z"
			/>
		<g>
			<path class="st1" d="M5986.87-5155.91c-8.18-7.83-21.8-8.11-30.34-0.59c-6.2,5.47-8.02,13.55-5.42,20.58
				c-4.83,3.51-9.74,6.84-14.76,9.99c-26.59,16.76-55.93,28.44-86.38,35.08c-13.66,2.98-27.54,4.95-41.51,5.9
				c-0.03,0-0.06,0-0.09,0.01c-4.17,0.28-8.35,0.46-12.53,0.56c-22.94,0.55-45.98-1.62-68.47-6.51c-23.54-5.13-46.84-12.73-68-24.38
				c-19.56-10.77-39.3-26.09-49.34-46.55c-0.71-1.44-1.37-2.91-1.97-4.4c-14.56-35.83,9.69-72.07,43.46-84.44
				c2.9-1.06,5.85-1.96,8.84-2.73c3.48-0.9,7.01-1.62,10.56-2.16c2.25-0.34,4.51-0.62,6.77-0.84c0,0,6.83-18,6.83-18.01
				c-0.12,0.32-7.12,0.44-8.56,0.5c-0.1,0-0.19,0.01-0.23,0.01c-3.59,0.38-7.16,0.94-10.71,1.66c-3.87,0.79-7.7,1.76-11.47,2.93
				c-20.3,6.28-39.83,18.67-52.38,36.05c-9.78,13.56-15.23,30.28-14.89,47.03c0.92,45.72,43.58,76.43,81.49,93.55
				c39.51,17.85,83.84,25.09,127.02,24.37c57.27-0.97,114.15-18.26,161.33-50.96c2.34-1.6,4.65-3.23,6.94-4.93
				c7.64,2.95,16.81,1.67,23.19-3.91C5994.79-5135.6,5995.07-5148.09,5986.87-5155.91z M5979.18-5134.84
				c-4.47,3.96-11.62,3.82-15.94-0.31c-4.29-4.12-4.14-10.68,0.33-14.61c4.5-3.94,11.65-3.82,15.97,0.31
				C5983.84-5145.35,5983.68-5138.78,5979.18-5134.84z"/>
		</g>
		<rect x="5826.1" y="-5233.93" class="st1" width="20.62" height="20.62"/>
		<rect x="5828.65" y="-5265.57" class="st1" width="20.62" height="20.62"/>
		<rect x="5856.87" y="-5280.2" class="st1" width="20.62" height="20.62"/>
		<rect x="5856.87" y="-5240.43" class="st1" width="20.62" height="20.62"/>
	</g>
	<g>
		<path class="st2" d="M5812.55-4834.22h-7.31v-31.01h7.31V-4834.22z"/>
		<path class="st2" d="M5823.68-4858.4v-6.83h24.22v6.83h-8.47v24.18h-7.31v-24.18H5823.68z"/>
		<path class="st2" d="M5887.66-4833.82c-4.03,0-7.78-1.69-11.24-5.06l1.55-2.79c0.5-0.88,1.24-1.4,2.22-1.56
			c0.97-0.16,1.94,0.05,2.89,0.64c1.91,1.25,3.43,1.88,4.58,1.89c1.25,0.01,2.23-0.23,2.94-0.74c0.71-0.5,1.07-1.28,1.07-2.33
			c0-0.66-0.32-1.26-0.97-1.8c-0.64-0.54-1.65-1.05-3-1.52c-3.22-1.09-5.6-2.42-7.14-3.97c-1.54-1.55-2.31-3.41-2.31-5.57
			c0-2.68,0.92-4.84,2.77-6.5c1.85-1.66,4.27-2.49,7.25-2.49c1.64,0,3.3,0.3,4.98,0.9c1.68,0.6,3.05,1.47,4.12,2.61l-1.41,2.48
			c-0.39,0.66-0.88,1.16-1.45,1.5c-0.57,0.34-1.14,0.51-1.69,0.49c-0.55-0.01-1.1-0.12-1.65-0.31c-0.95-0.52-1.92-0.78-2.9-0.78
			c-0.81,0-1.47,0.19-1.96,0.57c-0.5,0.38-0.75,0.88-0.75,1.51c0,0.57,0.34,1.08,1.01,1.53c0.67,0.45,1.72,0.88,3.15,1.28
			c6.18,1.64,9.27,4.99,9.27,10.04c0,2.98-1.04,5.39-3.12,7.23C5893.78-4834.74,5891.05-4833.82,5887.66-4833.82z"/>
		<path class="st2" d="M5910.29-4843.39c-0.82-1.97-1.23-4.08-1.23-6.32c0-2.25,0.41-4.36,1.23-6.33c0.82-1.98,1.93-3.66,3.34-5.05
			c1.41-1.39,3.11-2.5,5.1-3.31c1.99-0.81,4.12-1.22,6.39-1.22c3.04,0,5.78,0.69,8.23,2.07c2.45,1.38,4.37,3.28,5.77,5.71
			c1.39,2.43,2.09,5.14,2.09,8.14c0,2.26-0.41,4.36-1.23,6.32c-0.82,1.96-1.94,3.64-3.36,5.05c-1.42,1.41-3.13,2.51-5.12,3.31
			c-1.99,0.8-4.12,1.2-6.39,1.2c-2.27,0-4.4-0.4-6.39-1.2c-1.99-0.8-3.69-1.9-5.1-3.31
			C5912.22-4839.73,5911.11-4841.42,5910.29-4843.39z M5918.88-4856.11c-1.67,1.71-2.51,3.84-2.51,6.4c0,2.56,0.84,4.69,2.51,6.4
			c1.67,1.71,3.76,2.56,6.25,2.56c2.51,0,4.59-0.85,6.26-2.56c1.67-1.71,2.5-3.84,2.5-6.39c0-2.56-0.83-4.7-2.5-6.41
			c-1.67-1.71-3.75-2.56-6.26-2.56C5922.64-4858.67,5920.56-4857.82,5918.88-4856.11z"/>
		<path class="st2" d="M5953.26-4834.22v-31.01h7.31v24.31h11.68v6.7H5953.26z"/>
		<path class="st2" d="M5990.54-4846.55c0,1.62,0.52,2.93,1.57,3.93c1.04,0.99,2.41,1.49,4.11,1.49c1.71,0,3.09-0.5,4.14-1.49
			c1.05-0.99,1.58-2.3,1.58-3.93v-18.68h7.31v18.68c0,3.78-1.2,6.85-3.6,9.2c-2.4,2.35-5.54,3.53-9.42,3.53
			c-3.87,0-7-1.17-9.39-3.52c-2.4-2.35-3.59-5.42-3.59-9.21v-18.68h7.31V-4846.55z"/>
		<path class="st2" d="M6019.55-4858.4v-6.83h24.22v6.83h-8.47v24.18H6028v-24.18H6019.55z"/>
		<path class="st2" d="M6062.19-4834.22h-7.31v-31.01h7.31V-4834.22z"/>
		<path class="st2" d="M6075.5-4843.39c-0.82-1.97-1.23-4.08-1.23-6.32c0-2.25,0.41-4.36,1.23-6.33c0.82-1.98,1.93-3.66,3.34-5.05
			c1.41-1.39,3.11-2.5,5.1-3.31c1.99-0.81,4.12-1.22,6.39-1.22c3.04,0,5.78,0.69,8.24,2.07c2.45,1.38,4.37,3.28,5.77,5.71
			c1.39,2.43,2.09,5.14,2.09,8.14c0,2.26-0.41,4.36-1.23,6.32c-0.82,1.96-1.94,3.64-3.36,5.05c-1.42,1.41-3.13,2.51-5.12,3.31
			s-4.12,1.2-6.39,1.2c-2.27,0-4.4-0.4-6.39-1.2c-1.99-0.8-3.69-1.9-5.1-3.31S6076.31-4841.42,6075.5-4843.39z M6084.09-4856.11
			c-1.67,1.71-2.51,3.84-2.51,6.4c0,2.56,0.84,4.69,2.51,6.4c1.67,1.71,3.76,2.56,6.25,2.56c2.51,0,4.59-0.85,6.26-2.56
			c1.67-1.71,2.5-3.84,2.5-6.39c0-2.56-0.83-4.7-2.5-6.41c-1.67-1.71-3.75-2.56-6.26-2.56
			C6087.85-4858.67,6085.76-4857.82,6084.09-4856.11z"/>
		<path class="st2" d="M6138.61-4865.23h7.27v31.01h-5.36c-0.94,0-1.79-0.54-2.54-1.62l-12.96-19.03h-0.1
			c0.6,1.48,0.89,3.02,0.86,4.6l-0.04,16.05h-7.27v-31.01l5.86,0.02c0.78,0,1.41,0.17,1.89,0.49c0.48,0.33,1,0.91,1.58,1.75
			l11.62,17.16h0.11c-0.63-1.57-0.95-3.19-0.95-4.85L6138.61-4865.23z"/>
		<path class="st2" d="M6168.31-4833.82c-4.03,0-7.78-1.69-11.24-5.06l1.55-2.79c0.5-0.88,1.24-1.4,2.22-1.56
			c0.97-0.16,1.94,0.05,2.89,0.64c1.91,1.25,3.43,1.88,4.58,1.89c1.25,0.01,2.23-0.23,2.94-0.74c0.71-0.5,1.07-1.28,1.07-2.33
			c0-0.66-0.32-1.26-0.97-1.8c-0.64-0.54-1.65-1.05-3-1.52c-3.22-1.09-5.6-2.42-7.14-3.97c-1.54-1.55-2.31-3.41-2.31-5.57
			c0-2.68,0.92-4.84,2.77-6.5c1.85-1.66,4.27-2.49,7.25-2.49c1.64,0,3.3,0.3,4.98,0.9c1.68,0.6,3.05,1.47,4.12,2.61l-1.41,2.48
			c-0.39,0.66-0.88,1.16-1.45,1.5c-0.57,0.34-1.14,0.51-1.69,0.49c-0.55-0.01-1.1-0.12-1.65-0.31c-0.95-0.52-1.92-0.78-2.9-0.78
			c-0.81,0-1.47,0.19-1.96,0.57c-0.5,0.38-0.75,0.88-0.75,1.51c0,0.57,0.34,1.08,1.01,1.53c0.67,0.45,1.72,0.88,3.15,1.28
			c6.18,1.64,9.27,4.99,9.27,10.04c0,2.98-1.04,5.39-3.12,7.23C6174.44-4834.74,6171.7-4833.82,6168.31-4833.82z"/>
	</g>
</g>
<rect x="6422.01" y="-5861.56" width="726.2" height="726.2"/>
<g>
	<g>
		<path d="M6575.16-4662.02h-11.27l-14.64-16.79h-9.11v16.79h-9.47v-50.31c7.97,0,15.93,0.07,23.9,0.07
			c11.84,0.07,18.09,7.97,18.09,16.65c0,6.89-3.16,13.85-12.7,15.79l15.21,17.15V-4662.02z M6540.13-4703.43v16.08h14.43
			c6.03,0,8.61-4.02,8.61-8.04c0-4.02-2.66-8.04-8.61-8.04H6540.13z"/>
		<path d="M6613.55-4679.68c0,10.19-6.96,18.44-18.44,18.44c-11.48,0-18.37-8.25-18.37-18.44c0-10.12,7.03-18.44,18.3-18.44
			C6606.3-4698.12,6613.55-4689.79,6613.55-4679.68z M6585.49-4679.68c0,5.38,3.23,10.41,9.62,10.41c6.39,0,9.62-5.02,9.62-10.41
			c0-5.31-3.73-10.48-9.62-10.48C6588.79-4690.15,6585.49-4684.99,6585.49-4679.68z"/>
		<path d="M6654.75-4679.68c0,10.19-6.96,18.44-18.44,18.44s-18.37-8.25-18.37-18.44c0-10.12,7.03-18.44,18.3-18.44
			S6654.75-4689.79,6654.75-4679.68z M6626.68-4679.68c0,5.38,3.23,10.41,9.62,10.41s9.62-5.02,9.62-10.41
			c0-5.31-3.73-10.48-9.62-10.48C6629.99-4690.15,6626.68-4684.99,6626.68-4679.68z"/>
		<path d="M6672.4-4707.38v10.05h9.76v7.54h-9.83v15.29c0,3.37,1.87,5.02,4.59,5.02c1.36,0,2.94-0.43,4.23-1.08l2.44,7.46
			c-2.51,1-4.59,1.44-7.25,1.51c-7.68,0.29-12.7-4.09-12.7-12.92v-15.29h-6.6v-7.54h6.6v-9.11L6672.4-4707.38z"/>
		<path d="M6748.04-4687.57c0.22,12.7-7.54,25.55-25.12,25.55c-6.17,0-13.56,0-19.74,0v-50.24c6.17,0,13.56,0,19.74,0
			C6740.15-4712.26,6747.83-4699.99,6748.04-4687.57z M6712.59-4671.13h10.33c11.41,0,15.93-8.33,15.72-16.51
			c-0.22-7.82-4.81-15.65-15.72-15.65h-10.33V-4671.13z"/>
		<path d="M6790.74-4697.4l-21.6,50.17h-9.62l6.6-15.36l-14.14-34.81h10.19l5.38,15.29l3.37,9.98l3.66-9.76l6.46-15.5H6790.74z"/>
		<path d="M6821.38-4662.02v-18.52c0-5.38-2.94-9.47-8.54-9.47c-5.38,0-9.04,4.52-9.04,9.9v18.08h-8.68v-35.45h7.82l0.57,4.81
			c3.59-3.52,7.18-5.31,11.63-5.31c8.33,0,15,6.24,15,17.37v18.59H6821.38z"/>
		<path d="M6865.74-4697.4h8.4v35.38h-8.25l-0.43-5.17c-2.01,4.16-7.54,6.17-11.48,6.24c-10.48,0.07-18.23-6.39-18.23-18.8
			c0-12.2,8.11-18.59,18.44-18.52c4.74,0,9.26,2.22,11.27,5.74L6865.74-4697.4z M6844.49-4679.75c0,6.75,4.67,10.77,10.48,10.77
			c13.78,0,13.78-21.46,0-21.46C6849.16-4690.44,6844.49-4686.49,6844.49-4679.75z"/>
		<path d="M6905.06-4662.02v-18.95c0-4.67-2.44-8.9-7.25-8.9c-4.74,0-7.54,4.23-7.54,8.9v18.95h-8.76v-35.45h8.11l0.65,4.31
			c1.87-3.59,5.96-4.88,9.33-4.88c4.23,0,8.47,1.72,10.48,6.6c3.16-5.02,7.25-6.46,11.84-6.46c10.05,0,15,6.17,15,16.79v19.09h-8.76
			v-19.09c0-4.66-1.94-8.61-6.67-8.61s-7.68,4.09-7.68,8.76v18.95H6905.06z"/>
		<path d="M6955.37-4707.38c0,6.82-10.33,6.82-10.33,0S6955.37-4714.2,6955.37-4707.38z M6945.83-4697.55v35.52h8.76v-35.52H6945.83
			z"/>
		<path d="M6992.84-4666.54c-4.09,4.02-8.4,5.6-13.64,5.6c-10.26,0-18.8-6.17-18.8-18.73s8.54-18.73,18.8-18.73
			c5.02,0,8.9,1.44,12.77,5.24l-5.53,5.81c-2.08-1.87-4.67-2.8-7.11-2.8c-5.88,0-10.19,4.31-10.19,10.48
			c0,6.75,4.59,10.33,10.05,10.33c2.8,0,5.6-0.79,7.75-2.94L6992.84-4666.54z"/>
		<path d="M7019.82-4688c-2.51-2.37-5.38-3.16-8.76-3.16c-4.16,0-6.46,1.29-6.46,3.52c0,2.3,2.08,3.59,6.6,3.88
			c6.67,0.43,15.14,1.94,15.14,11.34c0,6.24-5.1,11.63-15.21,11.63c-5.6,0-11.2-0.93-16.36-6.31l4.31-6.24
			c2.51,2.8,8.25,4.88,12.2,4.95c3.3,0.07,6.39-1.65,6.39-4.23c0-2.44-2.01-3.44-7.03-3.73c-6.67-0.5-14.64-2.94-14.64-10.98
			c0-8.18,8.47-11.05,14.93-11.05c5.53,0,9.69,1.08,13.78,4.66L7019.82-4688z"/>
	</g>
	<g>
		<path d="M6748.71-4797.79c0,0,17.17,5.88,21.11,19.79c3.6,0.25,7.21,0.37,10.83,0.37c0.99,0,1.97-0.01,2.95-0.03
			C6781.96-4789.31,6774.39-4801.48,6748.71-4797.79z"/>
		<path d="M6712.87-4863.23c-0.18,1.35-0.32,2.73-0.45,4.16c-2.9,34.15,43,39.96,63.42,56.01c10.5,8.26,14.32,17.17,14.31,25.15
			c6.82-0.41,13.55-1.25,20.15-2.52c1.09-7.08,0.09-13.95-2.55-19.77c-7.54-16.64-35.1-29.64-50.69-37.18
			c-15.6-7.54-30.08-16.36-32.08-33.46c-0.07-0.61-0.13-1.23-0.17-1.84c-0.12-1.95-0.07-3.88,0.1-5.78
			c1.29-14.08,9.71-26.04,9.71-26.04s-8.99,5.24-15.61,19.41c-0.09,0.18-0.17,0.36-0.26,0.55c-0.47,1.03-0.93,2.11-1.37,3.24
			c-0.24,0.61-0.47,1.23-0.7,1.86c0.81-0.04,4.78-0.1,4.84-0.28c0,0-3.87,10.2-3.87,10.2c-1.28,0.12-2.56,0.28-3.83,0.47
			C6713.47-4867.18,6713.14-4865.25,6712.87-4863.23C6712.88-4863.23,6712.88-4863.23,6712.87-4863.23z"/>
		<path class="st2" d="M6783.33-4979.01c5.23,16.4-4.33,30.41-15.43,43.71c-11.1,13.3-30.85,36.5-30.86,54.77
			c0,5.53,1.46,11.27,4.41,16.64c0.19,0.34,0.39,0.68,0.59,1.02c4.57,8.26,12.38,14.38,20.73,18.84
			c8.94,4.78,18.74,7.34,27.68,12.04c18.74,9.84,35.87,29.83,30.08,52.65c0.27-1.05,0.97-2.13,1.39-3.14
			c0.45-1.09,0.88-2.18,1.28-3.29c0.79-2.17,1.47-4.38,2.04-6.62c3.48-13.62,4.58-29.86-3.22-42.78c-0.94-1.55-1.96-3-3.05-4.37
			h-22.82v-17.1c-7.78-4.89-14.82-10.93-15.56-20.9c-0.55-7.4,2.77-14.55,7.1-20.36c1.26-1.68,2.61-3.35,4.15-4.79
			c-45.16,13.09-14.66,49.14-14.66,49.14c-12.17-4.85-24.22-19.71-12.24-42.75c11.98-23.04,51.4-47.25,34.68-77.18
			c-16.72-29.92-38.95-32.22-38.95-32.22S6778.1-4995.42,6783.33-4979.01z"/>
		<path class="st2" d="M6688.29-4820.11c-0.84-1.95-1.44-3.99-1.95-6.04c-0.55-2.05-0.83-4.16-1.08-6.28
			c-0.43-3.95-0.32-7.97,0.04-12.07c-0.52,0.93-0.99,1.92-1.42,2.96c-0.94,2.97-1.48,6.08-1.53,9.21c-0.11,3.48,0.39,6.97,1.4,10.36
			c1.47,3.23,3.81,6.5,6.85,9.56c1.16,1.17,2.45,2.32,3.83,3.44c0.84,0.68,1.7,1.33,2.58,1.96c-0.69-0.7-1.37-1.41-2-2.15
			C6692.14-4812.5,6689.89-4816.18,6688.29-4820.11z"/>
		<path class="st2" d="M6863.28-4773.48c-0.26-0.55-0.64-1.05-1.12-1.52c-0.76-0.72-1.66-1.2-2.64-1.47
			c-0.23-0.07-0.46-0.11-0.69-0.14c-0.19-0.04-0.39-0.03-0.58-0.04c-0.42,0.21-0.85,0.41-1.28,0.62c0.43-0.21,0.86-0.41,1.28-0.62
			c-1.7-0.14-3.44,0.33-4.76,1.49c-0.43,0.38-0.76,0.82-1.04,1.27c0.87-0.4,1.74-0.8,2.61-1.21c-0.87,0.41-1.74,0.81-2.6,1.22
			c-0.11,0.15-0.22,0.31-0.29,0.46c-0.11,0.2-0.19,0.42-0.27,0.63c-0.26,0.77-0.33,1.59-0.23,2.39c-3.26,1.31-6.57,2.52-9.9,3.64
			c-9.35,3.16-18.94,5.57-28.66,7.18c-4.66,0.78-9.35,1.39-14.06,1.81c-0.76,0.07-1.53,0.13-2.3,0.18
			c-1.02,0.07-2.05,0.09-3.09,0.14c-3.04,0.16-6.08,0.24-9.14,0.24h-1.47c-2.94-0.03-5.88-0.12-8.82-0.3
			c-0.08-0.01-0.16-0.01-0.24-0.02c-0.92-0.07-1.86-0.15-2.79-0.21c-1.16-0.09-2.34-0.16-3.52-0.28c-0.74-0.07-1.49-0.16-2.23-0.24
			c-7.35-0.76-14.6-1.96-21.79-3.56c-0.04,0-0.07-0.02-0.11-0.03c-1.49-0.33-2.98-0.68-4.47-1.05
			c-16.45-3.93-32.3-10.23-46.03-19.33c-1.89-1.27-3.75-2.58-5.58-3.96c-4.06-3.02-7.89-6.3-11.25-9.92
			c-0.12-0.12-0.22-0.24-0.33-0.36c-2.69-2.94-5.06-6.09-6.96-9.53c-4.44-7.77-6.71-16.59-7.09-25.56l-0.67-0.01h-0.81l-0.17-0.01
			c-0.03,0.25-0.04,0.51-0.06,0.76c-0.57,8.93,1.14,18.08,5.14,26.44c2.03,4.3,4.83,8.36,8.03,12.01c3.2,3.66,6.81,6.97,10.62,10.01
			c7.56,6.22,16.15,11.29,25.14,15.54c9.06,4.16,18.61,7.35,28.33,9.76c8.45,2.03,17.14,3.6,25.87,4.49
			c-1.96,2.4-4.71,5.2-8.52,8.12c-10.6,8.12-5.57,27.32-5.57,27.32s1.14-13.07,30.81-27.15c4.93-2.34,9.2-4.99,12.87-7.86
			c1.48-0.11,2.96-0.25,4.45-0.41c3.1-0.33,6.17-0.77,9.24-1.28c8.04-1.31,15.93-3.22,23.58-5.7c3.12-1,6.19-2.11,9.22-3.31h0.02
			c4.41-1.75,8.71-3.7,12.9-5.83c0.06,0.12,0.13,0.22,0.21,0.35c0.23,0.38,0.51,0.75,0.86,1.08c2.33,2.23,6.22,2.31,8.65,0.17
			c1.94-1.71,2.39-4.3,1.31-6.41V-4773.48z M6859.97-4768.98c-1.28,1.12-3.32,1.08-4.55-0.09c-0.15-0.13-0.26-0.27-0.38-0.41
			c-0.83-1.18-0.67-2.76,0.47-3.75c1.28-1.14,3.32-1.1,4.56,0.08c0.29,0.3,0.52,0.62,0.67,0.96c0,0,0,0,0,0.01
			C6861.19-4771.1,6860.93-4769.83,6859.97-4768.98z"/>
		<g>
			<path d="M6892.75-4812.61c-4.63-4.43-12.35-4.59-17.18-0.33c-3.51,3.1-4.54,7.67-3.07,11.65c-2.74,1.99-5.52,3.87-8.36,5.66
				c-15.06,9.49-31.67,16.1-48.91,19.86c-7.74,1.69-15.6,2.81-23.51,3.34c-0.02,0-0.03,0-0.05,0c-2.36,0.16-4.73,0.26-7.09,0.32
				c-12.99,0.31-26.04-0.91-38.77-3.69c-13.33-2.9-26.52-7.21-38.51-13.81c-11.07-6.1-22.26-14.77-27.94-26.36
				c-0.4-0.82-0.77-1.65-1.12-2.49c-8.24-20.29,5.49-40.81,24.61-47.81c1.64-0.6,3.31-1.11,5.01-1.55c1.97-0.51,3.97-0.92,5.98-1.22
				c1.27-0.19,2.55-0.35,3.83-0.47c0,0,3.87-10.19,3.87-10.2c-0.07,0.18-4.03,0.25-4.84,0.28c-0.06,0-0.11,0.01-0.13,0.01
				c-2.03,0.22-4.06,0.53-6.06,0.94c-2.19,0.44-4.36,1-6.49,1.66c-11.49,3.56-22.56,10.57-29.66,20.42
				c-5.54,7.68-8.62,17.15-8.43,26.63c0.52,25.89,24.68,43.28,46.14,52.98c22.38,10.11,47.48,14.21,71.93,13.8
				c32.43-0.55,64.64-10.34,91.35-28.86c1.32-0.91,2.64-1.83,3.93-2.79c4.32,1.67,9.52,0.95,13.13-2.22
				C6897.23-4801.11,6897.4-4808.18,6892.75-4812.61z M6888.4-4800.68c-2.53,2.24-6.58,2.16-9.03-0.17
				c-2.43-2.34-2.34-6.05,0.19-8.28c2.55-2.23,6.59-2.16,9.04,0.17C6891.03-4806.63,6890.95-4802.91,6888.4-4800.68z"/>
		</g>
		<rect x="6801.71" y="-4856.79" width="11.68" height="11.68"/>
		<rect x="6803.16" y="-4874.71" width="11.68" height="11.68"/>
		<rect x="6819.14" y="-4882.99" width="11.68" height="11.68"/>
		<rect x="6819.14" y="-4860.47" width="11.68" height="11.68"/>
	</g>
	<g>
		<path class="st2" d="M6794.04-4630.45h-4.14v-17.56h4.14V-4630.45z"/>
		<path class="st2" d="M6800.34-4644.14v-3.87h13.72v3.87h-4.79v13.69h-4.14v-13.69H6800.34z"/>
		<path class="st2" d="M6836.57-4630.23c-2.28,0-4.41-0.96-6.36-2.87l0.88-1.58c0.29-0.5,0.7-0.8,1.26-0.89
			c0.55-0.09,1.1,0.03,1.64,0.36c1.08,0.71,1.94,1.06,2.59,1.07c0.71,0.01,1.26-0.13,1.67-0.42c0.4-0.29,0.61-0.73,0.61-1.32
			c0-0.37-0.18-0.71-0.55-1.02s-0.93-0.59-1.7-0.86c-1.82-0.62-3.17-1.37-4.04-2.25c-0.87-0.88-1.31-1.93-1.31-3.15
			c0-1.52,0.52-2.74,1.57-3.68c1.05-0.94,2.42-1.41,4.1-1.41c0.93,0,1.87,0.17,2.82,0.51s1.73,0.83,2.33,1.48l-0.8,1.4
			c-0.22,0.37-0.5,0.66-0.82,0.85s-0.64,0.29-0.96,0.28s-0.62-0.07-0.93-0.18c-0.54-0.29-1.09-0.44-1.64-0.44
			c-0.46,0-0.83,0.11-1.11,0.32c-0.28,0.21-0.42,0.5-0.42,0.86c0,0.32,0.19,0.61,0.57,0.87c0.38,0.25,0.98,0.5,1.78,0.73
			c3.5,0.93,5.25,2.82,5.25,5.69c0,1.69-0.59,3.05-1.77,4.09C6840.04-4630.74,6838.49-4630.23,6836.57-4630.23z"/>
		<path class="st2" d="M6849.39-4635.64c-0.46-1.11-0.7-2.31-0.7-3.58c0-1.27,0.23-2.47,0.7-3.59c0.46-1.12,1.09-2.07,1.89-2.86
			c0.8-0.79,1.76-1.41,2.89-1.87c1.13-0.46,2.33-0.69,3.62-0.69c1.72,0,3.28,0.39,4.66,1.17c1.39,0.78,2.48,1.86,3.27,3.24
			c0.79,1.38,1.18,2.91,1.18,4.61c0,1.28-0.23,2.47-0.7,3.58c-0.46,1.11-1.1,2.06-1.9,2.86c-0.81,0.8-1.77,1.42-2.9,1.87
			c-1.13,0.45-2.33,0.68-3.62,0.68c-1.29,0-2.49-0.23-3.62-0.68c-1.13-0.45-2.09-1.08-2.89-1.87
			C6850.48-4633.57,6849.85-4634.53,6849.39-4635.64z M6854.25-4642.85c-0.95,0.97-1.42,2.18-1.42,3.62c0,1.45,0.47,2.66,1.42,3.62
			c0.95,0.97,2.13,1.45,3.54,1.45c1.42,0,2.6-0.48,3.54-1.45c0.94-0.97,1.42-2.17,1.42-3.62c0-1.45-0.47-2.66-1.42-3.63
			c-0.94-0.97-2.13-1.45-3.54-1.45C6856.38-4644.3,6855.2-4643.81,6854.25-4642.85z"/>
		<path class="st2" d="M6873.72-4630.45v-17.56h4.14v13.76h6.61v3.79H6873.72z"/>
		<path class="st2" d="M6894.83-4637.43c0,0.92,0.3,1.66,0.89,2.22c0.59,0.56,1.37,0.84,2.33,0.84c0.97,0,1.75-0.28,2.34-0.84
			c0.59-0.56,0.89-1.3,0.89-2.22v-10.58h4.14v10.58c0,2.14-0.68,3.88-2.04,5.21c-1.36,1.33-3.14,2-5.34,2
			c-2.19,0-3.96-0.66-5.32-1.99c-1.36-1.33-2.03-3.07-2.03-5.22v-10.58h4.14V-4637.43z"/>
		<path class="st2" d="M6911.26-4644.14v-3.87h13.72v3.87h-4.79v13.69h-4.14v-13.69H6911.26z"/>
		<path class="st2" d="M6935.4-4630.45h-4.14v-17.56h4.14V-4630.45z"/>
		<path class="st2" d="M6942.94-4635.64c-0.46-1.11-0.7-2.31-0.7-3.58c0-1.27,0.23-2.47,0.7-3.59c0.46-1.12,1.09-2.07,1.89-2.86
			c0.8-0.79,1.76-1.41,2.89-1.87c1.13-0.46,2.33-0.69,3.62-0.69c1.72,0,3.28,0.39,4.66,1.17c1.39,0.78,2.48,1.86,3.27,3.24
			c0.79,1.38,1.18,2.91,1.18,4.61c0,1.28-0.23,2.47-0.7,3.58c-0.46,1.11-1.1,2.06-1.9,2.86c-0.81,0.8-1.77,1.42-2.9,1.87
			c-1.13,0.45-2.33,0.68-3.62,0.68c-1.29,0-2.49-0.23-3.62-0.68c-1.13-0.45-2.09-1.08-2.89-1.87
			C6944.03-4633.57,6943.4-4634.53,6942.94-4635.64z M6947.8-4642.85c-0.95,0.97-1.42,2.18-1.42,3.62c0,1.45,0.47,2.66,1.42,3.62
			c0.95,0.97,2.13,1.45,3.54,1.45c1.42,0,2.6-0.48,3.54-1.45c0.94-0.97,1.42-2.17,1.42-3.62c0-1.45-0.47-2.66-1.42-3.63
			c-0.94-0.97-2.12-1.45-3.54-1.45C6949.93-4644.3,6948.75-4643.81,6947.8-4642.85z"/>
		<path class="st2" d="M6978.67-4648.01h4.12v17.56h-3.03c-0.53,0-1.01-0.31-1.44-0.92l-7.34-10.78h-0.06
			c0.34,0.84,0.5,1.71,0.49,2.61l-0.02,9.09h-4.12v-17.56l3.32,0.01c0.44,0,0.8,0.09,1.07,0.28c0.27,0.19,0.57,0.52,0.89,0.99
			l6.58,9.72h0.06c-0.36-0.89-0.54-1.8-0.54-2.75L6978.67-4648.01z"/>
		<path class="st2" d="M6995.49-4630.23c-2.28,0-4.41-0.96-6.36-2.87l0.88-1.58c0.29-0.5,0.7-0.8,1.26-0.89
			c0.55-0.09,1.1,0.03,1.64,0.36c1.08,0.71,1.94,1.06,2.59,1.07c0.71,0.01,1.26-0.13,1.67-0.42c0.4-0.29,0.61-0.73,0.61-1.32
			c0-0.37-0.18-0.71-0.55-1.02s-0.93-0.59-1.7-0.86c-1.82-0.62-3.17-1.37-4.04-2.25c-0.87-0.88-1.31-1.93-1.31-3.15
			c0-1.52,0.52-2.74,1.57-3.68c1.05-0.94,2.42-1.41,4.1-1.41c0.93,0,1.87,0.17,2.82,0.51s1.73,0.83,2.33,1.48l-0.8,1.4
			c-0.22,0.37-0.5,0.66-0.82,0.85s-0.64,0.29-0.96,0.28s-0.62-0.07-0.93-0.18c-0.54-0.29-1.09-0.44-1.64-0.44
			c-0.46,0-0.83,0.11-1.11,0.32c-0.28,0.21-0.42,0.5-0.42,0.86c0,0.32,0.19,0.61,0.57,0.87c0.38,0.25,0.98,0.5,1.78,0.73
			c3.5,0.93,5.25,2.82,5.25,5.69c0,1.69-0.59,3.05-1.77,4.09C6998.96-4630.74,6997.41-4630.23,6995.49-4630.23z"/>
	</g>
</g>
<g>
	<g>
		<path class="st2" d="M6581.77-5352.52h-11.27l-14.64-16.79h-9.11v16.79h-9.47v-50.31c7.97,0,15.93,0.07,23.9,0.07
			c11.84,0.07,18.09,7.97,18.09,16.65c0,6.89-3.16,13.85-12.7,15.79l15.21,17.15V-5352.52z M6546.74-5393.93v16.08h14.43
			c6.03,0,8.61-4.02,8.61-8.04c0-4.02-2.66-8.04-8.61-8.04H6546.74z"/>
		<path class="st2" d="M6620.16-5370.17c0,10.19-6.96,18.44-18.44,18.44s-18.37-8.25-18.37-18.44c0-10.12,7.03-18.44,18.3-18.44
			S6620.16-5380.29,6620.16-5370.17z M6592.1-5370.17c0,5.38,3.23,10.41,9.62,10.41c6.39,0,9.62-5.02,9.62-10.41
			c0-5.31-3.73-10.48-9.62-10.48C6595.4-5380.65,6592.1-5375.48,6592.1-5370.17z"/>
		<path class="st2" d="M6661.35-5370.17c0,10.19-6.96,18.44-18.44,18.44c-11.48,0-18.37-8.25-18.37-18.44
			c0-10.12,7.03-18.44,18.3-18.44S6661.35-5380.29,6661.35-5370.17z M6633.29-5370.17c0,5.38,3.23,10.41,9.62,10.41
			s9.62-5.02,9.62-10.41c0-5.31-3.73-10.48-9.62-10.48C6636.59-5380.65,6633.29-5375.48,6633.29-5370.17z"/>
		<path class="st2" d="M6679.01-5397.88v10.05h9.76v7.54h-9.83v15.29c0,3.37,1.87,5.02,4.59,5.02c1.36,0,2.94-0.43,4.23-1.08
			l2.44,7.46c-2.51,1-4.59,1.44-7.25,1.51c-7.68,0.29-12.7-4.09-12.7-12.92v-15.29h-6.6v-7.54h6.6v-9.11L6679.01-5397.88z"/>
		<path class="st2" d="M6754.65-5378.07c0.22,12.7-7.54,25.55-25.12,25.55c-6.17,0-13.56,0-19.74,0v-50.24c6.17,0,13.56,0,19.74,0
			C6746.76-5402.76,6754.44-5390.48,6754.65-5378.07z M6719.2-5361.63h10.33c11.41,0,15.93-8.32,15.72-16.51
			c-0.22-7.82-4.81-15.65-15.72-15.65h-10.33V-5361.63z"/>
		<path class="st2" d="M6797.35-5387.9l-21.6,50.17h-9.62l6.6-15.36l-14.14-34.81h10.19l5.38,15.29l3.37,9.98l3.66-9.76l6.46-15.5
			H6797.35z"/>
		<path class="st2" d="M6827.99-5352.52v-18.52c0-5.38-2.94-9.47-8.54-9.47c-5.38,0-9.04,4.52-9.04,9.9v18.09h-8.68v-35.45h7.82
			l0.57,4.81c3.59-3.52,7.18-5.31,11.63-5.31c8.33,0,15,6.24,15,17.37v18.59H6827.99z"/>
		<path class="st2" d="M6872.35-5387.9h8.4v35.38h-8.25l-0.43-5.17c-2.01,4.16-7.54,6.17-11.48,6.24
			c-10.48,0.07-18.23-6.39-18.23-18.8c0-12.2,8.11-18.59,18.44-18.52c4.74,0,9.26,2.23,11.27,5.74L6872.35-5387.9z M6851.1-5370.25
			c0,6.75,4.67,10.77,10.48,10.77c13.78,0,13.78-21.46,0-21.46C6855.77-5380.94,6851.1-5376.99,6851.1-5370.25z"/>
		<path class="st2" d="M6911.67-5352.52v-18.95c0-4.67-2.44-8.9-7.25-8.9c-4.74,0-7.54,4.23-7.54,8.9v18.95h-8.76v-35.45h8.11
			l0.65,4.31c1.87-3.59,5.96-4.88,9.33-4.88c4.23,0,8.47,1.72,10.48,6.6c3.16-5.02,7.25-6.46,11.84-6.46c10.05,0,15,6.17,15,16.79
			v19.09h-8.76v-19.09c0-4.67-1.94-8.61-6.67-8.61s-7.68,4.09-7.68,8.76v18.95H6911.67z"/>
		<path class="st2" d="M6961.98-5397.88c0,6.82-10.33,6.82-10.33,0S6961.98-5404.69,6961.98-5397.88z M6952.44-5388.04v35.53h8.76
			v-35.53H6952.44z"/>
		<path class="st2" d="M6999.44-5357.04c-4.09,4.02-8.4,5.6-13.64,5.6c-10.26,0-18.8-6.17-18.8-18.73c0-12.56,8.54-18.73,18.8-18.73
			c5.02,0,8.9,1.44,12.78,5.24l-5.53,5.81c-2.08-1.87-4.67-2.8-7.11-2.8c-5.88,0-10.19,4.31-10.19,10.48
			c0,6.75,4.59,10.33,10.05,10.33c2.8,0,5.6-0.79,7.75-2.94L6999.44-5357.04z"/>
		<path class="st2" d="M7026.43-5378.5c-2.51-2.37-5.38-3.16-8.76-3.16c-4.16,0-6.46,1.29-6.46,3.52c0,2.3,2.08,3.59,6.6,3.88
			c6.67,0.43,15.14,1.94,15.14,11.34c0,6.24-5.1,11.63-15.22,11.63c-5.6,0-11.2-0.93-16.36-6.32l4.31-6.24
			c2.51,2.8,8.25,4.88,12.2,4.95c3.3,0.07,6.39-1.65,6.39-4.23c0-2.44-2.01-3.45-7.03-3.73c-6.67-0.5-14.64-2.94-14.64-10.98
			c0-8.18,8.47-11.05,14.93-11.05c5.53,0,9.69,1.08,13.78,4.66L7026.43-5378.5z"/>
	</g>
	<g>
		<path class="st2" d="M6755.32-5488.28c0,0,17.17,5.88,21.11,19.79c3.6,0.25,7.21,0.37,10.83,0.37c0.99,0,1.97-0.01,2.95-0.03
			C6788.57-5479.81,6781-5491.98,6755.32-5488.28z"/>
		<path class="st2" d="M6719.48-5553.72c-0.18,1.35-0.32,2.73-0.45,4.16c-2.9,34.15,43,39.96,63.42,56.01
			c10.5,8.26,14.32,17.17,14.31,25.15c6.82-0.41,13.55-1.25,20.15-2.52c1.09-7.08,0.09-13.94-2.55-19.77
			c-7.54-16.64-35.1-29.64-50.69-37.18c-15.6-7.54-30.08-16.36-32.08-33.46c-0.07-0.61-0.13-1.23-0.17-1.84
			c-0.12-1.95-0.07-3.88,0.1-5.78c1.29-14.08,9.71-26.04,9.71-26.04s-8.99,5.24-15.61,19.41c-0.09,0.18-0.17,0.36-0.26,0.55
			c-0.47,1.03-0.93,2.11-1.37,3.24c-0.24,0.6-0.47,1.23-0.7,1.86c0.81-0.04,4.78-0.1,4.85-0.28c0,0-3.87,10.2-3.87,10.2
			c-1.28,0.12-2.56,0.28-3.83,0.47C6720.08-5557.68,6719.75-5555.75,6719.48-5553.72
			C6719.49-5553.72,6719.49-5553.72,6719.48-5553.72z"/>
		<path class="st3" d="M6789.94-5669.51c5.23,16.4-4.33,30.41-15.43,43.71c-11.1,13.3-30.85,36.5-30.86,54.77
			c0,5.53,1.46,11.27,4.41,16.64c0.19,0.34,0.39,0.68,0.59,1.02c4.57,8.26,12.38,14.38,20.73,18.84
			c8.94,4.78,18.74,7.34,27.68,12.04c18.74,9.84,35.87,29.83,30.08,52.65c0.27-1.05,0.97-2.13,1.39-3.14
			c0.45-1.09,0.88-2.18,1.28-3.29c0.79-2.17,1.47-4.38,2.04-6.62c3.48-13.62,4.58-29.86-3.22-42.78c-0.94-1.55-1.96-3-3.05-4.37
			h-22.82v-17.1c-7.78-4.89-14.82-10.93-15.56-20.9c-0.55-7.4,2.77-14.55,7.1-20.36c1.26-1.68,2.61-3.35,4.14-4.79
			c-45.16,13.09-14.66,49.14-14.66,49.14c-12.17-4.85-24.22-19.71-12.24-42.76c11.98-23.04,51.4-47.25,34.68-77.18
			c-16.72-29.92-38.95-32.22-38.95-32.22S6784.71-5685.91,6789.94-5669.51z"/>
		<path class="st3" d="M6694.9-5510.61c-0.84-1.95-1.44-3.99-1.95-6.04c-0.55-2.05-0.83-4.16-1.08-6.28
			c-0.43-3.95-0.32-7.97,0.04-12.07c-0.52,0.93-0.99,1.92-1.42,2.96c-0.94,2.97-1.48,6.08-1.53,9.21c-0.11,3.48,0.39,6.97,1.4,10.36
			c1.47,3.23,3.81,6.5,6.85,9.56c1.16,1.17,2.45,2.32,3.83,3.44c0.84,0.67,1.7,1.33,2.58,1.96c-0.69-0.7-1.37-1.41-2-2.15
			C6698.75-5503,6696.5-5506.68,6694.9-5510.61z"/>
		<path class="st3" d="M6869.89-5463.98c-0.26-0.55-0.64-1.05-1.12-1.52c-0.76-0.72-1.66-1.2-2.64-1.47
			c-0.23-0.07-0.46-0.11-0.69-0.15c-0.19-0.04-0.39-0.03-0.58-0.04c-0.42,0.21-0.85,0.41-1.28,0.62c0.43-0.21,0.86-0.41,1.28-0.62
			c-1.7-0.14-3.44,0.33-4.76,1.49c-0.43,0.38-0.76,0.82-1.04,1.27c0.87-0.4,1.74-0.8,2.61-1.21c-0.87,0.41-1.74,0.81-2.6,1.22
			c-0.11,0.14-0.22,0.31-0.29,0.46c-0.11,0.2-0.19,0.42-0.27,0.63c-0.26,0.77-0.33,1.59-0.23,2.39c-3.26,1.31-6.57,2.52-9.9,3.64
			c-9.35,3.16-18.94,5.57-28.66,7.18c-4.66,0.78-9.35,1.39-14.06,1.81c-0.76,0.07-1.53,0.13-2.3,0.18
			c-1.02,0.07-2.05,0.09-3.09,0.15c-3.04,0.16-6.08,0.24-9.14,0.24h-1.47c-2.94-0.03-5.88-0.12-8.82-0.3
			c-0.08-0.01-0.16-0.01-0.24-0.02c-0.92-0.07-1.86-0.15-2.79-0.21c-1.16-0.09-2.34-0.16-3.52-0.28c-0.74-0.07-1.49-0.16-2.23-0.24
			c-7.35-0.76-14.6-1.96-21.8-3.56c-0.04,0-0.07-0.02-0.11-0.03c-1.49-0.33-2.98-0.68-4.47-1.05c-16.45-3.93-32.3-10.23-46.03-19.33
			c-1.89-1.27-3.75-2.58-5.58-3.96c-4.06-3.03-7.89-6.3-11.25-9.92c-0.12-0.12-0.22-0.24-0.33-0.36c-2.69-2.94-5.06-6.09-6.96-9.53
			c-4.44-7.77-6.71-16.59-7.09-25.56l-0.67-0.01h-0.81l-0.17-0.01c-0.03,0.25-0.04,0.51-0.06,0.76c-0.57,8.93,1.14,18.08,5.14,26.44
			c2.03,4.3,4.83,8.36,8.03,12.01c3.2,3.66,6.81,6.97,10.62,10.01c7.56,6.22,16.15,11.29,25.14,15.54
			c9.06,4.16,18.61,7.35,28.33,9.76c8.45,2.03,17.14,3.6,25.87,4.49c-1.96,2.4-4.71,5.2-8.52,8.12c-10.6,8.12-5.57,27.32-5.57,27.32
			s1.14-13.07,30.81-27.15c4.93-2.34,9.2-4.99,12.87-7.86c1.48-0.11,2.96-0.25,4.45-0.41c3.1-0.33,6.17-0.77,9.24-1.28
			c8.04-1.31,15.93-3.22,23.58-5.7c3.12-1,6.19-2.11,9.21-3.31h0.02c4.41-1.75,8.71-3.7,12.9-5.83c0.06,0.12,0.13,0.22,0.21,0.35
			c0.23,0.38,0.51,0.75,0.86,1.08c2.33,2.23,6.22,2.31,8.65,0.17c1.94-1.71,2.39-4.3,1.31-6.41V-5463.98z M6866.58-5459.48
			c-1.28,1.12-3.32,1.08-4.55-0.09c-0.14-0.13-0.26-0.27-0.38-0.41c-0.83-1.18-0.67-2.76,0.47-3.75c1.28-1.14,3.32-1.1,4.56,0.08
			c0.29,0.3,0.52,0.62,0.67,0.96c0,0,0,0,0,0.01C6867.8-5461.6,6867.54-5460.33,6866.58-5459.48z"/>
		<g>
			<path class="st2" d="M6899.36-5503.11c-4.63-4.43-12.35-4.59-17.18-0.33c-3.51,3.1-4.54,7.67-3.07,11.65
				c-2.74,1.99-5.52,3.87-8.36,5.66c-15.06,9.49-31.67,16.1-48.91,19.86c-7.74,1.69-15.6,2.81-23.5,3.34c-0.02,0-0.03,0-0.05,0
				c-2.36,0.16-4.73,0.26-7.09,0.32c-12.99,0.31-26.04-0.91-38.77-3.69c-13.33-2.9-26.52-7.21-38.51-13.81
				c-11.08-6.1-22.26-14.77-27.94-26.36c-0.4-0.82-0.77-1.65-1.12-2.49c-8.24-20.29,5.49-40.81,24.61-47.81
				c1.64-0.6,3.31-1.11,5.01-1.55c1.97-0.51,3.97-0.92,5.98-1.22c1.27-0.19,2.55-0.35,3.83-0.47c0,0,3.87-10.19,3.87-10.2
				c-0.07,0.18-4.03,0.25-4.85,0.28c-0.06,0-0.11,0-0.13,0.01c-2.03,0.22-4.06,0.53-6.06,0.94c-2.19,0.44-4.36,1-6.49,1.66
				c-11.49,3.56-22.56,10.57-29.66,20.42c-5.54,7.68-8.62,17.15-8.43,26.63c0.52,25.89,24.68,43.28,46.14,52.98
				c22.37,10.11,47.48,14.21,71.93,13.8c32.43-0.55,64.64-10.34,91.35-28.86c1.32-0.91,2.64-1.83,3.93-2.79
				c4.32,1.67,9.52,0.95,13.13-2.22C6903.84-5491.61,6904-5498.68,6899.36-5503.11z M6895.01-5491.18
				c-2.53,2.24-6.58,2.16-9.03-0.17c-2.43-2.34-2.34-6.05,0.19-8.28c2.55-2.23,6.6-2.16,9.04,0.17
				C6897.64-5497.13,6897.56-5493.41,6895.01-5491.18z"/>
		</g>
		<rect x="6808.32" y="-5547.29" class="st2" width="11.68" height="11.68"/>
		<rect x="6809.77" y="-5565.2" class="st2" width="11.68" height="11.68"/>
		<rect x="6825.75" y="-5573.49" class="st2" width="11.68" height="11.68"/>
		<rect x="6825.75" y="-5550.97" class="st2" width="11.68" height="11.68"/>
	</g>
	<g>
		<path class="st3" d="M6800.65-5320.95h-4.14v-17.56h4.14V-5320.95z"/>
		<path class="st3" d="M6806.95-5334.64v-3.87h13.72v3.87h-4.79v13.69h-4.14v-13.69H6806.95z"/>
		<path class="st3" d="M6843.18-5320.72c-2.28,0-4.41-0.96-6.36-2.87l0.88-1.58c0.29-0.5,0.7-0.8,1.25-0.89
			c0.55-0.09,1.1,0.03,1.64,0.36c1.08,0.71,1.94,1.06,2.59,1.07c0.71,0.01,1.26-0.13,1.67-0.42c0.4-0.29,0.61-0.73,0.61-1.32
			c0-0.37-0.18-0.71-0.55-1.02c-0.36-0.31-0.93-0.59-1.7-0.86c-1.82-0.62-3.17-1.37-4.05-2.25c-0.87-0.88-1.31-1.93-1.31-3.15
			c0-1.51,0.52-2.74,1.57-3.68c1.05-0.94,2.42-1.41,4.1-1.41c0.93,0,1.87,0.17,2.82,0.51c0.95,0.34,1.73,0.83,2.33,1.48l-0.8,1.4
			c-0.22,0.37-0.5,0.66-0.82,0.85c-0.33,0.19-0.64,0.29-0.96,0.28c-0.31-0.01-0.62-0.07-0.93-0.18c-0.54-0.29-1.09-0.44-1.64-0.44
			c-0.46,0-0.83,0.11-1.11,0.32c-0.28,0.21-0.42,0.5-0.42,0.86c0,0.32,0.19,0.61,0.57,0.87c0.38,0.25,0.98,0.5,1.78,0.73
			c3.5,0.93,5.25,2.82,5.25,5.69c0,1.69-0.59,3.05-1.77,4.09C6846.65-5321.24,6845.1-5320.72,6843.18-5320.72z"/>
		<path class="st3" d="M6856-5326.14c-0.46-1.11-0.7-2.31-0.7-3.58s0.23-2.47,0.7-3.59c0.46-1.12,1.09-2.07,1.89-2.86
			c0.8-0.79,1.76-1.41,2.89-1.87c1.13-0.46,2.33-0.69,3.62-0.69c1.72,0,3.28,0.39,4.66,1.17c1.39,0.78,2.48,1.86,3.27,3.24
			s1.18,2.91,1.18,4.61c0,1.28-0.23,2.47-0.7,3.58c-0.46,1.11-1.1,2.06-1.9,2.86c-0.81,0.8-1.77,1.42-2.9,1.87
			c-1.13,0.45-2.33,0.68-3.62,0.68c-1.29,0-2.49-0.23-3.62-0.68c-1.13-0.45-2.09-1.08-2.89-1.87
			C6857.09-5324.07,6856.46-5325.03,6856-5326.14z M6860.86-5333.35c-0.95,0.97-1.42,2.18-1.42,3.62c0,1.45,0.47,2.65,1.42,3.62
			c0.95,0.97,2.13,1.45,3.54,1.45c1.42,0,2.6-0.48,3.54-1.45c0.94-0.97,1.42-2.17,1.42-3.62c0-1.45-0.47-2.66-1.42-3.63
			c-0.94-0.97-2.12-1.45-3.54-1.45C6862.99-5334.8,6861.81-5334.31,6860.86-5333.35z"/>
		<path class="st3" d="M6880.33-5320.95v-17.56h4.14v13.76h6.61v3.79H6880.33z"/>
		<path class="st3" d="M6901.44-5327.93c0,0.92,0.3,1.66,0.89,2.22c0.59,0.56,1.37,0.84,2.33,0.84c0.97,0,1.75-0.28,2.34-0.84
			s0.89-1.3,0.89-2.22v-10.58h4.14v10.58c0,2.14-0.68,3.88-2.04,5.21c-1.36,1.33-3.14,2-5.34,2c-2.19,0-3.96-0.66-5.32-1.99
			c-1.36-1.33-2.03-3.07-2.03-5.22v-10.58h4.14V-5327.93z"/>
		<path class="st3" d="M6917.87-5334.64v-3.87h13.72v3.87h-4.79v13.69h-4.14v-13.69H6917.87z"/>
		<path class="st3" d="M6942.01-5320.95h-4.14v-17.56h4.14V-5320.95z"/>
		<path class="st3" d="M6949.55-5326.14c-0.46-1.11-0.7-2.31-0.7-3.58s0.23-2.47,0.7-3.59c0.46-1.12,1.09-2.07,1.89-2.86
			c0.8-0.79,1.76-1.41,2.89-1.87c1.13-0.46,2.33-0.69,3.62-0.69c1.72,0,3.27,0.39,4.66,1.17s2.48,1.86,3.27,3.24
			c0.79,1.38,1.18,2.91,1.18,4.61c0,1.28-0.23,2.47-0.7,3.58s-1.1,2.06-1.9,2.86c-0.81,0.8-1.77,1.42-2.9,1.87
			c-1.13,0.45-2.33,0.68-3.62,0.68c-1.29,0-2.49-0.23-3.62-0.68c-1.13-0.45-2.09-1.08-2.89-1.87
			C6950.64-5324.07,6950.01-5325.03,6949.55-5326.14z M6954.41-5333.35c-0.95,0.97-1.42,2.18-1.42,3.62c0,1.45,0.47,2.65,1.42,3.62
			c0.95,0.97,2.13,1.45,3.54,1.45c1.42,0,2.6-0.48,3.54-1.45c0.94-0.97,1.42-2.17,1.42-3.62c0-1.45-0.47-2.66-1.42-3.63
			s-2.13-1.45-3.54-1.45C6956.54-5334.8,6955.36-5334.31,6954.41-5333.35z"/>
		<path class="st3" d="M6985.28-5338.51h4.12v17.56h-3.03c-0.53,0-1.01-0.31-1.44-0.92l-7.34-10.78h-0.06
			c0.34,0.84,0.5,1.71,0.49,2.61l-0.02,9.09h-4.12v-17.56l3.32,0.01c0.44,0,0.8,0.09,1.07,0.28c0.27,0.19,0.57,0.52,0.89,0.99
			l6.58,9.72h0.06c-0.36-0.89-0.54-1.8-0.54-2.75L6985.28-5338.51z"/>
		<path class="st3" d="M7002.1-5320.72c-2.28,0-4.41-0.96-6.36-2.87l0.88-1.58c0.29-0.5,0.7-0.8,1.25-0.89
			c0.55-0.09,1.1,0.03,1.64,0.36c1.08,0.71,1.94,1.06,2.59,1.07c0.71,0.01,1.26-0.13,1.67-0.42c0.4-0.29,0.61-0.73,0.61-1.32
			c0-0.37-0.18-0.71-0.55-1.02s-0.93-0.59-1.7-0.86c-1.82-0.62-3.17-1.37-4.05-2.25c-0.87-0.88-1.31-1.93-1.31-3.15
			c0-1.51,0.52-2.74,1.57-3.68c1.05-0.94,2.42-1.41,4.1-1.41c0.93,0,1.87,0.17,2.82,0.51c0.95,0.34,1.73,0.83,2.33,1.48l-0.8,1.4
			c-0.22,0.37-0.5,0.66-0.82,0.85c-0.33,0.19-0.64,0.29-0.96,0.28c-0.31-0.01-0.62-0.07-0.93-0.18c-0.54-0.29-1.09-0.44-1.64-0.44
			c-0.46,0-0.83,0.11-1.11,0.32c-0.28,0.21-0.42,0.5-0.42,0.86c0,0.32,0.19,0.61,0.57,0.87c0.38,0.25,0.98,0.5,1.78,0.73
			c3.5,0.93,5.25,2.82,5.25,5.69c0,1.69-0.59,3.05-1.77,4.09C7005.57-5321.24,7004.02-5320.72,7002.1-5320.72z"/>
	</g>
</g>
<linearGradient id="SVGID_1_" gradientUnits="userSpaceOnUse" x1="3194.729" y1="-5031.6538" x2="3397.8542" y2="-3351.9656">
	<stop  offset="0" style="stop-color:#00FF00"/>
	<stop  offset="1" style="stop-color:#000000"/>
</linearGradient>
<path class="st4" d="M3302.73-5028.36c0,0,0.24-0.41,0.89-0.85c0.76,0.63,0.87,0.85,0.87,0.85
	c111.58,103.67,28.57,194.24,4.37,216.61l-5.24-107.36l-0.13-2.47l-0.11,2.47l-5.22,107.15
	C3273.71-4834.64,3191.48-4924.97,3302.73-5028.36z M3345.6-4103.6c0,21.91-17.84,39.73-39.73,39.73
	c-21.91,0-39.73-17.82-39.73-39.73c0-17.27,11.09-31.95,26.51-37.41v-398.07l-41.6,21.95c0.18,0.94,0.28,1.9,0.28,2.88v240.7
	c0,8.04-6.53,14.57-14.59,14.57h-80.59v37.81c15.86,5.2,27.36,20.14,27.36,37.74c0,21.9-17.82,39.71-39.71,39.71
	c-21.91,0-39.73-17.82-39.73-39.71c0-15.9,9.39-29.61,22.91-35.95v-54.18c0-8.06,6.53-14.59,14.59-14.59h80.59v-213.74
	c-14.31,6.83-29.2,12.12-44.46,15.99c0.28,1.14,0.44,2.31,0.44,3.52v154.56c0,8.06-6.53,14.59-14.59,14.59h-133.59
	c-5.68,15-20.16,25.7-37.13,25.7c-21.9,0-39.71-17.82-39.71-39.73s17.82-39.73,39.71-39.73c16.55,0,30.75,10.18,36.73,24.59h119.4
	v-137.89c-22.49,3.12-45.43,3.47-68.23,1.38c-75.83-6.94-143.86-39.59-221.91-30.29c-24.55,2.93-60.23,6.47-81.77,20.53
	c170.02-110.9,322.81,32.02,443.56-44.36c7.32-4.65,13.93-9.48,19.87-14.48c61.55-56.83,32.24-179.22,32.24-179.22
	c-0.42,0.02-0.85,0.04-1.29,0.06c-2.43-6.79-22.65-59.32-65.11-66.76c0,0,36.25,30.18,50.45,66.33
	c-42.52-3.65-119.48-29.73-159.06-131.76c0,0-0.18-0.74-0.3-1.2c0.02-0.02,22.39-8.47,52.98-10c1.68-0.09,3.34-0.15,4.98-0.18
	c0.96-0.02,1.94-0.02,2.91-0.04c3.6-0.02,7.1,0.06,10.53,0.26c1.72,0.09,3.43,0.18,5.17,0.33c0.76,0.07,1.51,0.15,2.25,0.22
	c45.86,4.43,99.89,28.98,127.41,111.84c0,0,53.84-135.91,182.08-109.74c0.24,0.06,0.48,0.09,0.72,0.15c1.03,0.2,2.05,0.41,3.06,0.65
	c7.97,1.55,16.23,3.52,24.94,6.18c0,0,0.46-0.02,1.2,0.33c-0.15,0.66-0.29,1.2-0.29,1.2c-28.52,106.34-107.65,126.93-156.9,127.63
	c13.76-36.78,51-67.81,51-67.81c-45.43,7.93-65.39,67.46-65.39,67.46c-3.23,15.07-22.89,116.73,24.05,172.69
	c7.23,6.55,15.51,12.88,25.01,18.87c120.75,76.4,273.54-66.52,443.56,44.36c-34.86-15.05-75.67-20.4-113.24-21.38
	c-89.94-2.31-177.1,46.28-266.38,30.33v179.22h154.32c5.98-14.42,20.18-24.59,36.73-24.59c21.91,0,39.73,17.82,39.73,39.73
	c0,21.9-17.82,39.71-39.73,39.71c-16.97,0-31.43-10.7-37.13-25.7h-168.49c-8.06,0-14.59-6.53-14.59-14.57v-200.9
	c-13.69-3.56-32.11-8.74-38.44-16.51v373.09h54.56c1.07,0,2.1,0.13,3.1,0.35c5.87-14.65,20.16-25.03,36.87-25.03
	c21.9,0,39.73,17.84,39.73,39.73c0,21.91-17.84,39.73-39.73,39.73c-17.03,0-31.54-10.79-37.19-25.88c-0.9,0.18-1.83,0.28-2.79,0.28
	h-69.15c-8.06,0-14.59-6.53-14.59-14.59v-399.32c0-0.31,0.04-0.61,0.06-0.9c-12.93-5.55-27.65-11.88-38.48-16.55v399.42
	C3335.8-4133.79,3345.6-4119.83,3345.6-4103.6z M3469.45-4122.14c0,8.01,6.51,14.52,14.52,14.52c7.99,0,14.5-6.51,14.5-14.52
	c0-7.99-6.51-14.5-14.5-14.5C3475.96-4136.64,3469.45-4130.12,3469.45-4122.14z M3633.58-4292.32c0,7.99,6.49,14.5,14.5,14.5
	c7.99,0,14.5-6.51,14.5-14.5c0-8.01-6.51-14.52-14.5-14.52C3640.07-4306.84,3633.58-4300.33,3633.58-4292.32z M3007.33-4327.24
	c0-8.01-6.51-14.5-14.52-14.5c-7.99,0-14.5,6.49-14.5,14.5c0,8.01,6.51,14.5,14.5,14.5
	C3000.82-4312.74,3007.33-4319.23,3007.33-4327.24z M3143.78-4197.93c-8.01,0-14.52,6.51-14.52,14.52c0,7.99,6.51,14.5,14.52,14.5
	c7.99,0,14.5-6.51,14.5-14.5C3158.28-4191.42,3151.76-4197.93,3143.78-4197.93z M3320.36-4103.6c0-7.99-6.51-14.5-14.5-14.5
	c-8.01,0-14.52,6.51-14.52,14.5c0,8.01,6.51,14.52,14.52,14.52C3313.85-4089.08,3320.36-4095.59,3320.36-4103.6z M2828.18-4129.85
	c-31.99,22.3-69.3,13.12-93.39-21.45l-33.42-47.98l105.62-73.58l33.44,47.98C2864.5-4190.33,2860.19-4152.13,2828.18-4129.85z
	 M2819.51-4212.1l-15.55-22.34l-65.5,45.62l15.57,22.34c14.61,20.97,36.71,25.97,56.92,11.9
	C2831.17-4168.68,2834.12-4191.13,2819.51-4212.1z M2976.23-4085.04l-62.81,22.52l9.56-66.06l-24.5-20.01l-13.76,95.62l-29.09,35.6
	l23.06,18.83l28.87-35.31l91.31-32.71L2976.23-4085.04z M3081.87-3941.48l-28.28-96.99l-22.67-9.65l-50.41,118.46l27.08,11.51
	l30.6-71.9l28.46,97.05l22.5,9.57l50.4-118.46l-27.08-11.51L3081.87-3941.48z M3263.01-3981.5l44.12,133.96l-31.1-3.19l-8.54-28.61
	l-59.45-6.11l-14.17,26.29l-30.36-3.12l70.22-122.22L3263.01-3981.5z M3260.49-3902.81l-15.29-51.11l-25.33,46.95L3260.49-3902.81z
	 M3475.7-4003.49l-29.15,88.32l-64.25-67.77l-24.07,5.29l27.67,125.71l27.3-6l-16.25-73.82l50.14,52.42l13.12-2.88l23.33-70.3
	l16.77,75.41l27.3-6.01l-28.02-125.64L3475.7-4003.49z M3551.14-4035.03l58.62,114.61l26.53-13.56l-58.62-114.62L3551.14-4035.03z
	 M3744.7-4036.53c-18.54,15.4-42.5,13.32-58.01-5.35c-15.51-18.67-13.17-42.61,5.35-58.01c9.91-8.23,21.54-11.2,34.53-9.09
	l3.43-25.79c-18.74-3.56-38.2,2.08-55.32,16.31c-30.82,25.62-35.99,66.02-11.2,95.86c24.81,29.85,65.47,32.15,96.16,6.66
	c17.25-14.35,26.38-32.45,26.17-51.65l-25.99-1.36C3759.64-4055.66,3754.59-4044.76,3744.7-4036.53z M3875.89-4212.54
	c-38.66-27.17-68.32,43.46-87.73,29.83c-6.62-4.67-8.13-14.04,2.03-28.48c6.55-9.33,16.34-17.51,28.79-23.37l-13.21-20.53
	c-13.06,5.44-25.73,16.77-35.05,30.01c-21.05,29.94-16.31,54.84,1.6,67.44c39.11,27.5,68.62-43.26,88.34-29.4
	c6.46,4.56,7.16,13.8-3.01,28.24c-8.89,12.64-22.71,22.71-35.42,27.04l12.54,21.18c13.78-4.26,30.58-17.62,42.33-34.31
	C3898.26-4174.99,3893.49-4200.16,3875.89-4212.54z M2969.04-5003.11l-66.83-110.01l47.63-28.94c29.38-17.84,57.04-13.78,72.03,10.9
	c10.02,16.51,9.04,33.66-1.55,48.5l46.17,20.36l-27.36,16.62l-39.83-17.76l-1.27,0.76l-22.15,13.47l18.61,30.66L2969.04-5003.11z
	 M2963.56-5069.5l20.75-12.6c15.57-9.46,19.04-21.45,11.77-33.41c-7.34-12.1-19.5-14.41-35.07-4.94l-20.73,12.6L2963.56-5069.5z
	 M3128.91-5155.05c-6.55-37.69,17.97-70.69,58.01-77.64c39.88-6.92,74.23,15.68,80.79,53.55c6.57,37.87-18.15,70.72-58.03,77.64
	C3169.64-5094.55,3135.44-5117.36,3128.91-5155.05z M3158.63-5160.21c4.19,24.11,24.07,37.65,46.72,33.72
	c22.65-3.93,36.82-23.39,32.65-47.48c-4.19-24.11-24.09-37.63-46.72-33.7C3168.62-5203.75,3154.44-5184.31,3158.63-5160.21z
	 M3372.57-5176.98c8.13-37.37,43.27-58.71,82.99-50.06c39.53,8.6,62.83,42.46,54.66,80.02s-43.44,58.68-82.97,50.06
	C3387.53-5105.6,3364.45-5139.59,3372.57-5176.98z M3432.64-5121.75c22.45,4.89,42.91-7.78,48.11-31.69
	c5.18-23.89-8.13-43.92-30.6-48.81s-42.91,7.78-48.11,31.69C3396.84-5146.66,3410.18-5126.64,3432.64-5121.75z M3622.4-5016.11
	l56.08-88.14l34.75,22.12l13.04-20.49l-94.67-60.21l-13.02,20.48l34.75,22.12l-56.06,88.14L3622.4-5016.11z"/>
<g>
	<g>
		<path class="st1" d="M310.56,1185.15h-38.2l-49.64-56.94h-30.9v56.94H159.7v-170.57c27.01,0,54.02,0.24,81.03,0.24
			c40.15,0.24,61.32,27.01,61.32,56.45c0,23.36-10.71,46.96-43.07,53.53l51.58,58.16V1185.15z M191.81,1044.75v54.5h48.91
			c20.44,0,29.2-13.63,29.2-27.25c0-13.63-9-27.25-29.2-27.25H191.81z"/>
		<path class="st1" d="M440.73,1125.29c0,34.55-23.6,62.53-62.53,62.53s-62.29-27.98-62.29-62.53c0-34.31,23.85-62.53,62.05-62.53
			S440.73,1090.98,440.73,1125.29z M345.59,1125.29c0,18.25,10.95,35.28,32.61,35.28c21.66,0,32.61-17.03,32.61-35.28
			c0-18.01-12.65-35.52-32.61-35.52C356.78,1089.77,345.59,1107.29,345.59,1125.29z"/>
		<path class="st1" d="M580.4,1125.29c0,34.55-23.6,62.53-62.53,62.53s-62.29-27.98-62.29-62.53c0-34.31,23.85-62.53,62.05-62.53
			C555.82,1062.76,580.4,1090.98,580.4,1125.29z M485.26,1125.29c0,18.25,10.95,35.28,32.61,35.28s32.61-17.03,32.61-35.28
			c0-18.01-12.65-35.52-32.61-35.52C496.45,1089.77,485.26,1107.29,485.26,1125.29z"/>
		<path class="st1" d="M640.25,1031.37v34.07h33.09v25.55h-33.34v51.83c0,11.44,6.33,17.03,15.57,17.03c4.62,0,9.98-1.46,14.36-3.65
			l8.27,25.31c-8.52,3.41-15.57,4.87-24.58,5.11c-26.04,0.97-43.07-13.87-43.07-43.8v-51.83h-22.39v-25.55h22.39v-30.9
			L640.25,1031.37z"/>
		<path class="st1" d="M896.71,1098.53c0.73,43.07-25.55,86.62-85.16,86.62c-20.93,0-45.99,0-66.91,0v-170.33
			c20.93,0,45.99,0,66.91,0C869.95,1014.82,895.98,1056.43,896.71,1098.53z M776.51,1154.25h35.04c38.69,0,54.02-28.23,53.29-55.97
			c-0.73-26.52-16.3-53.04-53.29-53.04h-35.04V1154.25z"/>
		<path class="st1" d="M1041.48,1065.19l-73.24,170.08h-32.61l22.39-52.07l-47.93-118.01h34.55l18.25,51.83l11.44,33.82l12.41-33.09
			l21.9-52.56H1041.48z"/>
		<path class="st1" d="M1145.38,1185.15v-62.78c0-18.25-9.98-32.12-28.96-32.12c-18.25,0-30.66,15.33-30.66,33.58v61.32h-29.44
			v-120.2h26.52l1.95,16.3c12.17-11.92,24.33-18.01,39.42-18.01c28.23,0,50.86,21.17,50.86,58.88v63.02H1145.38z"/>
		<path class="st1" d="M1295.75,1065.19h28.47v119.96h-27.98l-1.46-17.52c-6.81,14.11-25.55,20.93-38.93,21.17
			c-35.52,0.24-61.8-21.66-61.8-63.75c0-41.36,27.49-63.02,62.53-62.78c16.06,0,31.39,7.54,38.2,19.47L1295.75,1065.19z
			 M1223.73,1125.05c0,22.87,15.82,36.5,35.53,36.5c46.72,0,46.72-72.75,0-72.75C1239.54,1088.79,1223.73,1102.18,1223.73,1125.05z"
			/>
		<path class="st1" d="M1429.09,1185.15v-64.24c0-15.82-8.27-30.17-24.57-30.17c-16.06,0-25.55,14.36-25.55,30.17v64.24h-29.69
			v-120.2h27.5l2.19,14.6c6.33-12.17,20.2-16.55,31.63-16.55c14.36,0,28.71,5.84,35.52,22.39c10.71-17.03,24.57-21.9,40.15-21.9
			c34.07,0,50.86,20.93,50.86,56.94v64.72h-29.69v-64.72c0-15.82-6.57-29.2-22.63-29.2c-16.06,0-26.04,13.87-26.04,29.69v64.24
			H1429.09z"/>
		<path class="st1" d="M1599.66,1031.37c0,23.12-35.04,23.12-35.04,0C1564.62,1008.25,1599.66,1008.25,1599.66,1031.37z
			 M1567.3,1064.7v120.45h29.69V1064.7H1567.3z"/>
		<path class="st1" d="M1726.67,1169.82c-13.87,13.63-28.47,18.98-46.23,18.98c-34.79,0-63.75-20.93-63.75-63.51
			c0-42.58,28.96-63.51,63.75-63.51c17.03,0,30.17,4.87,43.31,17.76l-18.74,19.71c-7.06-6.33-15.82-9.49-24.09-9.49
			c-19.95,0-34.55,14.6-34.55,35.52c0,22.87,15.57,35.04,34.06,35.04c9.49,0,18.98-2.68,26.28-9.98L1726.67,1169.82z"/>
		<path class="st1" d="M1818.16,1097.07c-8.52-8.03-18.25-10.71-29.68-10.71c-14.11,0-21.9,4.38-21.9,11.92
			c0,7.79,7.06,12.17,22.39,13.14c22.63,1.46,51.34,6.57,51.34,38.45c0,21.17-17.28,39.42-51.59,39.42
			c-18.98,0-37.96-3.16-55.48-21.41l14.6-21.17c8.52,9.49,27.98,16.54,41.36,16.79c11.19,0.24,21.66-5.6,21.66-14.36
			c0-8.27-6.81-11.68-23.85-12.65c-22.63-1.7-49.64-9.98-49.64-37.23c0-27.74,28.71-37.47,50.61-37.47
			c18.73,0,32.85,3.65,46.72,15.81L1818.16,1097.07z"/>
		<path class="st2" d="M1052.68,1292.18h-14.04v-59.54h14.04V1292.18z"/>
		<path class="st2" d="M1074.04,1245.76v-13.11h46.51v13.11h-16.25v46.42h-14.04v-46.42H1074.04z"/>
		<path class="st2" d="M1196.87,1292.95c-7.74,0-14.94-3.24-21.58-9.72l2.98-5.36c0.97-1.7,2.39-2.7,4.26-3
			c1.87-0.31,3.72,0.1,5.55,1.23c3.66,2.39,6.59,3.6,8.79,3.63c2.39,0.03,4.28-0.44,5.65-1.41c1.37-0.97,2.06-2.46,2.06-4.48
			c0-1.26-0.62-2.41-1.86-3.45c-1.24-1.03-3.16-2.01-5.77-2.93c-6.19-2.1-10.76-4.64-13.72-7.62c-2.96-2.98-4.44-6.55-4.44-10.69
			c0-5.14,1.77-9.3,5.32-12.48c3.55-3.19,8.19-4.78,13.92-4.78c3.15,0,6.33,0.58,9.56,1.73c3.23,1.16,5.86,2.82,7.91,5l-2.7,4.76
			c-0.75,1.26-1.68,2.22-2.78,2.88c-1.1,0.66-2.18,0.98-3.25,0.95c-1.06-0.03-2.12-0.23-3.17-0.6c-1.83-0.99-3.69-1.49-5.57-1.49
			c-1.56,0-2.82,0.36-3.77,1.09c-0.96,0.73-1.43,1.7-1.43,2.91c0,1.1,0.65,2.08,1.94,2.94c1.29,0.86,3.31,1.68,6.05,2.46
			c11.86,3.15,17.79,9.57,17.79,19.28c0,5.73-2,10.35-5.99,13.88C1208.63,1291.19,1203.38,1292.95,1196.87,1292.95z"/>
		<path class="st2" d="M1240.32,1274.58c-1.57-3.78-2.36-7.83-2.36-12.14c0-4.31,0.79-8.37,2.36-12.16c1.57-3.79,3.71-7.02,6.41-9.7
			c2.7-2.67,5.96-4.79,9.78-6.35c3.82-1.56,7.9-2.34,12.26-2.34c5.83,0,11.1,1.32,15.81,3.97c4.71,2.65,8.4,6.31,11.07,10.97
			c2.67,4.67,4.01,9.88,4.01,15.63c0,4.33-0.79,8.38-2.36,12.14c-1.57,3.77-3.73,7-6.45,9.7c-2.73,2.7-6,4.82-9.82,6.35
			c-3.82,1.53-7.91,2.3-12.26,2.3c-4.36,0-8.44-0.77-12.26-2.3c-3.82-1.53-7.08-3.65-9.78-6.35
			C1244.03,1281.6,1241.89,1278.36,1240.32,1274.58z M1256.82,1250.15c-3.22,3.28-4.82,7.38-4.82,12.28c0,4.91,1.6,9,4.82,12.28
			c3.21,3.28,7.21,4.92,12,4.92c4.81,0,8.82-1.64,12.02-4.92c3.2-3.28,4.8-7.37,4.8-12.26c0-4.92-1.6-9.02-4.8-12.3
			c-3.2-3.28-7.21-4.92-12.02-4.92C1264.03,1245.23,1260.03,1246.88,1256.82,1250.15z"/>
		<path class="st2" d="M1322.81,1292.18v-59.54h14.04v46.67h22.43v12.87H1322.81z"/>
		<path class="st2" d="M1394.39,1268.51c0,3.12,1,5.63,3.01,7.54c2,1.91,4.63,2.86,7.88,2.86c3.28,0,5.93-0.95,7.95-2.86
			c2.02-1.91,3.03-4.42,3.03-7.54v-35.86h14.04v35.86c0,7.26-2.31,13.15-6.92,17.67s-10.64,6.78-18.09,6.78
			c-7.42,0-13.43-2.25-18.03-6.76c-4.6-4.5-6.9-10.4-6.9-17.69v-35.86h14.04V1268.51z"/>
		<path class="st2" d="M1450.08,1245.76v-13.11h46.51v13.11h-16.25v46.42h-14.04v-46.42H1450.08z"/>
		<path class="st2" d="M1531.95,1292.18h-14.04v-59.54h14.04V1292.18z"/>
		<path class="st2" d="M1557.49,1274.58c-1.57-3.78-2.36-7.83-2.36-12.14c0-4.31,0.79-8.37,2.36-12.16c1.57-3.79,3.71-7.02,6.41-9.7
			c2.7-2.67,5.96-4.79,9.78-6.35c3.82-1.56,7.9-2.34,12.26-2.34c5.83,0,11.1,1.32,15.81,3.97c4.71,2.65,8.4,6.31,11.07,10.97
			c2.67,4.67,4.01,9.88,4.01,15.63c0,4.33-0.79,8.38-2.36,12.14c-1.57,3.77-3.73,7-6.45,9.7c-2.73,2.7-6,4.82-9.82,6.35
			c-3.82,1.53-7.91,2.3-12.26,2.3c-4.36,0-8.44-0.77-12.26-2.3c-3.82-1.53-7.08-3.65-9.78-6.35
			C1561.2,1281.6,1559.06,1278.36,1557.49,1274.58z M1573.99,1250.15c-3.22,3.28-4.82,7.38-4.82,12.28c0,4.91,1.6,9,4.82,12.28
			c3.21,3.28,7.21,4.92,12,4.92c4.81,0,8.82-1.64,12.02-4.92c3.2-3.28,4.8-7.37,4.8-12.26c0-4.92-1.6-9.02-4.8-12.3
			c-3.2-3.28-7.21-4.92-12.02-4.92C1581.2,1245.23,1577.2,1246.88,1573.99,1250.15z"/>
		<path class="st2" d="M1678.66,1232.65h13.96v59.54h-10.29c-1.8,0-3.43-1.03-4.88-3.11l-24.89-36.54h-0.2
			c1.16,2.85,1.71,5.8,1.65,8.83l-0.08,30.82h-13.96v-59.54l11.25,0.04c1.51,0,2.72,0.32,3.63,0.95c0.91,0.63,1.92,1.75,3.03,3.37
			l22.3,32.95h0.2c-1.21-3.01-1.82-6.12-1.82-9.32L1678.66,1232.65z"/>
		<path class="st2" d="M1735.68,1292.95c-7.74,0-14.94-3.24-21.58-9.72l2.98-5.36c0.97-1.7,2.39-2.7,4.26-3
			c1.87-0.31,3.72,0.1,5.55,1.23c3.66,2.39,6.59,3.6,8.79,3.63c2.39,0.03,4.28-0.44,5.65-1.41c1.37-0.97,2.06-2.46,2.06-4.48
			c0-1.26-0.62-2.41-1.86-3.45c-1.24-1.03-3.16-2.01-5.77-2.93c-6.19-2.1-10.76-4.64-13.72-7.62c-2.96-2.98-4.44-6.55-4.44-10.69
			c0-5.14,1.77-9.3,5.32-12.48c3.55-3.19,8.19-4.78,13.92-4.78c3.15,0,6.33,0.58,9.56,1.73c3.23,1.16,5.86,2.82,7.91,5l-2.7,4.76
			c-0.75,1.26-1.68,2.22-2.78,2.88c-1.1,0.66-2.18,0.98-3.25,0.95c-1.06-0.03-2.12-0.23-3.17-0.6c-1.83-0.99-3.69-1.49-5.57-1.49
			c-1.56,0-2.82,0.36-3.77,1.09c-0.96,0.73-1.43,1.7-1.43,2.91c0,1.1,0.65,2.08,1.94,2.94c1.29,0.86,3.31,1.68,6.05,2.46
			c11.86,3.15,17.79,9.57,17.79,19.28c0,5.73-2,10.35-5.99,13.88C1747.44,1291.19,1742.19,1292.95,1735.68,1292.95z"/>
	</g>
	<g>
		<path class="st1" d="M1419.43,595.77c-0.58-0.27-1.13-0.54-1.71-0.79c-0.9,2.25-2.02,4.4-3.32,6.47c0.54,0.12,1.07,0.25,1.61,0.38
			c11.79,2.67,23.27,6.22,34.08,10.9C1439.78,606.04,1429.59,600.43,1419.43,595.77z"/>
		<path class="st2" d="M1347.65,552.45c-6.59,5.8-10.23,13.38-10.89,21.14c-0.4,4.47,0.21,9,1.8,13.29
			c-2.98,2.17-5.97,4.28-8.98,6.32c-5.16,3.63-10.42,7.07-15.7,10.42c-44.52,28.03-93.59,47.59-144.57,58.69
			c-13.78,3.01-27.7,5.39-41.72,7.18c-8.26,1.06-16.51,1.9-24.8,2.48c-0.98,0.1-1.96,0.17-2.94,0.23h-0.15
			c-6.97,0.46-13.96,0.79-20.95,0.96c-2.88,0.06-5.74,0.1-8.6,0.12c-8.27,0.08-16.53-0.1-24.79-0.46
			c-10.9-0.48-21.77-1.34-32.64-2.57c-8.29-0.92-16.57-2.05-24.8-3.46c-7.97-1.31-15.9-2.82-23.79-4.53
			c-3.76-0.83-7.55-1.69-11.31-2.59c-8.31-1.98-16.57-4.15-24.79-6.57c-12.65-3.71-25.15-7.93-37.4-12.79
			c-8.39-3.3-16.66-6.93-24.79-10.87c-3.13-1.5-6.22-3.07-9.29-4.67c-2.09-1.08-4.17-2.19-6.22-3.32
			c-13.11-7.22-26.24-15.63-38.36-25.36c-18.22-14.57-34.14-32.02-44.23-52.55c-1.17-2.44-2.27-4.88-3.28-7.39
			c-24.36-59.94,16.22-120.61,72.72-141.28c4.84-1.79,9.79-3.28,14.8-4.57c5.82-1.52,11.71-2.73,17.68-3.63
			c2.96-0.46,7.37-0.73,10.98-1.04c0.25,0.19,0.52,0.36,0.79,0.54c3.57,2.69,7.16,5.16,10.73,7.41c3.24,2.05,6.47,3.94,9.7,5.66
			c20.66,11.04,40.61,15.59,55.56,16.88c-12.08-30.72-42.87-56.35-42.87-56.35c36.09,6.3,53.28,50.95,55.31,56.71
			c0.4,0,0.77-0.04,1.09-0.06c0,0,24.92,103.98-27.38,152.26c-5.03,4.24-10.64,8.33-16.88,12.31
			c-25.36,16.03-52.41,20.7-80.92,20.02c3.86,2.38,7.83,4.7,11.96,6.97c1.92,1.08,3.88,2.11,5.84,3.11
			c2.48,1.29,5.66,2.94,8.89,4.47c5.99,2.92,12.08,5.64,18.16,8.18c-0.02-0.94-0.15-1.82-0.38-2.73
			c12.98-3.3,25.61-7.79,37.78-13.57v29.6c1.44,0.44,2.88,0.86,4.32,1.29c6.64,1.96,13.36,3.76,20.47,5.51v-46.92
			c0-0.84-0.08-1.65-0.23-2.46l35.33-18.64v75.35l24.8,3.59v-79.19c9.2,3.97,21.69,9.33,32.68,14.05c0,0.25-0.04,0.5-0.04,0.77
			v67.02c0.23,0.02,0.44,0.02,0.67,0.04c6.97,0.31,13.78,0.46,20.25,0.46c1.23,0,2.48,0,3.72-0.02h0.13V600.3
			c5.38,6.6,21.04,11,32.64,14.02v42.26c7.35-0.54,14.84-1.31,22.87-2.32c0.65-0.08,1.29-0.17,1.94-0.25v-33.66
			c53.64,9.6,106.42-8.26,159.75-18.81c6.2-3.47,12.33-7.1,18.35-10.9c6.09-3.88,10.75-6.97,15.05-10c0,0,0.56-0.36,0.71-0.48
			c-0.13-1.59-0.19-3.21-0.15-4.82c-92.94,0.29-177.05,44.68-248.05-0.27c-8.06-5.07-15.11-10.48-21.23-16.03
			c-39.89-47.54-23.19-133.89-20.43-146.7c0,0,16.93-50.59,55.54-57.31c0,0-31.64,26.34-43.35,57.62
			c41.87-0.61,109.09-18.09,133.32-108.43c0,0,0.12-0.46,0.25-1.04c-0.63-0.29-1.04-0.27-1.04-0.27c-7.37-2.27-14.4-3.92-21.18-5.24
			c-0.84-0.21-1.71-0.38-2.59-0.56c-0.21-0.04-0.4-0.08-0.61-0.13c-108.93-22.23-154.68,93.23-154.68,93.23
			c-23.38-70.4-69.29-91.23-108.22-95.01c-0.63-0.06-1.27-0.12-1.92-0.19c-1.48-0.12-2.94-0.19-4.4-0.27
			c-2.9-0.17-5.89-0.23-8.95-0.21c-0.83,0-1.65,0-2.48,0.02c-1.38,0.02-2.8,0.08-4.22,0.15c-25.98,1.31-44.98,8.49-45,8.49
			c0.08,0.4,0.25,1.04,0.25,1.04c6.34,16.36,13.8,30.39,21.98,42.47c0.96,1.42,1.94,2.8,2.92,4.17c2.32,3.19,4.67,6.26,7.08,9.16
			c-4.59,1.06-9.16,2.3-13.67,3.69c-33.98,10.52-66.68,31.24-87.66,60.36c-12.58,17.37-20.83,37.92-23.77,59.15
			c-0.4,2.84-0.69,5.66-0.9,8.5c-0.25,3.67-0.35,7.33-0.27,11.02c0.4,19.97,5.57,38.22,14.09,54.81
			c5.63,10.96,12.75,21.2,20.93,30.72c0.73,0.84,1.46,1.67,2.21,2.5c11.12,12.48,24.06,23.69,37.94,33.66
			c1.13,0.83,2.27,1.65,3.44,2.46c18.53,12.94,38.53,23.75,57.77,32.43c0.48,0.21,0.98,0.44,1.46,0.65
			c8.14,3.65,16.41,7.03,24.79,10.14c12.27,4.57,24.75,8.56,37.4,12.02c8.2,2.28,16.45,4.3,24.79,6.11
			c11.62,2.53,23.31,4.65,35.1,6.35c1.19,0.17,2.38,0.35,3.59,0.48c7.05,0.98,14.13,1.8,21.21,2.5c10.87,1.08,21.75,1.79,32.64,2.19
			c8.26,0.33,16.55,0.46,24.79,0.4c2.27,0,4.55-0.02,6.83-0.06c8.62-0.15,17.22-0.52,25.8-1.09c8.29-0.58,16.55-1.34,24.8-2.32
			c47.63-5.61,94.4-18.01,138.36-37.01c3.34-1.44,6.66-2.92,9.98-4.43c3.53-1.59,7.08-3.28,10.58-5.01
			c3.46-1.69,6.89-3.42,10.31-5.22c17.3-8.97,34.06-19.05,50.15-30.18c3.9-2.69,7.78-5.41,11.62-8.26
			c12.77,4.93,28.13,2.8,38.8-6.53c1.17-1.04,2.27-2.13,3.24-3.28c2.34-2.69,4.15-5.61,5.41-8.7c4.8-11.52,2.3-25.09-7.62-34.58
			C1384.74,540.34,1361.93,539.88,1347.65,552.45z M1390.06,582.58c-0.98,2.27-2.5,4.34-4.51,6.11c-3.42,3.01-7.74,4.63-12.15,4.8
			c-1.57,0.1-3.17-0.02-4.74-0.35c-3.59-0.67-7.03-2.34-9.77-4.95c-3.82-3.65-5.53-8.45-5.18-13.11c0.29-4.17,2.21-8.24,5.72-11.33
			c7.55-6.6,19.51-6.39,26.74,0.5C1391.4,569.25,1392.69,576.49,1390.06,582.58z"/>
		<path class="st1" d="M935.38,736.15c-2.5-0.6-4.93-1.21-7.33-1.84v54.72h-68.46c-6.85,0-12.4,5.55-12.4,12.38v46.02
			c-11.48,5.39-19.47,17.03-19.47,30.55c0,18.62,15.15,33.75,33.77,33.75c18.58,0,33.71-15.13,33.71-33.75
			c0-14.94-9.75-27.63-23.23-32.06v-32.12h68.46c6.85,0,12.4-5.55,12.4-12.38v-61.3c-1.21-0.23-2.4-0.52-3.61-0.77
			C944.59,738.3,939.97,737.24,935.38,736.15z M873.79,877.97c0,6.8-5.53,12.33-12.31,12.33c-6.82,0-12.34-5.53-12.34-12.33
			c0-6.78,5.53-12.33,12.34-12.33C868.26,865.64,873.79,871.19,873.79,877.97z"/>
		<path class="st1" d="M1012.73,914.9V749.34c-0.52-0.06-1.04-0.1-1.54-0.13c-9.16-0.84-15.57-1.65-18.58-2.05
			c-0.5-0.06-1.46-0.17-1.46-0.17c-0.21-0.06-1.77-0.29-3.23-0.5v167.51c-13.09,4.65-22.52,17.14-22.52,31.79
			c0,18.64,15.15,33.75,33.75,33.75c18.62,0,33.77-15.11,33.77-33.75C1032.93,931.99,1024.59,920.13,1012.73,914.9z M999.16,958.1
			c-6.78,0-12.33-5.51-12.33-12.33c0-6.8,5.55-12.31,12.33-12.31c6.8,0,12.33,5.51,12.33,12.31
			C1011.48,952.59,1005.95,958.1,999.16,958.1z"/>
		<path class="st1" d="M1150.46,896.28c-14.19,0-26.36,8.81-31.33,21.25c-0.84-0.17-1.73-0.31-2.63-0.31h-46.35v-165.4h-1.34
			c-7.6,0-15.24-0.13-23.44-0.46v178.26c0,6.85,5.53,12.4,12.38,12.4h58.75c0.83,0,1.61-0.08,2.36-0.21
			c4.8,12.79,17.14,21.98,31.6,21.98c18.58,0,33.75-15.17,33.75-33.77C1184.21,911.45,1169.04,896.28,1150.46,896.28z
			 M1150.46,942.36c-6.82,0-12.33-5.53-12.33-12.33c0-6.8,5.51-12.31,12.33-12.31c6.78,0,12.33,5.51,12.33,12.31
			C1162.79,936.83,1157.24,942.36,1150.46,942.36z"/>
		<path class="st1" d="M1289.86,751.72c-14.03,0-26.11,8.62-31.2,20.89h-131.07v-24c-7.41,0.88-15.42,1.61-23.69,2.13
			c-0.36,0.02-0.73,0.04-1.11,0.06v34.19c0,6.83,5.55,12.38,12.42,12.38h143.13c4.84,12.73,17.11,21.83,31.52,21.83
			c18.64,0,33.77-15.15,33.77-33.75C1323.63,766.84,1308.5,751.72,1289.86,751.72z M1289.86,797.79c-6.78,0-12.31-5.55-12.31-12.34
			s5.53-12.33,12.31-12.33c6.8,0,12.34,5.53,12.34,12.33S1296.66,797.79,1289.86,797.79z"/>
		<path class="st1" d="M890.64,755.33v-32.29c-1.92-0.65-3.82-1.32-5.68-2c-6.37-2.25-12.79-4.7-19.1-7.28v29.18H764.43
			c-5.09-12.25-17.16-20.89-31.22-20.89c-18.6,0-33.73,15.13-33.73,33.75c0,18.6,15.13,33.73,33.73,33.73
			c14.42,0,26.72-9.08,31.54-21.81h113.5C885.1,767.73,890.64,762.16,890.64,755.33z M733.22,768.11c-6.8,0-12.31-5.51-12.31-12.31
			c0-6.82,5.51-12.34,12.31-12.34c6.8,0,12.34,5.53,12.34,12.34C745.56,762.6,740.01,768.11,733.22,768.11z"/>
		<path class="st1" d="M713.74,592.86c-1.05-1.98-2.02-3.94-2.89-5.78c-0.7-1.43-1.35-2.87-2-4.32
			c-50.36-4.64-103.56-0.21-158.93,35.92c18.3-11.95,48.61-14.94,69.45-17.45c37.06-4.41,71.46,2.32,105.83,10.14
			C720.86,605.32,717.05,599.12,713.74,592.86z"/>
		<path class="st2" d="M992.62,344.03l4.43-91.04l0.08-2.11l0.13,2.11l4.45,91.21c20.55-19.01,91.08-95.95-3.71-184.01
			c0,0-0.11-0.19-0.74-0.74c-0.55,0.38-0.76,0.74-0.76,0.74C901.99,248.02,971.86,324.75,992.62,344.03z"/>
		<path class="st1" d="M992.51,730.12c0,0,0.02,0,0.04,0c0.17,0.06,0.96,0.15,2.28,0.33c3.17,0.42,9.39,1.17,17.89,1.96
			c8.74,0.81,19.87,1.61,32.64,2.11c7.74,0.29,16.03,0.48,24.79,0.46c10.41-0.02,21.39-0.35,32.64-1.06
			c8.16-0.52,16.47-1.27,24.8-2.3c2.04-0.23,4.09-0.5,6.12-0.77c3.34-0.5,6.64-1,9.95-1.54c2.61-0.4,5.2-0.86,7.83-1.36
			c0.06,0,0.13-0.02,0.21-0.04c20.96-3.76,41.58-8.93,61.65-15.46c9.22-2.96,18.3-6.22,27.22-9.77h0.08
			c13.02-5.16,25.73-10.92,38.11-17.24c0.17,0.35,0.4,0.65,0.61,1.04c0.69,1.13,1.5,2.21,2.52,3.17c6.89,6.6,18.39,6.83,25.55,0.52
			c5.76-5.05,7.07-12.67,3.9-18.93v-0.02c-0.81-1.63-1.92-3.13-3.32-4.51c-2.25-2.13-4.9-3.55-7.81-4.34
			c-0.67-0.19-1.34-0.33-2.02-0.42c-0.21-0.06-0.42-0.08-0.63-0.1c-0.36-0.02-0.71-0.02-1.08-0.04c-0.27-0.02-0.52-0.04-0.81-0.02
			c-4.74-0.23-9.56,1.17-13.25,4.4c-1.09,0.98-1.96,2.05-2.71,3.19c-0.13,0.19-0.27,0.38-0.4,0.6c2.32-1.08,4.65-2.13,6.93-3.23
			c-2.28,1.09-4.57,2.15-6.87,3.24c-0.17,0.23-0.35,0.48-0.5,0.73c-0.13,0.21-0.25,0.42-0.35,0.63c-0.35,0.6-0.58,1.23-0.83,1.86
			c-0.77,2.3-0.98,4.68-0.65,7.07c-9.66,3.86-19.41,7.45-29.26,10.77c-27.63,9.33-56,16.43-84.72,21.21
			c-11.75,1.98-23.59,3.59-35.48,4.78c-2.02,0.21-4.03,0.38-6.05,0.56c-2.28,0.19-4.51,0.38-6.8,0.56
			c-3.01,0.19-6.05,0.27-9.12,0.42c-0.96,0.04-1.88,0.1-2.84,0.12c-8.03,0.4-16.09,0.6-24.19,0.6h-4.34
			c-1.36-0.02-2.75-0.02-4.11-0.06c-7.31-0.12-14.63-0.38-21.96-0.81l-0.69-0.06c-0.71-0.04-1.42-0.12-2.13-0.17
			c-2.04-0.15-4.07-0.33-6.12-0.44c-3.46-0.27-6.93-0.46-10.41-0.84c-2.19-0.19-4.42-0.44-6.6-0.69c-3.17-0.35-6.34-0.69-9.5-1.08
			c-8.29-1.02-16.57-2.23-24.8-3.61c-10.08-1.69-20.1-3.65-30.1-5.86c-0.1,0-0.21-0.04-0.31-0.1c-1.57-0.35-3.13-0.69-4.68-1.08
			c-2.84-0.65-5.7-1.31-8.54-2.02c-5.43-1.31-10.85-2.71-16.24-4.17c-12.65-3.46-25.15-7.43-37.4-11.9c-0.02,0-0.02,0-0.02,0
			c-8.37-3.05-16.63-6.35-24.77-9.91c-20.2-8.81-39.53-19.16-57.62-31.14c-2.71-1.82-5.41-3.67-8.06-5.57
			c-0.15-0.1-0.27-0.17-0.38-0.25c-1.52-1.08-3.03-2.17-4.53-3.26c-1.15-0.88-2.34-1.75-3.49-2.63c-3.07-2.28-6.09-4.61-9.06-6.99
			c-1-0.79-1.98-1.57-2.96-2.4c-0.15-0.13-0.29-0.23-0.42-0.36c-0.44-0.36-0.88-0.71-1.32-1.09l-0.02-0.02
			c-6.91-5.8-13.46-11.9-19.51-18.43c-0.31-0.35-0.63-0.71-0.96-1.06c-4.17-4.53-8.06-9.23-11.62-14.13
			c-0.44-0.61-0.88-1.23-1.31-1.86c-2.78-3.92-5.34-7.97-7.66-12.15c-13.13-22.98-19.83-49.05-20.95-75.55l-0.6-0.02l-1.38-0.02
			h-2.42l-0.5-0.06c-0.1,0.75-0.12,1.5-0.19,2.27c-1.69,26.38,3.36,53.43,15.21,78.14c0.81,1.71,1.67,3.42,2.55,5.07
			c5.7,10.85,13,21.08,21.2,30.43c0.6,0.67,1.19,1.34,1.8,2c8.97,10,19.03,19.14,29.59,27.57c22.35,18.37,47.73,33.39,74.3,45.92
			c3.42,1.57,6.85,3.11,10.31,4.59c8.16,3.47,16.41,6.7,24.79,9.66c12.29,4.42,24.79,8.27,37.4,11.69c3.72,1,7.49,1.98,11.23,2.9
			c4.51,1.08,9.02,2.11,13.55,3.11c11.6,2.52,23.29,4.74,35.1,6.57C989.44,729.66,990.98,729.89,992.51,730.12z M1288.34,671.91
			c3.8-3.36,9.83-3.24,13.5,0.23c0.84,0.88,1.54,1.84,1.96,2.84c0,0,0,0,0,0.04c1.34,3.19,0.56,6.95-2.27,9.46
			c-3.78,3.32-9.81,3.21-13.44-0.27c-0.42-0.4-0.77-0.81-1.11-1.23C1284.54,679.51,1285,674.81,1288.34,671.91z"/>
	</g>
</g>
</svg>
