<svg xmlns="http://www.w3.org/2000/svg" viewBox="0 0 1407.59 427.15"><defs><style>.cls-1{fill:#683214;}.cls-2{fill:#12af33;}</style></defs><g id="Layer_2" data-name="Layer 2"><g id="Layer_2-2" data-name="Layer 2"><path class="cls-1" d="M610.79,282.14h-19.9L565,252.48H548.94v29.66H532.21V193.29c14.07,0,28.13.13,42.2.13,20.91.13,31.94,14.07,31.94,29.4,0,12.17-5.58,24.46-22.43,27.89L610.79,281ZM548.94,209V237.4h25.47c10.65,0,15.21-7.1,15.21-14.2S584.93,209,574.41,209Z"/><path class="cls-1" d="M678.59,251c0,18-12.29,32.57-32.57,32.57S613.57,269,613.57,251s12.42-32.57,32.32-32.57S678.59,233.09,678.59,251ZM629,251c0,9.5,5.7,18.38,17,18.38s17-8.88,17-18.38-6.59-18.5-17-18.5C634.87,232.46,629,241.58,629,251Z"/><path class="cls-1" d="M751.34,251c0,18-12.3,32.57-32.57,32.57S686.32,269,686.32,251s12.42-32.57,32.32-32.57S751.34,233.09,751.34,251Zm-49.56,0c0,9.5,5.71,18.38,17,18.38s17-8.88,17-18.38-6.59-18.5-17-18.5C707.61,232.46,701.78,241.58,701.78,251Z"/><path class="cls-1" d="M782.52,202v17.74h17.23v13.31H782.39v27c0,6,3.29,8.88,8.11,8.88a17.54,17.54,0,0,0,7.48-1.91l4.31,13.19a34.7,34.7,0,0,1-12.8,2.66c-13.56.5-22.44-7.23-22.44-22.82v-27H755.39V219.78h11.66v-16.1Z"/><path class="cls-1" d="M916.1,237c.38,22.43-13.31,45.12-44.36,45.12H836.88V193.42h34.86C902.16,193.42,915.72,215.09,916.1,237Zm-62.61,29h18.25c20.15,0,28.13-14.7,27.75-29.15-.38-13.81-8.49-27.63-27.75-27.63H853.49Z"/><path class="cls-1" d="M991.5,219.65l-38.14,88.6h-17L948,281.12l-25-61.47h18l9.51,27,5.95,17.62L963,247l11.4-27.38Z"/><path class="cls-1" d="M1045.62,282.14v-32.7c0-9.51-5.2-16.73-15.08-16.73-9.51,0-16,8-16,17.49v31.94H999.23V219.53h13.82l1,8.49c6.34-6.21,12.68-9.38,20.53-9.38,14.71,0,26.49,11,26.49,30.67v32.83Z"/><path class="cls-1" d="M1124,219.65h14.82v62.49H1124.2l-.76-9.13c-3.55,7.35-13.31,10.9-20.28,11-18.5.12-32.19-11.28-32.19-33.21,0-21.54,14.32-32.82,32.57-32.7,8.36,0,16.35,3.93,19.9,10.14Zm-37.52,31.18c0,11.92,8.24,19,18.5,19,24.34,0,24.34-37.89,0-37.89C1094.67,232,1086.43,238.92,1086.43,250.83Z"/><path class="cls-1" d="M1193.4,282.14V248.68c0-8.24-4.31-15.72-12.8-15.72s-13.31,7.48-13.31,15.72v33.46h-15.46V219.53h14.32l1.14,7.6c3.29-6.34,10.52-8.62,16.48-8.62,7.47,0,15,3.05,18.5,11.66,5.58-8.87,12.8-11.4,20.91-11.4,17.74,0,26.49,10.9,26.49,29.65v33.72h-15.46V248.42c0-8.23-3.42-15.2-11.79-15.2s-13.56,7.22-13.56,15.46v33.46Z"/><path class="cls-1" d="M1282.24,202c0,12-18.25,12-18.25,0S1282.24,190,1282.24,202Zm-16.85,17.36v62.74h15.46V219.4Z"/><path class="cls-1" d="M1348.4,274.15c-7.22,7.1-14.83,9.89-24.08,9.89-18.12,0-33.21-10.9-33.21-33.08s15.09-33.08,33.21-33.08c8.87,0,15.72,2.53,22.56,9.25l-9.76,10.27a19,19,0,0,0-12.55-4.94c-10.39,0-18,7.6-18,18.5,0,11.91,8.11,18.25,17.74,18.25,4.94,0,9.88-1.39,13.69-5.2Z"/><path class="cls-1" d="M1396.05,236.26c-4.43-4.19-9.5-5.58-15.46-5.58-7.35,0-11.41,2.28-11.41,6.21s3.68,6.34,11.66,6.84c11.79.77,26.75,3.43,26.75,20,0,11-9,20.53-26.87,20.53-9.89,0-19.77-1.65-28.9-11.15l7.6-11c4.44,4.94,14.58,8.62,21.55,8.75,5.83.12,11.28-2.92,11.28-7.48,0-4.31-3.55-6.08-12.42-6.59-11.79-.89-25.86-5.2-25.86-19.39,0-14.45,15-19.52,26.37-19.52,9.76,0,17.11,1.9,24.33,8.24Z"/><path class="cls-2" d="M997.33,337.89H990v-31h7.31Z"/><path class="cls-2" d="M1008.46,313.71v-6.83h24.22v6.83h-8.46v24.18h-7.31V313.71Z"/><path class="cls-2" d="M1072.44,338.29q-6,0-11.24-5.07l1.56-2.79a3,3,0,0,1,2.21-1.57,4.1,4.1,0,0,1,2.89.65,9.63,9.63,0,0,0,4.58,1.89,5,5,0,0,0,2.94-.74,2.64,2.64,0,0,0,1.07-2.33,2.34,2.34,0,0,0-1-1.8,10,10,0,0,0-3-1.52,18.25,18.25,0,0,1-7.14-4,7.64,7.64,0,0,1-2.31-5.57,8.32,8.32,0,0,1,2.77-6.5,10.45,10.45,0,0,1,7.25-2.49,14.74,14.74,0,0,1,5,.9,10.27,10.27,0,0,1,4.12,2.61l-1.41,2.48a4.1,4.1,0,0,1-1.45,1.5,3.09,3.09,0,0,1-1.69.49,5.34,5.34,0,0,1-1.65-.31,6,6,0,0,0-2.9-.78,3.13,3.13,0,0,0-2,.57,1.8,1.8,0,0,0-.75,1.51,1.88,1.88,0,0,0,1,1.53,11.67,11.67,0,0,0,3.15,1.29q9.27,2.44,9.27,10a9.16,9.16,0,0,1-3.12,7.22A11.94,11.94,0,0,1,1072.44,338.29Z"/><path class="cls-2" d="M1095.07,328.72a16.9,16.9,0,0,1,0-12.66,14.87,14.87,0,0,1,8.44-8.36,16.79,16.79,0,0,1,6.39-1.22,16.49,16.49,0,0,1,8.23,2.07,15.07,15.07,0,0,1,5.77,5.71,16.9,16.9,0,0,1,.86,14.47,15.4,15.4,0,0,1-3.36,5,15.23,15.23,0,0,1-5.12,3.31,17.59,17.59,0,0,1-12.77,0,15,15,0,0,1-5.1-3.31A15.6,15.6,0,0,1,1095.07,328.72Zm8.6-12.72a9.4,9.4,0,0,0,0,12.79,8.92,8.92,0,0,0,12.51,0,9.43,9.43,0,0,0,0-12.79,8.9,8.9,0,0,0-12.51,0Z"/><path class="cls-2" d="M1138,337.89v-31h7.31v24.31H1157v6.7Z"/><path class="cls-2" d="M1175.33,325.56a5.17,5.17,0,0,0,1.56,3.92A5.68,5.68,0,0,0,1181,331a5.75,5.75,0,0,0,4.14-1.5,5.14,5.14,0,0,0,1.57-3.92V306.88H1194v18.68a12.32,12.32,0,0,1-3.6,9.2,14.31,14.31,0,0,1-18.81,0,12.32,12.32,0,0,1-3.6-9.21V306.88h7.32Z"/><path class="cls-2" d="M1204.33,313.71v-6.83h24.23v6.83h-8.47v24.18h-7.31V313.71Z"/><path class="cls-2" d="M1247,337.89h-7.32v-31H1247Z"/><path class="cls-2" d="M1260.28,328.72a16.9,16.9,0,0,1,0-12.66,15.09,15.09,0,0,1,3.34-5.05,15.3,15.3,0,0,1,5.09-3.31,16.79,16.79,0,0,1,6.39-1.22,16.53,16.53,0,0,1,8.24,2.07,15,15,0,0,1,5.76,5.71,16,16,0,0,1,2.09,8.14,16.23,16.23,0,0,1-1.23,6.33,15.4,15.4,0,0,1-3.36,5,15.18,15.18,0,0,1-5.11,3.31,17.61,17.61,0,0,1-12.78,0,15,15,0,0,1-5.09-3.31A15.44,15.44,0,0,1,1260.28,328.72Zm8.59-12.72a9.4,9.4,0,0,0,0,12.79,8.92,8.92,0,0,0,12.51,0,9.43,9.43,0,0,0,0-12.79,8.9,8.9,0,0,0-12.51,0Z"/><path class="cls-2" d="M1323.39,306.88h7.27v31h-5.36a3.18,3.18,0,0,1-2.54-1.62l-13-19h-.11a11.54,11.54,0,0,1,.87,4.6l0,16.05h-7.27v-31l5.87,0a3.27,3.27,0,0,1,1.89.49,6.91,6.91,0,0,1,1.57,1.76l11.62,17.16h.11a12.89,12.89,0,0,1-1-4.85Z"/><path class="cls-2" d="M1353.09,338.29q-6,0-11.24-5.07l1.56-2.79a3,3,0,0,1,2.21-1.57,4.1,4.1,0,0,1,2.89.65,9.63,9.63,0,0,0,4.58,1.89,5,5,0,0,0,2.94-.74,2.64,2.64,0,0,0,1.08-2.33,2.35,2.35,0,0,0-1-1.8,10.08,10.08,0,0,0-3-1.52,18.23,18.23,0,0,1-7.15-4,7.64,7.64,0,0,1-2.31-5.57,8.32,8.32,0,0,1,2.77-6.5,10.45,10.45,0,0,1,7.25-2.49,14.74,14.74,0,0,1,5,.9,10.27,10.27,0,0,1,4.12,2.61l-1.41,2.48a4.1,4.1,0,0,1-1.45,1.5,3.09,3.09,0,0,1-1.69.49,5.34,5.34,0,0,1-1.65-.31,6,6,0,0,0-2.9-.78,3.13,3.13,0,0,0-2,.57,1.8,1.8,0,0,0-.75,1.51,1.88,1.88,0,0,0,1,1.53,11.67,11.67,0,0,0,3.15,1.29q9.27,2.44,9.27,10a9.16,9.16,0,0,1-3.12,7.22A11.94,11.94,0,0,1,1353.09,338.29Z"/><path class="cls-1" d="M452.91,227.26l-.89-.41a21,21,0,0,1-1.73,3.37l.84.2a100.41,100.41,0,0,1,17.75,5.68A125.07,125.07,0,0,0,452.91,227.26Z"/><path class="cls-2" d="M415.52,204.7a16.49,16.49,0,0,0-5.67,11,15.77,15.77,0,0,0,.94,6.92q-2.32,1.69-4.68,3.29c-2.69,1.89-5.43,3.68-8.18,5.43a235.08,235.08,0,0,1-75.3,30.57q-10.77,2.35-21.73,3.74c-4.3.55-8.6,1-12.92,1.29q-.76.07-1.53.12h-.08q-5.44.36-10.91.5l-4.48.06c-4.31,0-8.61-.05-12.91-.24q-8.52-.37-17-1.34c-4.32-.48-8.63-1.07-12.92-1.8s-8.28-1.47-12.39-2.36c-2-.43-3.93-.88-5.89-1.35-4.33-1-8.63-2.16-12.91-3.42-6.59-1.93-13.1-4.13-19.48-6.66q-6.55-2.58-12.91-5.66c-1.63-.78-3.24-1.6-4.84-2.43-1.09-.56-2.17-1.14-3.24-1.73a138.87,138.87,0,0,1-20-13.21c-9.49-7.59-17.78-16.68-23-27.37-.61-1.27-1.18-2.54-1.71-3.85-12.69-31.22,8.45-62.82,37.88-73.59a79,79,0,0,1,7.71-2.38,89.47,89.47,0,0,1,9.21-1.89c1.54-.24,3.84-.38,5.72-.54.13.1.27.19.41.28,1.86,1.4,3.73,2.69,5.59,3.86q2.53,1.6,5.05,3a76.17,76.17,0,0,0,28.94,8.79c-6.29-16-22.33-29.35-22.33-29.35,18.8,3.28,27.75,26.54,28.81,29.54.21,0,.4,0,.57,0,0,0,13,54.16-14.26,79.31a81.48,81.48,0,0,1-8.79,6.41c-13.21,8.35-27.3,10.78-42.15,10.43,2,1.24,4.08,2.45,6.23,3.63,1,.56,2,1.1,3,1.62,1.29.67,3,1.53,4.63,2.33,3.12,1.52,6.29,2.94,9.46,4.26a6.16,6.16,0,0,0-.2-1.42A107.75,107.75,0,0,0,197,233.35v15.42l2.25.67c3.46,1,7,2,10.66,2.87V227.87a6.77,6.77,0,0,0-.12-1.28l18.4-9.71v39.25L241.07,258V216.75l17,7.32c0,.13,0,.26,0,.4v34.91l.35,0c3.63.16,7.18.24,10.55.24h2v-30c2.8,3.44,11,5.73,17,7.3v22c3.83-.28,7.73-.68,11.91-1.21l1-.13V240.06c27.94,5,55.43-4.3,83.21-9.8q4.84-2.72,9.56-5.68c3.17-2,5.6-3.63,7.84-5.21l.37-.25a23.3,23.3,0,0,1-.08-2.51c-48.41.15-92.22,23.27-129.2-.14a79.27,79.27,0,0,1-11.06-8.35c-20.78-24.76-12.08-69.74-10.64-76.41,0,0,8.82-26.35,28.93-29.85,0,0-16.48,13.72-22.58,30,21.81-.32,56.82-9.42,69.44-56.48l.13-.54a1.3,1.3,0,0,0-.54-.14,107.28,107.28,0,0,0-11-2.73c-.44-.11-.89-.2-1.35-.29l-.32-.07C256.84,60,233,120.18,233,120.18c-12.18-36.67-36.09-47.52-56.37-49.49l-1-.1c-.77-.06-1.53-.1-2.29-.14-1.51-.09-3.07-.12-4.66-.11H167.4c-.72,0-1.46,0-2.2.08a85.37,85.37,0,0,0-23.44,4.42c0,.21.13.54.13.54a110.25,110.25,0,0,0,11.45,22.12c.5.74,1,1.46,1.52,2.17,1.21,1.66,2.43,3.26,3.69,4.77-2.39.55-4.77,1.2-7.12,1.92-17.7,5.48-34.73,16.27-45.66,31.44a69,69,0,0,0-12.38,30.81c-.21,1.48-.36,2.95-.47,4.43-.13,1.91-.18,3.82-.14,5.74a64.71,64.71,0,0,0,7.34,28.55,82.4,82.4,0,0,0,10.9,16c.38.44.76.87,1.15,1.3a120.52,120.52,0,0,0,19.76,17.53c.59.43,1.18.86,1.79,1.28a187.83,187.83,0,0,0,30.09,16.89l.76.34q6.36,2.85,12.91,5.28,9.59,3.57,19.48,6.26c4.27,1.19,8.57,2.24,12.91,3.18q9.07,2,18.28,3.31c.62.09,1.24.18,1.87.25q5.5.77,11,1.3,8.49.84,17,1.14c4.3.17,8.62.24,12.91.21l3.56,0q6.73-.12,13.44-.57,6.48-.45,12.92-1.21A257.73,257.73,0,0,0,373,260.52q2.61-1.12,5.2-2.31c1.84-.83,3.69-1.71,5.51-2.61s3.59-1.78,5.37-2.72a239.83,239.83,0,0,0,26.12-15.72c2-1.4,4.05-2.82,6.05-4.3a20.05,20.05,0,0,0,20.21-3.4,17,17,0,0,0,1.69-1.71,16.29,16.29,0,0,0,2.82-4.53,16.13,16.13,0,0,0-4-18A20,20,0,0,0,415.52,204.7Zm22.09,15.69a9,9,0,0,1-2.35,3.18,10.14,10.14,0,0,1-6.33,2.5,9.36,9.36,0,0,1-2.47-.18,10.08,10.08,0,0,1-5.09-2.58,8.53,8.53,0,0,1-2.7-6.83,8.63,8.63,0,0,1,3-5.9,10.52,10.52,0,0,1,13.93.26A8.47,8.47,0,0,1,437.61,220.39Z"/><path class="cls-1" d="M200.78,300.38c-1.3-.31-2.57-.63-3.82-1v28.5H161.3a6.46,6.46,0,0,0-6.46,6.45v24a17.56,17.56,0,1,0,12.91-.79V340.82h35.66a6.46,6.46,0,0,0,6.46-6.45V302.44c-.63-.12-1.25-.27-1.88-.4C205.58,301.5,203.17,301,200.78,300.38ZM168.7,374.25a6.42,6.42,0,1,1-6.41-6.42A6.43,6.43,0,0,1,168.7,374.25Z"/><path class="cls-1" d="M241.07,393.49V307.25l-.8-.07c-4.77-.44-8.11-.86-9.68-1.07l-.76-.09c-.11,0-.92-.15-1.68-.26V393a17.59,17.59,0,1,0,12.92.48ZM234,416a6.42,6.42,0,1,1,6.42-6.42A6.43,6.43,0,0,1,234,416Z"/><path class="cls-1" d="M312.81,383.79a17.6,17.6,0,0,0-16.32,11.07,6.85,6.85,0,0,0-1.37-.16H271V308.55h-.7c-4,0-7.94-.07-12.21-.24v92.85a6.45,6.45,0,0,0,6.45,6.46h30.6a7,7,0,0,0,1.23-.11,17.57,17.57,0,1,0,16.46-23.72Zm0,24a6.42,6.42,0,1,1,6.42-6.42A6.42,6.42,0,0,1,312.81,407.79Z"/><path class="cls-1" d="M385.42,308.49a17.61,17.61,0,0,0-16.25,10.88H300.9v-12.5c-3.86.46-8,.84-12.34,1.11l-.58,0v17.81a6.46,6.46,0,0,0,6.47,6.45H369a17.57,17.57,0,1,0,16.42-23.78Zm0,24a6.43,6.43,0,1,1,6.43-6.43A6.43,6.43,0,0,1,385.42,332.49Z"/><path class="cls-1" d="M177.48,310.37V293.55c-1-.34-2-.69-3-1-3.32-1.17-6.66-2.45-10-3.79v15.2H111.74a17.6,17.6,0,1,0,.17,12.91H171A6.46,6.46,0,0,0,177.48,310.37Zm-82,6.66a6.42,6.42,0,1,1,6.43-6.41A6.41,6.41,0,0,1,95.48,317Z"/><path class="cls-1" d="M85.33,225.75c-.55-1-1-2.05-1.51-3-.36-.74-.7-1.49-1-2.25C56.55,218.08,28.84,220.38,0,239.2c9.53-6.23,25.32-7.78,36.18-9.09,19.3-2.3,37.21,1.21,55.12,5.28A83,83,0,0,1,85.33,225.75Z"/><path class="cls-2" d="M230.59,96.14l2.31-47.42,0-1.09.07,1.09,2.31,47.51c10.71-9.9,47.44-50-1.93-95.85A2.14,2.14,0,0,0,233,0a1.45,1.45,0,0,0-.4.38C183.38,46.13,219.78,86.1,230.59,96.14Z"/><path class="cls-1" d="M230.54,297.24h0c.09,0,.5.08,1.19.17,1.65.22,4.89.61,9.32,1s10.35.84,17,1.1c4,.15,8.35.25,12.91.24,5.42,0,11.14-.18,17-.55,4.25-.27,8.58-.66,12.92-1.2,1.06-.12,2.13-.26,3.19-.4,1.74-.26,3.46-.52,5.18-.8,1.36-.21,2.71-.45,4.08-.71l.11,0a242,242,0,0,0,32.11-8q7.2-2.31,14.18-5.09h0q10.17-4,19.85-9c.09.18.21.34.32.54a7.86,7.86,0,0,0,1.31,1.65,10,10,0,0,0,13.31.27,8.09,8.09,0,0,0,2-9.86h0a8.75,8.75,0,0,0-1.73-2.35,9.39,9.39,0,0,0-4.07-2.26,7.85,7.85,0,0,0-1.05-.22,1.88,1.88,0,0,0-.33-.05l-.56,0a2.91,2.91,0,0,0-.42,0,9.72,9.72,0,0,0-6.9,2.29,8.4,8.4,0,0,0-1.41,1.66l-.21.31c1.21-.56,2.42-1.11,3.61-1.68L380,265.92c-.09.12-.18.25-.26.38a2.68,2.68,0,0,0-.18.33,7,7,0,0,0-.43,1,8.08,8.08,0,0,0-.34,3.68q-7.54,3-15.24,5.61a283.48,283.48,0,0,1-44.13,11.05q-9.18,1.55-18.48,2.49c-1,.11-2.1.2-3.15.29l-3.54.29c-1.57.1-3.15.14-4.75.22-.5,0-1,0-1.48.06q-6.27.31-12.6.31h-2.26c-.71,0-1.43,0-2.14,0q-5.72-.09-11.44-.42l-.36,0c-.37,0-.74-.06-1.11-.09-1.06-.08-2.12-.17-3.19-.23-1.8-.14-3.61-.24-5.42-.44-1.14-.1-2.3-.23-3.44-.36-1.65-.18-3.3-.36-5-.56q-6.48-.79-12.92-1.88-7.87-1.32-15.68-3.05a.33.33,0,0,1-.16-.05c-.82-.18-1.63-.36-2.44-.56-1.48-.34-3-.68-4.45-1-2.83-.68-5.65-1.41-8.46-2.17-6.59-1.8-13.1-3.87-19.48-6.2h0q-6.54-2.39-12.9-5.16a196.81,196.81,0,0,1-30-16.22c-1.41-.95-2.82-1.91-4.2-2.9l-.2-.13-2.36-1.7L126,247q-2.4-1.78-4.72-3.64c-.52-.41-1-.82-1.54-1.25l-.22-.19c-.23-.19-.46-.37-.69-.57h0a111.39,111.39,0,0,1-10.16-9.6l-.5-.55a82.32,82.32,0,0,1-6-7.36c-.23-.32-.46-.64-.68-1a67.26,67.26,0,0,1-4-6.33,86.45,86.45,0,0,1-10.91-39.35H84.22l-.26,0c0,.39-.06.78-.1,1.18A82.19,82.19,0,0,0,91.78,219c.42.89.87,1.78,1.33,2.64a82.51,82.51,0,0,0,11,15.85c.31.35.62.7.94,1A127.08,127.08,0,0,0,120.5,252.9a185,185,0,0,0,38.7,23.92q2.67,1.23,5.37,2.39,6.38,2.71,12.91,5c6.4,2.3,12.91,4.31,19.48,6.09,1.94.52,3.9,1,5.85,1.51q3.52.84,7.06,1.62c6,1.31,12.13,2.47,18.28,3.42Zm154.09-30.32a5.3,5.3,0,0,1,7,.12,5,5,0,0,1,1,1.48v0a4.32,4.32,0,0,1-1.18,4.93,5.28,5.28,0,0,1-7-.14,6.84,6.84,0,0,1-.58-.64A4.29,4.29,0,0,1,384.63,266.92Z"/></g></g></svg>