<svg xmlns="http://www.w3.org/2000/svg" viewBox="0 0 468.88 427.15"><defs><style>.cls-1{fill:#683214;}.cls-2{fill:#12af33;}</style></defs><g id="Layer_2" data-name="Layer 2"><g id="Layer_2-2" data-name="Layer 2"><path class="cls-1" d="M452.91,227.26l-.89-.41a21,21,0,0,1-1.73,3.37l.84.2a100.41,100.41,0,0,1,17.75,5.68A125.07,125.07,0,0,0,452.91,227.26Z"/><path class="cls-2" d="M415.52,204.7a16.49,16.49,0,0,0-5.67,11,15.77,15.77,0,0,0,.94,6.92q-2.32,1.69-4.68,3.29c-2.69,1.89-5.43,3.68-8.18,5.43a235.08,235.08,0,0,1-75.3,30.57q-10.77,2.35-21.73,3.74c-4.3.55-8.6,1-12.92,1.29q-.76.07-1.53.12h-.08q-5.44.36-10.91.5l-4.48.06c-4.31,0-8.61-.05-12.91-.24q-8.52-.37-17-1.34c-4.32-.48-8.63-1.07-12.92-1.8s-8.28-1.47-12.39-2.36c-2-.43-3.93-.88-5.89-1.35-4.33-1-8.63-2.16-12.91-3.42-6.59-1.93-13.1-4.13-19.48-6.66q-6.55-2.58-12.91-5.66c-1.63-.78-3.24-1.6-4.84-2.43-1.09-.56-2.17-1.14-3.24-1.73a138.87,138.87,0,0,1-20-13.21c-9.49-7.59-17.78-16.68-23-27.37-.61-1.27-1.18-2.54-1.71-3.85-12.69-31.22,8.45-62.82,37.88-73.59a79,79,0,0,1,7.71-2.38,89.47,89.47,0,0,1,9.21-1.89c1.54-.24,3.84-.38,5.72-.54.13.1.27.19.41.28,1.86,1.4,3.73,2.69,5.59,3.86q2.53,1.6,5.05,3a76.17,76.17,0,0,0,28.94,8.79c-6.29-16-22.33-29.35-22.33-29.35,18.8,3.28,27.75,26.54,28.81,29.54.21,0,.4,0,.57,0,0,0,13,54.16-14.26,79.31a81.48,81.48,0,0,1-8.79,6.41c-13.21,8.35-27.3,10.78-42.15,10.43,2,1.24,4.08,2.45,6.23,3.63,1,.56,2,1.1,3,1.62,1.29.67,3,1.53,4.63,2.33,3.12,1.52,6.29,2.94,9.46,4.26a6.16,6.16,0,0,0-.2-1.42A107.75,107.75,0,0,0,197,233.35v15.42l2.25.67c3.46,1,7,2,10.66,2.87V227.87a6.77,6.77,0,0,0-.12-1.28l18.4-9.71v39.25L241.07,258V216.75l17,7.32c0,.13,0,.26,0,.4v34.91l.35,0c3.63.16,7.18.24,10.55.24h2v-30c2.8,3.44,11,5.73,17,7.3v22c3.83-.28,7.73-.68,11.91-1.21l1-.13V240.06c27.94,5,55.43-4.3,83.21-9.8q4.84-2.72,9.56-5.68c3.17-2,5.6-3.63,7.84-5.21l.37-.25a23.3,23.3,0,0,1-.08-2.51c-48.41.15-92.22,23.27-129.2-.14a79.27,79.27,0,0,1-11.06-8.35c-20.78-24.76-12.08-69.74-10.64-76.41,0,0,8.82-26.35,28.93-29.85,0,0-16.48,13.72-22.58,30,21.81-.32,56.82-9.42,69.44-56.48l.13-.54a1.3,1.3,0,0,0-.54-.14,107.28,107.28,0,0,0-11-2.73c-.44-.11-.89-.2-1.35-.29l-.32-.07C256.84,60,233,120.18,233,120.18c-12.18-36.67-36.09-47.52-56.37-49.49l-1-.1c-.77-.06-1.53-.1-2.29-.14-1.51-.09-3.07-.12-4.66-.11H167.4c-.72,0-1.46,0-2.2.08a85.37,85.37,0,0,0-23.44,4.42c0,.21.13.54.13.54a110.25,110.25,0,0,0,11.45,22.12c.5.74,1,1.46,1.52,2.17,1.21,1.66,2.43,3.26,3.69,4.77-2.39.55-4.77,1.2-7.12,1.92-17.7,5.48-34.73,16.27-45.66,31.44a69,69,0,0,0-12.38,30.81c-.21,1.48-.36,2.95-.47,4.43-.13,1.91-.18,3.82-.14,5.74a64.71,64.71,0,0,0,7.34,28.55,82.4,82.4,0,0,0,10.9,16c.38.44.76.87,1.15,1.3a120.52,120.52,0,0,0,19.76,17.53c.59.43,1.18.86,1.79,1.28a187.83,187.83,0,0,0,30.09,16.89l.76.34q6.36,2.85,12.91,5.28,9.59,3.57,19.48,6.26c4.27,1.19,8.57,2.24,12.91,3.18q9.07,2,18.28,3.31c.62.09,1.24.18,1.87.25q5.5.77,11,1.3,8.49.84,17,1.14c4.3.17,8.62.24,12.91.21l3.56,0q6.73-.12,13.44-.57,6.48-.45,12.92-1.21A257.73,257.73,0,0,0,373,260.52q2.61-1.12,5.2-2.31c1.84-.83,3.69-1.71,5.51-2.61s3.59-1.78,5.37-2.72a239.83,239.83,0,0,0,26.12-15.72c2-1.4,4.05-2.82,6.05-4.3a20.05,20.05,0,0,0,20.21-3.4,17,17,0,0,0,1.69-1.71,16.29,16.29,0,0,0,2.82-4.53,16.13,16.13,0,0,0-4-18A20,20,0,0,0,415.52,204.7Zm22.09,15.69a9,9,0,0,1-2.35,3.18,10.14,10.14,0,0,1-6.33,2.5,9.36,9.36,0,0,1-2.47-.18,10.08,10.08,0,0,1-5.09-2.58,8.53,8.53,0,0,1-2.7-6.83,8.63,8.63,0,0,1,3-5.9,10.52,10.52,0,0,1,13.93.26A8.47,8.47,0,0,1,437.61,220.39Z"/><path class="cls-1" d="M200.78,300.38c-1.3-.31-2.57-.63-3.82-1v28.5H161.3a6.46,6.46,0,0,0-6.46,6.45v24a17.56,17.56,0,1,0,12.91-.79V340.82h35.66a6.46,6.46,0,0,0,6.46-6.45V302.44c-.63-.12-1.25-.27-1.88-.4C205.58,301.5,203.17,301,200.78,300.38ZM168.7,374.25a6.42,6.42,0,1,1-6.41-6.42A6.43,6.43,0,0,1,168.7,374.25Z"/><path class="cls-1" d="M241.07,393.49V307.25l-.8-.07c-4.77-.44-8.11-.86-9.68-1.07l-.76-.09c-.11,0-.92-.15-1.68-.26V393a17.59,17.59,0,1,0,12.92.48ZM234,416a6.42,6.42,0,1,1,6.42-6.42A6.43,6.43,0,0,1,234,416Z"/><path class="cls-1" d="M312.81,383.79a17.6,17.6,0,0,0-16.32,11.07,6.85,6.85,0,0,0-1.37-.16H271V308.55h-.7c-4,0-7.94-.07-12.21-.24v92.85a6.45,6.45,0,0,0,6.45,6.46h30.6a7,7,0,0,0,1.23-.11,17.57,17.57,0,1,0,16.46-23.72Zm0,24a6.42,6.42,0,1,1,6.42-6.42A6.42,6.42,0,0,1,312.81,407.79Z"/><path class="cls-1" d="M385.42,308.49a17.61,17.61,0,0,0-16.25,10.88H300.9v-12.5c-3.86.46-8,.84-12.34,1.11l-.58,0v17.81a6.46,6.46,0,0,0,6.47,6.45H369a17.57,17.57,0,1,0,16.42-23.78Zm0,24a6.43,6.43,0,1,1,6.43-6.43A6.43,6.43,0,0,1,385.42,332.49Z"/><path class="cls-1" d="M177.48,310.37V293.55c-1-.34-2-.69-3-1-3.32-1.17-6.66-2.45-10-3.79v15.2H111.74a17.6,17.6,0,1,0,.17,12.91H171A6.46,6.46,0,0,0,177.48,310.37Zm-82,6.66a6.42,6.42,0,1,1,6.43-6.41A6.41,6.41,0,0,1,95.48,317Z"/><path class="cls-1" d="M85.33,225.75c-.55-1-1-2.05-1.51-3-.36-.74-.7-1.49-1-2.25C56.55,218.08,28.84,220.38,0,239.2c9.53-6.23,25.32-7.78,36.18-9.09,19.3-2.3,37.21,1.21,55.12,5.28A83,83,0,0,1,85.33,225.75Z"/><path class="cls-2" d="M230.59,96.14l2.31-47.42,0-1.09.07,1.09,2.31,47.51c10.71-9.9,47.44-50-1.93-95.85A2.14,2.14,0,0,0,233,0a1.45,1.45,0,0,0-.4.38C183.38,46.13,219.78,86.1,230.59,96.14Z"/><path class="cls-1" d="M230.54,297.24h0c.09,0,.5.08,1.19.17,1.65.22,4.89.61,9.32,1s10.35.84,17,1.1c4,.15,8.35.25,12.91.24,5.42,0,11.14-.18,17-.55,4.25-.27,8.58-.66,12.92-1.2,1.06-.12,2.13-.26,3.19-.4,1.74-.26,3.46-.52,5.18-.8,1.36-.21,2.71-.45,4.08-.71l.11,0a242,242,0,0,0,32.11-8q7.2-2.31,14.18-5.09h0q10.17-4,19.85-9c.09.18.21.34.32.54a7.86,7.86,0,0,0,1.31,1.65,10,10,0,0,0,13.31.27,8.09,8.09,0,0,0,2-9.86h0a8.75,8.75,0,0,0-1.73-2.35,9.39,9.39,0,0,0-4.07-2.26,7.85,7.85,0,0,0-1.05-.22,1.88,1.88,0,0,0-.33-.05l-.56,0a2.91,2.91,0,0,0-.42,0,9.72,9.72,0,0,0-6.9,2.29,8.4,8.4,0,0,0-1.41,1.66l-.21.31c1.21-.56,2.42-1.11,3.61-1.68L380,265.92c-.09.12-.18.25-.26.38a2.68,2.68,0,0,0-.18.33,7,7,0,0,0-.43,1,8.08,8.08,0,0,0-.34,3.68q-7.54,3-15.24,5.61a283.48,283.48,0,0,1-44.13,11.05q-9.18,1.55-18.48,2.49c-1,.11-2.1.2-3.15.29l-3.54.29c-1.57.1-3.15.14-4.75.22-.5,0-1,0-1.48.06q-6.27.31-12.6.31h-2.26c-.71,0-1.43,0-2.14,0q-5.72-.09-11.44-.42l-.36,0c-.37,0-.74-.06-1.11-.09-1.06-.08-2.12-.17-3.19-.23-1.8-.14-3.61-.24-5.42-.44-1.14-.1-2.3-.23-3.44-.36-1.65-.18-3.3-.36-5-.56q-6.48-.79-12.92-1.88-7.87-1.32-15.68-3.05a.33.33,0,0,1-.16-.05c-.82-.18-1.63-.36-2.44-.56-1.48-.34-3-.68-4.45-1-2.83-.68-5.65-1.41-8.46-2.17-6.59-1.8-13.1-3.87-19.48-6.2h0q-6.54-2.39-12.9-5.16a196.81,196.81,0,0,1-30-16.22c-1.41-.95-2.82-1.91-4.2-2.9l-.2-.13-2.36-1.7L126,247q-2.4-1.78-4.72-3.64c-.52-.41-1-.82-1.54-1.25l-.22-.19c-.23-.19-.46-.37-.69-.57h0a111.39,111.39,0,0,1-10.16-9.6l-.5-.55a82.32,82.32,0,0,1-6-7.36c-.23-.32-.46-.64-.68-1a67.26,67.26,0,0,1-4-6.33,86.45,86.45,0,0,1-10.91-39.35H84.22l-.26,0c0,.39-.06.78-.1,1.18A82.19,82.19,0,0,0,91.78,219c.42.89.87,1.78,1.33,2.64a82.51,82.51,0,0,0,11,15.85c.31.35.62.7.94,1A127.08,127.08,0,0,0,120.5,252.9a185,185,0,0,0,38.7,23.92q2.67,1.23,5.37,2.39,6.38,2.71,12.91,5c6.4,2.3,12.91,4.31,19.48,6.09,1.94.52,3.9,1,5.85,1.51q3.52.84,7.06,1.62c6,1.31,12.13,2.47,18.28,3.42Zm154.09-30.32a5.3,5.3,0,0,1,7,.12,5,5,0,0,1,1,1.48v0a4.32,4.32,0,0,1-1.18,4.93,5.28,5.28,0,0,1-7-.14,6.84,6.84,0,0,1-.58-.64A4.29,4.29,0,0,1,384.63,266.92Z"/></g></g></svg>